<?xml version="1.0" standalone="no"?>
<!DOCTYPE svg PUBLIC "-//W3C//DTD SVG 1.1//EN" "http://www.w3.org/Graphics/SVG/1.1/DTD/svg11.dtd" >
<svg xmlns="http://www.w3.org/2000/svg" xmlns:xlink="http://www.w3.org/1999/xlink" version="1.1">
<metadata>
Created by FontForge 20161116 at Tue Apr 24 10:21:23 2012
 By Jimmy Warting
Copyright (c) 2003 - 2012 Linotype GmbH, www.linotype.com. All rights reserved. This font software may not be reproduced, modified, disclosed or transferred without the express written approval of Linotype GmbH. Avenir is a trademark of Linotype GmbH registered in the U.S. Patent and Trademark Office and may be registered in certain other jurisdictions. This typeface is original artwork of Adrian Frutiger and Akira Kobayashi. The design may be protected in certain jurisdictions.
</metadata>
<defs>
<font id="AvenirNextCyr-BoldItalic" horiz-adv-x="300" >
  <font-face 
    font-family="Avenir Next Cyr Medium"
    font-weight="750"
    font-style="italic"
    font-stretch="normal"
    units-per-em="1000"
    panose-1="2 11 8 3 2 2 2 9 2 4"
    ascent="756"
    descent="-244"
    x-height="498"
    cap-height="708"
    bbox="-252 -250 1215 961"
    underline-thickness="50"
    underline-position="-100"
    slope="-12"
    stemh="120"
    stemv="170"
    unicode-range="U+000D-FB04"
  />
<missing-glyph horiz-adv-x="512" 
d="M278 117h-56v67h56v-67zM271 234h-46l-2 17c0 37 4 64 13 81s24 37 46 59c43 41 50 58 50 83c0 48 -35 85 -76 85s-74 -27 -82 -95l-50 8c9 95 63 137 135 137c71 0 124 -52 124 -131c0 -43 -12 -73 -63 -120c-25 -22 -39 -39 -43 -52s-6 -37 -6 -72zM50 50h412v617h-412
v-617zM0 718h512v-718h-512v718z" />
    <glyph glyph-name="napostrophe" unicode="&#x22;n" horiz-adv-x="701" 
d="M325 426h2c32 49 87 85 156 85c111 0 159 -70 159 -151c0 -18 -1 -37 -5 -54l-54 -306h-160l47 270c3 14 5 30 5 42c0 37 -17 67 -66 67c-58 0 -95 -50 -105 -109l-48 -270h-160l69 395c5 25 12 71 15 103h153c-1 -16 -6 -51 -8 -72zM290 708l-130 -195h-123l111 195h142
z" />
    <glyph glyph-name="fi" unicode="fi" horiz-adv-x="659" 
d="M658 665c0 -52 -39 -96 -93 -96c-50 0 -86 34 -86 80c0 54 41 96 94 96c49 0 85 -35 85 -80zM624 498l-88 -498h-160l87 498h161zM443 765l-29 -128c-12 5 -25 8 -42 8c-58 0 -76 -48 -85 -94l-9 -53h112l-21 -120h-110l-67 -378h-157l67 378h-91l21 120h88l10 51
c22 115 75 226 238 226c27 0 55 -3 75 -10z" />
    <glyph glyph-name="fl" unicode="fl" horiz-adv-x="659" 
d="M537 0h-162l133 756h162zM443 765l-29 -128c-12 5 -25 8 -42 8c-58 0 -76 -48 -85 -94l-9 -53h112l-21 -120h-110l-67 -378h-157l67 378h-91l21 120h88l10 51c21 116 75 226 238 226c27 0 55 -3 75 -10z" />
    <glyph glyph-name="f_f_l" unicode="ffl" horiz-adv-x="1002" 
d="M786 765l-29 -128c-12 5 -25 8 -42 8c-58 0 -77 -48 -85 -94l-9 -53h112l-21 -120h-110l-67 -378h-157l67 378h-186l-67 -378h-157l67 378h-91l21 120h88l10 51c21 116 75 226 238 226c27 0 55 -3 75 -10l-29 -128c-12 5 -25 8 -42 8c-58 0 -77 -48 -85 -94l-9 -53h185
l10 51c21 116 75 226 238 226c27 0 55 -3 75 -10zM879 0h-162l133 756h163z" />
    <glyph glyph-name="f_f_i" unicode="ffi" horiz-adv-x="1002" 
d="M786 765l-29 -128c-12 5 -25 8 -42 8c-58 0 -77 -48 -85 -94l-9 -53h112l-21 -120h-110l-67 -378h-157l67 378h-186l-67 -378h-157l67 378h-91l21 120h88l10 51c21 116 75 226 238 226c27 0 55 -3 75 -10l-29 -128c-12 5 -25 8 -42 8c-58 0 -77 -48 -85 -94l-9 -53h185
l10 51c21 116 75 226 238 226c27 0 55 -3 75 -10zM878 0h-159l87 498h161zM1001 665c0 -52 -39 -96 -93 -96c-50 0 -87 34 -87 80c0 54 42 96 95 96c49 0 85 -35 85 -80z" />
    <glyph glyph-name="f_f" unicode="ff" horiz-adv-x="704" 
d="M786 765l-29 -128c-12 5 -25 8 -42 8c-58 0 -77 -48 -85 -94l-9 -53h112l-21 -120h-110l-67 -378h-157l67 378h-186l-67 -378h-157l67 378h-91l21 120h88l10 51c21 116 75 226 238 226c27 0 55 -3 75 -10l-29 -128c-12 5 -25 8 -42 8c-58 0 -77 -48 -85 -94l-9 -53h185
l10 51c21 116 75 226 238 226c27 0 55 -3 75 -10z" />
    <glyph glyph-name=".notdef" horiz-adv-x="512" 
d="M278 117h-56v67h56v-67zM271 234h-46l-2 17c0 37 4 64 13 81s24 37 46 59c43 41 50 58 50 83c0 48 -35 85 -76 85s-74 -27 -82 -95l-50 8c9 95 63 137 135 137c71 0 124 -52 124 -131c0 -43 -12 -73 -63 -120c-25 -22 -39 -39 -43 -52s-6 -37 -6 -72zM50 50h412v617h-412
v-617zM0 718h512v-718h-512v718z" />
    <glyph glyph-name=".null" horiz-adv-x="500" 
 />
    <glyph glyph-name=".null" horiz-adv-x="500" 
 />
    <glyph glyph-name="CR" unicode="&#xd;" horiz-adv-x="0" 
 />
    <glyph glyph-name="space" unicode=" " horiz-adv-x="250" 
 />
    <glyph glyph-name="exclam" unicode="!" horiz-adv-x="353" 
d="M243 236h-163l83 472h164zM236 92c0 -55 -41 -100 -97 -100c-53 0 -90 35 -90 84c0 56 43 100 98 100c52 0 89 -36 89 -84z" />
    <glyph glyph-name="quotedbl" unicode="&#x22;" horiz-adv-x="490" 
d="M418 438h-127l48 270h127zM225 438h-127l48 270h128z" />
    <glyph glyph-name="numbersign" unicode="#" horiz-adv-x="601" 
d="M571 405h-100l-32 -102h85l-18 -102h-98l-65 -201h-108l64 201h-81l-64 -201h-108l64 201h-85l18 102h98l34 102h-85l17 102h100l64 201h108l-63 -201h80l64 201h108l-64 -201h85zM364 405h-81l-33 -102h81z" />
    <glyph glyph-name="dollar" unicode="$" horiz-adv-x="644" 
d="M615 638l-107 -98c-22 27 -63 49 -107 50l-29 -167c107 -36 192 -83 192 -204c0 -139 -122 -222 -268 -229l-13 -74h-70l12 74c-80 4 -174 38 -223 101l119 100c27 -39 82 -69 128 -70l31 179c-93 27 -184 72 -184 190c0 139 123 224 255 228l13 72h71l-13 -72
c79 -6 151 -33 193 -80zM330 589c-47 -3 -84 -29 -84 -79c0 -36 19 -55 58 -67zM408 206c0 39 -24 61 -60 75l-29 -160c51 3 89 34 89 85z" />
    <glyph glyph-name="percent" unicode="%" horiz-adv-x="908" 
d="M865 202c0 -119 -87 -213 -209 -213c-98 0 -170 63 -170 158c0 118 88 212 209 212c100 0 170 -63 170 -157zM751 189c0 36 -24 67 -64 67c-52 0 -87 -42 -87 -96c0 -37 24 -68 63 -68c54 0 88 42 88 97zM442 563c0 -119 -88 -213 -209 -213c-98 0 -170 63 -170 158
c0 118 88 212 210 212c99 0 169 -63 169 -157zM329 550c0 36 -24 67 -65 67c-52 0 -87 -42 -87 -96c0 -37 24 -68 64 -68c53 0 88 42 88 97zM771 694l-547 -729l-71 46l546 729z" />
    <glyph glyph-name="ampersand" unicode="&#x26;" horiz-adv-x="777" 
d="M741 379l-167 -202l151 -177h-198l-57 72c-69 -62 -139 -86 -213 -86c-131 0 -237 60 -237 193c0 109 78 181 187 220c-30 38 -46 85 -46 130c0 114 93 198 219 198c116 0 202 -61 202 -171c0 -91 -67 -150 -173 -195l73 -87l76 105h183zM441 549c0 37 -23 62 -61 62
c-45 0 -76 -33 -76 -77c0 -30 16 -65 36 -85c57 20 101 56 101 100zM384 174l-105 129c-54 -18 -99 -50 -99 -109c0 -47 41 -78 89 -78c46 0 83 21 115 58z" />
    <glyph glyph-name="quotesingle" unicode="'" horiz-adv-x="296" 
d="M225 438h-127l47 270h127z" />
    <glyph glyph-name="parenleft" unicode="(" horiz-adv-x="342" 
d="M208 -121l-114 -44c-53 94 -82 215 -82 335c0 202 83 404 238 572l98 -61c-141 -157 -210 -343 -210 -510c0 -99 24 -209 70 -292z" />
    <glyph glyph-name="parenright" unicode=")" horiz-adv-x="342" 
d="M125 698l114 44c53 -93 82 -215 82 -335c0 -202 -83 -404 -238 -571l-98 60c141 158 210 343 210 510c0 99 -24 209 -70 292z" />
    <glyph glyph-name="asterisk" unicode="*" horiz-adv-x="486" 
d="M338 708v-132l129 41l33 -97l-129 -40l81 -109l-88 -61l-82 110l-79 -107l-86 62l82 105l-131 44l34 97l129 -44v131h107z" />
    <glyph glyph-name="plus" unicode="+" horiz-adv-x="666" 
d="M611 240h-212v-209h-130v209h-213v126h212v209h130v-209h213v-126z" />
    <glyph glyph-name="comma" unicode="," 
d="M220 158l-146 -282h-131l124 282h153z" />
    <glyph glyph-name="hyphen" unicode="-" horiz-adv-x="326" 
d="M268 197h-253l23 127h252z" />
    <glyph glyph-name="period" unicode="." 
d="M203 94c0 -55 -42 -101 -99 -101c-54 0 -92 35 -92 85c0 58 44 102 101 102c52 0 90 -37 90 -86z" />
    <glyph glyph-name="slash" unicode="/" horiz-adv-x="413" 
d="M484 723l-446 -774l-103 36l445 775z" />
    <glyph glyph-name="zero" unicode="0" horiz-adv-x="644" 
d="M379 726c174 0 238 -123 238 -255c0 -202 -84 -489 -334 -489c-175 0 -241 120 -241 252c0 204 88 492 337 492zM366 590c-97 0 -160 -177 -160 -331c0 -76 24 -138 86 -138c94 0 157 172 157 331c0 76 -21 138 -83 138z" />
    <glyph glyph-name="one" unicode="1" horiz-adv-x="644" 
d="M390 0h-164l93 525l-150 -98l-61 124l253 157h154z" />
    <glyph glyph-name="two" unicode="2" horiz-adv-x="644" 
d="M263 142h288l-25 -142h-515l24 138l319 249c56 46 85 83 85 123c0 46 -29 76 -85 76s-97 -38 -115 -101l-150 31c40 134 146 211 279 211c136 0 241 -72 241 -197c0 -116 -73 -175 -166 -247z" />
    <glyph glyph-name="three" unicode="3" horiz-adv-x="644" 
d="M290 426c90 0 139 35 139 97c0 43 -31 70 -80 70c-52 0 -89 -26 -110 -70l-134 54c49 103 148 150 257 150c117 0 230 -58 230 -188c0 -99 -74 -152 -140 -168v-2c67 -19 109 -77 109 -147c0 -159 -134 -241 -282 -241c-130 0 -229 62 -260 180l152 41
c14 -53 55 -82 114 -82c65 0 110 36 110 94c0 70 -61 92 -132 92h-44l20 120h51z" />
    <glyph glyph-name="four" unicode="4" horiz-adv-x="644" 
d="M579 139h-97l-24 -139h-152l23 139h-332l25 141l352 428h205l-77 -436h100zM351 272l50 276h-4l-219 -276h173z" />
    <glyph glyph-name="five" unicode="5" horiz-adv-x="644" 
d="M298 568l-26 -116c18 4 46 7 67 7c105 0 224 -53 224 -208c0 -186 -147 -270 -281 -270s-233 68 -264 170l150 49c15 -47 57 -79 111 -79c70 0 118 44 118 114c0 74 -59 102 -127 102c-52 0 -120 -15 -174 -35l86 406h418l-26 -140h-276z" />
    <glyph glyph-name="six" unicode="6" horiz-adv-x="644" 
d="M578 258c0 -148 -109 -276 -299 -276c-144 0 -258 77 -258 227c0 74 31 147 107 237l222 262h206l-219 -246l-6 -8c9 3 25 5 36 5c136 0 211 -96 211 -201zM412 247c0 63 -48 98 -97 98c-81 0 -131 -58 -131 -132c0 -61 49 -98 102 -98c78 0 126 53 126 132z" />
    <glyph glyph-name="seven" unicode="7" horiz-adv-x="644" 
d="M619 577l-385 -577h-199l400 567h-323l24 141h506z" />
    <glyph glyph-name="eight" unicode="8" horiz-adv-x="644" 
d="M201 199c0 -61 44 -87 89 -87c77 0 117 47 117 108c0 52 -37 87 -89 87c-69 0 -117 -45 -117 -108zM457 369l1 -3c56 -20 106 -77 106 -150c0 -147 -116 -234 -281 -234c-106 0 -238 47 -238 197c0 109 81 182 164 200v3c-50 24 -85 73 -85 132c0 144 130 212 257 212
c112 0 219 -53 219 -177c0 -107 -76 -160 -143 -180zM271 506c0 -43 30 -75 78 -75c53 0 97 35 97 93c0 47 -33 75 -80 75c-57 0 -95 -40 -95 -93z" />
    <glyph glyph-name="nine" unicode="9" horiz-adv-x="644" 
d="M625 499c0 -74 -31 -147 -107 -237l-222 -262h-206l219 246l6 8c-9 -3 -25 -5 -36 -5c-136 0 -211 96 -211 201c0 148 109 276 299 276c144 0 258 -77 258 -227zM462 495c0 61 -49 98 -102 98c-78 0 -126 -53 -126 -132c0 -63 48 -98 97 -98c81 0 131 58 131 132z" />
    <glyph glyph-name="colon" unicode=":" horiz-adv-x="330" 
d="M216 94c0 -53 -41 -98 -97 -98c-51 0 -89 34 -89 83c0 55 43 98 98 98c51 0 88 -36 88 -83zM272 419c0 -54 -41 -99 -96 -99c-52 0 -89 35 -89 83c0 56 43 98 97 98c51 0 88 -35 88 -82z" />
    <glyph glyph-name="semicolon" unicode=";" horiz-adv-x="330" 
d="M240 158l-145 -282h-135l124 282h156zM272 419c0 -54 -41 -99 -96 -99c-52 0 -89 35 -89 83c0 56 43 98 97 98c51 0 88 -35 88 -82z" />
    <glyph glyph-name="less" unicode="&#x3c;" horiz-adv-x="666" 
d="M587 37l-508 214v103l508 214v-136l-306 -131l306 -127v-137z" />
    <glyph glyph-name="equal" unicode="=" horiz-adv-x="666" 
d="M598 335h-530v123h530v-123zM598 150h-530v123h530v-123z" />
    <glyph glyph-name="greater" unicode="&#x3e;" horiz-adv-x="666" 
d="M587 251l-508 -214v137l306 127l-306 131v136l508 -214v-103z" />
    <glyph glyph-name="question" unicode="?" horiz-adv-x="543" 
d="M418 345c-50 -33 -67 -51 -74 -95l-4 -26h-152l6 39c12 70 45 106 105 151l40 30c31 23 57 45 57 84c0 42 -26 61 -69 61c-57 0 -91 -45 -101 -95l-148 26c28 129 136 207 268 207c116 0 217 -47 217 -181c0 -92 -51 -141 -145 -201zM345 92c0 -55 -41 -100 -97 -100
c-53 0 -90 35 -90 84c0 56 43 100 98 100c52 0 89 -36 89 -84z" />
    <glyph glyph-name="at" unicode="@" horiz-adv-x="800" 
d="M545 160c-53 0 -88 26 -88 64h-3c-21 -31 -66 -64 -120 -64c-82 0 -128 50 -128 126c0 121 91 268 230 268c53 0 86 -26 91 -54h1l13 34h106l-60 -159c-11 -31 -27 -74 -27 -94c0 -18 6 -24 25 -24c60 0 108 80 108 181c0 133 -95 198 -230 198
c-192 0 -325 -146 -325 -329c0 -149 104 -234 263 -234c87 0 162 31 227 83l50 -68c-71 -65 -175 -106 -289 -106c-222 0 -361 123 -361 317c0 244 193 427 437 427c189 0 329 -102 329 -279c0 -156 -98 -287 -249 -287zM479 405c0 31 -13 54 -50 54
c-51 0 -105 -84 -105 -150c0 -28 14 -51 48 -51c60 0 107 86 107 147z" />
    <glyph glyph-name="A" unicode="A" horiz-adv-x="710" 
d="M664 0h-175l-24 141h-273l-85 -141h-190l451 708h162zM448 275l-37 251l-148 -251h185z" />
    <glyph glyph-name="B" unicode="B" horiz-adv-x="664" 
d="M420 708c98 0 207 -40 207 -155c0 -95 -62 -158 -151 -181v-2c72 -12 127 -68 127 -151c0 -144 -126 -219 -303 -219h-282l125 708h277zM368 575h-91l-26 -152h102c48 0 110 20 110 87c0 47 -41 65 -95 65zM337 303h-108l-29 -169h97c74 0 140 24 140 97
c0 45 -36 72 -100 72z" />
    <glyph glyph-name="C" unicode="C" horiz-adv-x="684" 
d="M556 209l93 -110c-56 -62 -147 -118 -283 -118c-199 0 -325 123 -325 308c0 244 181 438 421 438c111 0 207 -44 252 -105l-123 -110c-22 34 -68 66 -134 66c-141 0 -238 -130 -238 -269c0 -97 61 -177 174 -177c62 0 120 28 163 77z" />
    <glyph glyph-name="D" unicode="D" horiz-adv-x="769" 
d="M18 0l125 708h262c159 0 334 -84 334 -298c0 -249 -184 -410 -432 -410h-289zM281 567l-74 -423h107c166 0 252 120 252 246c0 97 -60 177 -194 177h-91z" />
    <glyph glyph-name="E" unicode="E" horiz-adv-x="587" 
d="M500 0h-482l125 708h453l-25 -142h-294l-24 -137h280l-24 -134h-280l-26 -152h322z" />
    <glyph glyph-name="F" unicode="F" horiz-adv-x="561" 
d="M563 566h-281l-27 -151h265l-24 -137h-265l-49 -278h-164l125 708h445z" />
    <glyph glyph-name="G" unicode="G" horiz-adv-x="749" 
d="M401 126c40 1 74 7 103 21l23 133h-138l25 137h291l-65 -374c-71 -37 -166 -62 -261 -62c-203 0 -338 119 -338 308c0 244 179 438 419 438c111 0 208 -36 260 -105l-121 -109c-27 39 -72 68 -142 68c-138 0 -243 -126 -243 -273c0 -105 66 -182 187 -182z" />
    <glyph glyph-name="H" unicode="H" horiz-adv-x="757" 
d="M626 0h-166l52 298h-275l-53 -298h-166l125 708h166l-48 -269h276l47 269h167z" />
    <glyph glyph-name="I" unicode="I" horiz-adv-x="315" 
d="M185 0h-167l125 708h167z" />
    <glyph glyph-name="J" unicode="J" horiz-adv-x="525" 
d="M442 239c-20 -115 -66 -258 -255 -258c-120 0 -200 64 -221 165l154 50c5 -36 29 -65 66 -65c59 0 79 46 90 109l82 468h168z" />
    <glyph glyph-name="K" unicode="K" horiz-adv-x="679" 
d="M654 0h-207l-205 333h-3l-58 -333h-163l125 708h163l-53 -297h3l281 297h212l-347 -337z" />
    <glyph glyph-name="L" unicode="L" horiz-adv-x="525" 
d="M462 0h-444l125 708h167l-100 -563h278z" />
    <glyph glyph-name="M" unicode="M" horiz-adv-x="953" 
d="M823 0h-163l93 507h-4l-275 -507h-117l-94 507h-4l-85 -507h-156l125 708h233l82 -459h4l239 459h247z" />
    <glyph glyph-name="N" unicode="N" horiz-adv-x="789" 
d="M645 0h-185l-195 470h-3l-80 -470h-164l125 708h187l194 -467h2l80 467h164z" />
    <glyph glyph-name="O" unicode="O" horiz-adv-x="831" 
d="M460 726c213 0 342 -123 342 -313c0 -239 -171 -431 -416 -431c-215 0 -345 123 -345 313c0 239 175 431 419 431zM395 132c148 0 234 132 234 268c0 98 -64 178 -180 178c-145 0 -235 -133 -235 -268c0 -98 64 -178 181 -178z" />
    <glyph glyph-name="P" unicode="P" horiz-adv-x="637" 
d="M376 708c166 0 258 -74 258 -197c0 -169 -123 -242 -312 -242h-91l-48 -269h-165l125 708h233zM325 401c86 0 142 24 142 93c0 62 -47 79 -114 79h-68l-31 -172h71z" />
    <glyph glyph-name="Q" unicode="Q" horiz-adv-x="837" 
d="M791 427c0 -167 -87 -258 -142 -294l-1 -3l150 3l-24 -133h-397c-201 0 -336 115 -336 300c0 237 176 426 414 426c202 0 336 -115 336 -299zM619 406c0 96 -61 173 -172 173c-142 0 -234 -128 -234 -260c0 -95 61 -175 174 -175c140 0 232 128 232 262z" />
    <glyph glyph-name="R" unicode="R" horiz-adv-x="656" 
d="M459 305l144 -305h-188l-119 285h-68l-48 -285h-162l125 708h242c155 0 248 -70 248 -188c0 -114 -68 -189 -174 -215zM324 404c89 0 141 29 141 92c0 58 -45 76 -114 76h-71l-30 -168h74z" />
    <glyph glyph-name="S" unicode="S" horiz-adv-x="585" 
d="M585 636l-113 -100c-26 36 -68 55 -117 55c-45 0 -107 -24 -107 -85c0 -40 33 -60 89 -80c122 -43 194 -101 194 -208c0 -170 -156 -237 -292 -237c-100 0 -208 37 -265 110l123 100c28 -43 89 -72 145 -72c58 0 114 24 114 86c0 49 -44 74 -110 97
c-92 31 -168 76 -168 190c0 144 128 235 286 235c83 0 175 -33 221 -91z" />
    <glyph glyph-name="T" unicode="T" horiz-adv-x="553" 
d="M598 565h-194l-100 -565h-166l99 565h-198l26 143h558z" />
    <glyph glyph-name="U" unicode="U" horiz-adv-x="737" 
d="M658 260c-29 -168 -133 -278 -327 -278c-170 0 -279 85 -279 221c0 18 2 41 5 61l78 444h165l-76 -429c-2 -13 -3 -29 -3 -41c0 -59 33 -111 119 -111c111 0 142 79 155 150l77 431h164z" />
    <glyph glyph-name="V" unicode="V" horiz-adv-x="674" 
d="M767 708l-422 -708h-175l-108 708h177l55 -506h4l276 506h193z" />
    <glyph glyph-name="W" unicode="W" horiz-adv-x="1014" 
d="M1090 708l-340 -708h-166l-48 484h-3l-235 -484h-165l-62 708h176l21 -476h3l220 476h172l38 -476h3l211 476h175z" />
    <glyph glyph-name="X" unicode="X" horiz-adv-x="687" 
d="M630 0h-191l-105 253l-206 -253h-206l332 374l-156 334h187l89 -224l180 224h201l-300 -338z" />
    <glyph glyph-name="Y" unicode="Y" horiz-adv-x="613" 
d="M727 708l-344 -407l-54 -301h-166l53 301l-181 407h186l101 -268l203 268h202z" />
    <glyph glyph-name="Z" unicode="Z" horiz-adv-x="620" 
d="M532 0h-563l25 144l412 422h-307l25 142h524l-24 -134l-417 -429h351z" />
    <glyph glyph-name="bracketleft" unicode="[" horiz-adv-x="342" 
d="M177 -156h-214l156 888h215l-18 -99h-89l-121 -690h89z" />
    <glyph glyph-name="backslash" unicode="\" horiz-adv-x="415" 
d="M422 -15l-113 -37l-308 775l113 39z" />
    <glyph glyph-name="bracketright" unicode="]" horiz-adv-x="342" 
d="M203 -156h-213l17 99h89l122 690h-89l17 99h214z" />
    <glyph glyph-name="asciicircum" unicode="^" horiz-adv-x="690" 
d="M616 343h-148l-124 213l-123 -213h-148l213 365h118z" />
    <glyph glyph-name="underscore" unicode="_" horiz-adv-x="500" 
d="M500 -164h-500v89h500v-89z" />
    <glyph glyph-name="grave" unicode="`" 
d="M173 716l109 -144h-120l-152 144h163z" />
    <glyph glyph-name="a" unicode="a" horiz-adv-x="559" 
d="M503 352c0 -18 -2 -41 -6 -61l-34 -194c-6 -34 -10 -75 -10 -97h-142c0 14 2 36 4 53h-2c-37 -44 -89 -65 -152 -65c-70 0 -154 33 -154 132c0 160 176 194 342 194c2 12 2 18 2 23c0 39 -29 56 -78 56c-45 0 -94 -19 -131 -47l-66 92c59 48 143 75 219 75
c119 0 208 -50 208 -161zM340 218h-14c-80 0 -173 -11 -173 -72c0 -40 33 -51 66 -51c61 0 105 43 116 99z" />
    <glyph glyph-name="b" unicode="b" horiz-adv-x="659" 
d="M245 434h2c35 47 95 77 159 77c129 0 206 -90 206 -214c0 -171 -116 -309 -275 -309c-70 0 -135 31 -165 83h-2l-12 -71h-148l133 756h161zM453 276c0 60 -36 106 -103 106c-80 0 -141 -74 -141 -160c0 -61 40 -105 105 -105c85 0 139 71 139 159z" />
    <glyph glyph-name="c" unicode="c" horiz-adv-x="500" 
d="M510 436l-101 -96c-14 22 -48 43 -87 43c-86 0 -147 -73 -147 -157c0 -56 33 -107 108 -107c48 0 80 20 104 45l76 -102c-52 -46 -116 -76 -201 -76c-145 0 -242 87 -242 219c0 162 122 308 306 308c75 0 147 -25 184 -77z" />
    <glyph glyph-name="d" unicode="d" horiz-adv-x="656" 
d="M452 434l55 322h160l-134 -756h-147l12 68h-3c-35 -50 -96 -80 -169 -80c-129 0 -206 90 -206 214c0 170 115 309 275 309c73 0 128 -30 155 -77h2zM179 223c0 -59 36 -105 103 -105c81 0 141 73 141 159c0 61 -40 105 -104 105c-85 0 -140 -71 -140 -159z" />
    <glyph glyph-name="e" unicode="e" horiz-adv-x="587" 
d="M527 206h-357c-1 -4 -1 -7 -1 -9c0 -56 55 -89 110 -89c50 0 89 20 119 52l101 -79c-63 -67 -144 -96 -234 -96c-138 0 -245 79 -245 224c0 170 125 304 300 304c131 0 220 -75 220 -210c0 -24 -5 -65 -13 -97zM397 304c1 7 1 14 1 20c0 44 -33 77 -91 77
c-71 0 -116 -55 -126 -97h216z" />
    <glyph glyph-name="f" unicode="f" horiz-adv-x="361" 
d="M443 765l-29 -128c-12 5 -25 8 -42 8c-58 0 -76 -48 -85 -94l-9 -53h112l-21 -120h-110l-67 -378h-157l67 378h-91l21 120h88l10 51c21 116 75 226 238 226c27 0 55 -3 75 -10z" />
    <glyph glyph-name="g" unicode="g" horiz-adv-x="656" 
d="M456 432h3l11 66h151l-79 -452c-32 -184 -123 -286 -319 -286c-87 0 -191 29 -248 84l90 113c39 -43 100 -67 157 -67c106 0 145 60 161 139l7 33h-3c-28 -36 -85 -67 -153 -67c-132 0 -210 86 -210 208c0 170 114 308 276 308c72 0 128 -29 156 -79zM182 223
c0 -55 32 -105 103 -105c83 0 143 76 143 160c0 63 -41 105 -105 105c-87 0 -141 -75 -141 -160z" />
    <glyph glyph-name="h" unicode="h" horiz-adv-x="615" 
d="M497 0h-160l47 270c3 14 5 30 5 42c0 37 -17 67 -66 67c-58 0 -95 -50 -105 -111l-48 -268h-160l133 756h161l-57 -323h2c28 41 81 78 148 78c111 0 159 -70 159 -151c0 -18 -1 -37 -5 -54z" />
    <glyph glyph-name="i" unicode="i" horiz-adv-x="294" 
d="M170 0h-159l87 498h161zM293 665c0 -52 -39 -96 -93 -96c-50 0 -87 34 -87 80c0 54 42 96 95 96c49 0 85 -35 85 -80z" />
    <glyph glyph-name="j" unicode="j" horiz-adv-x="297" 
d="M171 -19c-22 -121 -68 -225 -230 -225c-22 0 -51 4 -69 9l29 133c12 -4 25 -5 34 -5c49 0 66 36 75 88l91 517h161zM296 665c0 -52 -39 -96 -93 -96c-50 0 -87 34 -87 80c0 54 42 96 95 96c49 0 85 -35 85 -80z" />
    <glyph glyph-name="k" unicode="k" horiz-adv-x="572" 
d="M533 0h-191l-127 239h-3l-42 -239h-160l133 756h161l-82 -460h3l189 202h202l-240 -233z" />
    <glyph glyph-name="l" unicode="l" horiz-adv-x="295" 
d="M172 0h-162l133 756h163z" />
    <glyph glyph-name="m" unicode="m" horiz-adv-x="925" 
d="M79 395c5 25 12 71 15 103h153c-1 -16 -6 -52 -8 -72h2c29 43 79 85 151 85c78 0 126 -36 144 -88c38 52 91 88 165 88c115 0 165 -76 165 -157c0 -16 -1 -32 -4 -47l-55 -307h-160l47 270c3 14 5 29 5 42c0 38 -18 68 -65 68c-56 0 -91 -55 -101 -112l-47 -268h-161
l50 285c2 10 3 20 3 28c0 39 -19 67 -60 67c-54 0 -90 -50 -100 -110l-48 -270h-160z" />
    <glyph glyph-name="n" unicode="n" horiz-adv-x="615" 
d="M239 426h2c32 49 87 85 156 85c111 0 159 -70 159 -151c0 -18 -1 -37 -5 -54l-54 -306h-160l47 270c3 14 5 30 5 42c0 37 -17 67 -66 67c-58 0 -95 -50 -105 -109l-48 -270h-160l69 395c5 25 12 71 15 103h153c-1 -16 -6 -51 -8 -72z" />
    <glyph glyph-name="o" unicode="o" horiz-adv-x="626" 
d="M273 -14c-144 0 -253 84 -253 219c0 165 116 308 304 308c147 0 256 -84 256 -219c0 -167 -116 -308 -307 -308zM422 277c0 60 -39 105 -105 105c-85 0 -140 -74 -140 -160c0 -60 38 -104 104 -104c86 0 141 73 141 159z" />
    <glyph glyph-name="p" unicode="p" horiz-adv-x="657" 
d="M178 62l-52 -302h-160l130 738h152l-12 -69h3c37 51 97 81 163 81c131 0 209 -91 209 -214c0 -171 -116 -310 -276 -310c-73 0 -128 29 -155 76h-2zM451 275c0 59 -36 106 -102 106c-81 0 -142 -74 -142 -160c0 -61 40 -105 105 -105c85 0 139 71 139 159z" />
    <glyph glyph-name="q" unicode="q" horiz-adv-x="655" 
d="M387 62h-2c-34 -46 -91 -74 -158 -74c-129 0 -208 90 -208 214c0 170 116 309 276 309c66 0 130 -30 160 -85h2l13 72h151l-129 -738h-160zM178 223c0 -59 37 -105 103 -105c81 0 142 73 142 159c0 61 -41 105 -105 105c-85 0 -140 -71 -140 -159z" />
    <glyph glyph-name="r" unicode="r" horiz-adv-x="379" 
d="M237 425h2c32 50 76 86 138 86c12 0 26 -2 34 -4l-26 -142c-14 4 -28 5 -40 5c-93 0 -125 -73 -132 -114l-45 -256h-160l71 395c5 25 12 71 15 103h152c-1 -13 -6 -54 -9 -73z" />
    <glyph glyph-name="s" unicode="s" horiz-adv-x="464" 
d="M-32 68l100 91c25 -37 71 -57 115 -57c43 0 71 17 71 45c0 27 -24 39 -71 53c-92 28 -142 62 -142 140c0 109 105 173 225 173c77 0 149 -26 189 -77l-101 -85c-19 26 -52 46 -97 46c-35 0 -69 -12 -69 -44c0 -23 21 -33 65 -45c93 -25 151 -65 151 -150
c0 -121 -113 -176 -225 -176c-92 0 -166 33 -211 86z" />
    <glyph glyph-name="t" unicode="t" horiz-adv-x="364" 
d="M92 377h-82l22 121h79l23 132h156l-23 -132h106l-22 -121h-103l-36 -195c-1 -9 -2 -20 -2 -27c0 -33 20 -43 52 -43c16 0 32 3 44 6l-15 -115c-19 -8 -57 -15 -88 -15c-96 0 -155 38 -155 121c0 16 2 39 6 57z" />
    <glyph glyph-name="u" unicode="u" horiz-adv-x="614" 
d="M345 72h-3c-31 -48 -87 -85 -156 -85c-110 0 -158 71 -158 152c0 17 1 36 5 54l53 305h161l-48 -270c-2 -14 -4 -29 -4 -42c0 -36 17 -67 66 -67c58 0 94 51 105 110l48 269h160l-70 -395c-5 -25 -12 -71 -15 -103h-152c1 16 6 52 8 72z" />
    <glyph glyph-name="v" unicode="v" horiz-adv-x="554" 
d="M587 498l-294 -498h-174l-92 498h169l41 -327h3l173 327h174z" />
    <glyph glyph-name="w" unicode="w" horiz-adv-x="856" 
d="M892 498l-272 -498h-161l-37 313h-2l-162 -313h-161l-68 498h167l24 -318h3l154 318h161l30 -318h3l153 318h168z" />
    <glyph glyph-name="x" unicode="x" horiz-adv-x="562" 
d="M507 0h-177l-78 153l-136 -153h-193l252 261l-133 237h175l69 -136l119 136h187l-229 -240z" />
    <glyph glyph-name="y" unicode="y" horiz-adv-x="556" 
d="M594 498l-326 -573c-58 -105 -108 -165 -226 -165c-31 0 -60 4 -82 11l24 132c15 -6 32 -9 47 -9c46 0 68 24 92 67l24 41l-115 496h175l50 -326h2l165 326h170z" />
    <glyph glyph-name="z" unicode="z" horiz-adv-x="509" 
d="M418 0h-441l22 125l283 251h-225l21 122h422l-21 -120l-288 -254h249z" />
    <glyph glyph-name="braceleft" unicode="{" horiz-adv-x="342" 
d="M214 -156h-82c-71 0 -114 42 -114 111c0 12 1 24 3 37l29 167c11 61 -21 74 -54 74l20 110c33 0 69 13 79 70l30 171c16 90 80 148 163 148h82l-18 -105h-47c-39 0 -52 -31 -57 -60l-29 -167c-14 -78 -80 -107 -113 -111v-2c28 -3 75 -23 75 -89c0 -8 0 -17 -2 -26
l-29 -163c-1 -9 -2 -17 -2 -25c0 -20 10 -35 37 -35h47z" />
    <glyph glyph-name="bar" unicode="|" horiz-adv-x="241" 
d="M186 -250h-130l-1 1000h131v-1000z" />
    <glyph glyph-name="braceright" unicode="}" horiz-adv-x="342" 
d="M122 732h82c71 0 114 -42 114 -111c0 -12 -1 -24 -3 -37l-29 -167c-11 -61 21 -74 54 -74l-20 -110c-33 0 -69 -13 -79 -70l-30 -171c-16 -90 -80 -148 -163 -148h-82l18 105h47c39 0 52 31 57 60l29 167c14 78 80 107 113 111v2c-28 3 -75 23 -75 89c0 8 0 17 2 26
l29 163c1 9 2 17 2 25c0 20 -10 35 -37 35h-47z" />
    <glyph glyph-name="asciitilde" unicode="~" horiz-adv-x="666" 
d="M593 287v-2c-30 -51 -69 -100 -139 -100c-42 0 -71 12 -112 38c-40 25 -70 38 -107 38c-39 0 -64 -29 -84 -70l-66 104c31 60 75 99 137 99c43 0 80 -13 120 -37c45 -26 76 -40 99 -40c37 0 63 35 87 71z" />
    <glyph glyph-name="uni00A0" unicode="&#xa0;" horiz-adv-x="250" 
 />
    <glyph glyph-name="Agrave" unicode="&#xc0;" horiz-adv-x="710" 
d="M664 0h-175l-24 141h-273l-85 -141h-190l451 708h162zM448 275l-37 251l-148 -251h185zM415 908l109 -144h-120l-152 144h163z" />
    <glyph glyph-name="Aacute" unicode="&#xc1;" horiz-adv-x="710" 
d="M664 0h-175l-24 141h-273l-85 -141h-190l451 708h162zM448 275l-37 251l-148 -251h185zM678 908l-170 -144h-122l129 144h163z" />
    <glyph glyph-name="Acircumflex" unicode="&#xc2;" horiz-adv-x="710" 
d="M664 0h-175l-24 141h-273l-85 -141h-190l451 708h162zM448 275l-37 251l-148 -251h185zM650 764h-125l-55 82l-83 -82h-127l148 144h146z" />
    <glyph glyph-name="Atilde" unicode="&#xc3;" horiz-adv-x="710" 
d="M664 0h-175l-24 141h-273l-85 -141h-190l451 708h162zM448 275l-37 251l-148 -251h185zM656 900c-21 -70 -64 -131 -136 -131c-26 0 -50 7 -72 19c-27 14 -45 22 -65 22c-24 0 -40 -20 -50 -42h-71c20 69 63 129 136 129c28 0 52 -8 76 -20c25 -13 43 -20 62 -20
c25 0 39 19 49 43h71z" />
    <glyph glyph-name="Adieresis" unicode="&#xc4;" horiz-adv-x="710" 
d="M664 0h-175l-24 141h-273l-85 -141h-190l451 708h162zM448 275l-37 251l-148 -251h185zM439 856c0 -47 -35 -86 -84 -86c-46 0 -78 30 -78 73c0 49 37 86 85 86c45 0 77 -31 77 -73zM658 856c0 -47 -35 -86 -84 -86c-45 0 -78 30 -78 73c0 49 37 86 86 86
c44 0 76 -31 76 -73z" />
    <glyph glyph-name="Amacron" unicode="&#x100;" horiz-adv-x="710" 
d="M664 0h-175l-24 141h-273l-85 -141h-190l451 708h162zM448 275l-37 251l-148 -251h185zM625 793h-333l14 84h334z" />
    <glyph glyph-name="Abreve" unicode="&#x102;" horiz-adv-x="710" 
d="M664 0h-175l-24 141h-273l-85 -141h-190l451 708h162zM448 275l-37 251l-148 -251h185zM642 908c-23 -103 -99 -144 -189 -144c-92 0 -157 39 -157 144h82c0 -43 39 -57 80 -57c48 0 89 10 102 57h82z" />
    <glyph glyph-name="Aring" unicode="&#xc5;" horiz-adv-x="710" 
d="M664 0h-175l-24 141h-273l-85 -141h-190l451 708h162zM448 275l-37 251l-148 -251h185zM456 749c-55 0 -93 38 -93 89c0 68 50 123 119 123c55 0 93 -37 93 -88c0 -69 -50 -124 -119 -124zM526 866c0 27 -19 50 -49 50c-38 0 -65 -32 -65 -72c0 -28 18 -50 48 -50
c39 0 66 32 66 72z" />
    <glyph glyph-name="Aogonek" unicode="&#x104;" horiz-adv-x="710" 
d="M578 -196c-35 -24 -75 -40 -119 -40c-53 0 -96 22 -96 83c0 62 69 116 126 153l-24 141h-273l-85 -141h-190l451 708h162l134 -708h-87c-61 -44 -110 -88 -110 -127c0 -19 13 -27 33 -27c19 0 39 7 57 19zM448 275l-37 251l-148 -251h185z" />
    <glyph glyph-name="AE" unicode="&#xc6;" horiz-adv-x="1025" 
d="M1033 708l-25 -142h-294l-24 -137h281l-25 -134h-279l-27 -152h322l-25 -143h-478l26 156h-224l-114 -156h-189l525 708h550zM509 288l49 278h-11l-200 -278h162z" />
    <glyph glyph-name="Cacute" unicode="&#x106;" horiz-adv-x="684" 
d="M556 209l93 -110c-56 -62 -147 -118 -283 -118c-199 0 -325 123 -325 308c0 244 181 438 421 438c111 0 207 -44 252 -105l-123 -110c-22 34 -68 66 -134 66c-141 0 -238 -130 -238 -269c0 -97 61 -177 174 -177c62 0 120 28 163 77zM674 908l-170 -144h-122l129 144h163
z" />
    <glyph glyph-name="Ccircumflex" unicode="&#x108;" horiz-adv-x="684" 
d="M556 209l93 -110c-56 -62 -147 -118 -283 -118c-199 0 -325 123 -325 308c0 244 181 438 421 438c111 0 207 -44 252 -105l-123 -110c-22 34 -68 66 -134 66c-141 0 -238 -130 -238 -269c0 -97 61 -177 174 -177c62 0 120 28 163 77zM682 764h-125l-55 82l-83 -82h-127
l148 144h146z" />
    <glyph glyph-name="Ccaron" unicode="&#x10c;" horiz-adv-x="684" 
d="M556 209l93 -110c-56 -62 -147 -118 -283 -118c-199 0 -325 123 -325 308c0 244 181 438 421 438c111 0 207 -44 252 -105l-123 -110c-22 34 -68 66 -134 66c-141 0 -238 -130 -238 -269c0 -97 61 -177 174 -177c62 0 120 28 163 77zM699 908l-147 -144h-145l-98 144h126
l54 -83l83 83h127z" />
    <glyph glyph-name="Cdotaccent" unicode="&#x10a;" horiz-adv-x="684" 
d="M556 209l93 -110c-56 -62 -147 -118 -283 -118c-199 0 -325 123 -325 308c0 244 181 438 421 438c111 0 207 -44 252 -105l-123 -110c-22 34 -68 66 -134 66c-141 0 -238 -130 -238 -269c0 -97 61 -177 174 -177c62 0 120 28 163 77zM576 856c0 -49 -37 -90 -88 -90
c-47 0 -82 31 -82 76c0 51 40 90 90 90c46 0 80 -33 80 -76z" />
    <glyph glyph-name="Ccedilla" unicode="&#xc7;" horiz-adv-x="684" 
d="M448 -135c0 -79 -84 -105 -152 -105c-41 0 -92 11 -120 25l32 59c23 -12 55 -18 81 -18c23 0 55 5 55 33c0 24 -22 29 -42 29c-12 0 -28 -2 -41 -6l-25 29l68 74c-163 23 -263 139 -263 304c0 244 181 438 421 438c111 0 207 -44 252 -105l-123 -110
c-22 34 -68 66 -134 66c-141 0 -238 -130 -238 -269c0 -97 61 -177 174 -177c62 0 120 28 163 77l93 -110c-54 -60 -141 -114 -269 -118l-40 -42c8 2 13 2 19 2c34 0 89 -17 89 -76z" />
    <glyph glyph-name="Dcaron" unicode="&#x10e;" horiz-adv-x="769" 
d="M18 0l125 708h262c159 0 334 -84 334 -298c0 -249 -184 -410 -432 -410h-289zM281 567l-74 -423h107c166 0 252 120 252 246c0 97 -60 177 -194 177h-91zM639 908l-147 -144h-145l-98 144h126l54 -83l83 83h127z" />
    <glyph glyph-name="Dcroat" unicode="&#x110;" horiz-adv-x="769" 
d="M72 309h-57l19 107h57l52 292h262c159 0 334 -84 334 -298c0 -249 -184 -410 -432 -410h-289zM255 416h171l-19 -107h-171l-29 -165h107c166 0 252 120 252 246c0 97 -60 177 -194 177h-91z" />
    <glyph glyph-name="Eth" unicode="&#xd0;" horiz-adv-x="769" 
d="M72 309h-57l19 107h57l52 292h262c159 0 334 -84 334 -298c0 -249 -184 -410 -432 -410h-289zM255 416h171l-19 -107h-171l-29 -165h107c166 0 252 120 252 246c0 97 -60 177 -194 177h-91z" />
    <glyph glyph-name="Egrave" unicode="&#xc8;" horiz-adv-x="587" 
d="M500 0h-482l125 708h453l-25 -142h-294l-24 -137h280l-24 -134h-280l-26 -152h322zM368 908l109 -144h-120l-152 144h163z" />
    <glyph glyph-name="Eacute" unicode="&#xc9;" horiz-adv-x="587" 
d="M500 0h-482l125 708h453l-25 -142h-294l-24 -137h280l-24 -134h-280l-26 -152h322zM576 908l-170 -144h-122l129 144h163z" />
    <glyph glyph-name="Ecircumflex" unicode="&#xca;" horiz-adv-x="587" 
d="M500 0h-482l125 708h453l-25 -142h-294l-24 -137h280l-24 -134h-280l-26 -152h322zM572 764h-125l-55 82l-83 -82h-127l148 144h146z" />
    <glyph glyph-name="Ecaron" unicode="&#x11a;" horiz-adv-x="587" 
d="M500 0h-482l125 708h453l-25 -142h-294l-24 -137h280l-24 -134h-280l-26 -152h322zM592 908l-147 -144h-145l-98 144h126l54 -83l83 83h127z" />
    <glyph glyph-name="Edieresis" unicode="&#xcb;" horiz-adv-x="587" 
d="M500 0h-482l125 708h453l-25 -142h-294l-24 -137h280l-24 -134h-280l-26 -152h322zM362 856c0 -47 -35 -86 -84 -86c-46 0 -78 30 -78 73c0 49 37 86 85 86c45 0 77 -31 77 -73zM581 856c0 -47 -35 -86 -84 -86c-45 0 -78 30 -78 73c0 49 37 86 86 86c44 0 76 -31 76 -73
z" />
    <glyph glyph-name="Emacron" unicode="&#x112;" horiz-adv-x="587" 
d="M500 0h-482l125 708h453l-25 -142h-294l-24 -137h280l-24 -134h-280l-26 -152h322zM547 793h-333l14 84h334z" />
    <glyph glyph-name="Ebreve" unicode="&#x114;" horiz-adv-x="587" 
d="M500 0h-482l125 708h453l-25 -142h-294l-24 -137h280l-24 -134h-280l-26 -152h322zM565 908c-23 -103 -99 -144 -189 -144c-92 0 -157 39 -157 144h82c0 -43 39 -57 80 -57c48 0 89 10 102 57h82z" />
    <glyph glyph-name="Edotaccent" unicode="&#x116;" horiz-adv-x="587" 
d="M500 0h-482l125 708h453l-25 -142h-294l-24 -137h280l-24 -134h-280l-26 -152h322zM474 856c0 -49 -37 -90 -88 -90c-47 0 -82 31 -82 76c0 51 40 90 90 90c46 0 80 -33 80 -76z" />
    <glyph glyph-name="Eogonek" unicode="&#x118;" horiz-adv-x="587" 
d="M472 -196c-35 -24 -75 -40 -119 -40c-53 0 -96 22 -96 83c0 62 69 115 125 153h-364l125 708h453l-25 -142h-294l-24 -137h280l-24 -134h-280l-26 -152h322l-25 -143h-29c-61 -44 -110 -88 -110 -127c0 -19 13 -27 33 -27c19 0 39 7 57 19z" />
    <glyph glyph-name="Gcircumflex" unicode="&#x11c;" horiz-adv-x="749" 
d="M401 126c40 1 74 7 103 21l23 133h-138l25 137h291l-65 -374c-71 -37 -166 -62 -261 -62c-203 0 -338 119 -338 308c0 244 179 438 419 438c111 0 208 -36 260 -105l-121 -109c-27 39 -72 68 -142 68c-138 0 -243 -126 -243 -273c0 -105 66 -182 187 -182zM666 764h-125
l-55 82l-83 -82h-127l148 144h146z" />
    <glyph glyph-name="Gbreve" unicode="&#x11e;" horiz-adv-x="749" 
d="M401 126c40 1 74 7 103 21l23 133h-138l25 137h291l-65 -374c-71 -37 -166 -62 -261 -62c-203 0 -338 119 -338 308c0 244 179 438 419 438c111 0 208 -36 260 -105l-121 -109c-27 39 -72 68 -142 68c-138 0 -243 -126 -243 -273c0 -105 66 -182 187 -182zM657 908
c-23 -103 -99 -144 -189 -144c-92 0 -157 39 -157 144h82c0 -43 39 -57 80 -57c48 0 89 10 102 57h82z" />
    <glyph glyph-name="Gdotaccent" unicode="&#x120;" horiz-adv-x="749" 
d="M401 126c40 1 74 7 103 21l23 133h-138l25 137h291l-65 -374c-71 -37 -166 -62 -261 -62c-203 0 -338 119 -338 308c0 244 179 438 419 438c111 0 208 -36 260 -105l-121 -109c-27 39 -72 68 -142 68c-138 0 -243 -126 -243 -273c0 -105 66 -182 187 -182zM574 856
c0 -49 -37 -90 -88 -90c-47 0 -82 31 -82 76c0 51 40 90 90 90c46 0 80 -33 80 -76z" />
    <glyph glyph-name="Gcommaaccent" unicode="&#x122;" horiz-adv-x="749" 
d="M401 126c40 1 74 7 103 21l23 133h-138l25 137h291l-65 -374c-71 -37 -166 -62 -261 -62c-203 0 -338 119 -338 308c0 244 179 438 419 438c111 0 208 -36 260 -105l-121 -109c-27 39 -72 68 -142 68c-138 0 -243 -126 -243 -273c0 -105 66 -182 187 -182zM437 -45
l-130 -195h-123l111 195h142z" />
    <glyph glyph-name="Hcircumflex" unicode="&#x124;" horiz-adv-x="757" 
d="M626 0h-166l52 298h-275l-53 -298h-166l125 708h166l-48 -269h276l47 269h167zM649 764h-125l-55 82l-83 -82h-127l148 144h146z" />
    <glyph glyph-name="Hbar" unicode="&#x126;" horiz-adv-x="757" 
d="M626 0h-166l52 298h-275l-53 -298h-166l125 708h166l-21 -119h275l21 119h167zM261 439h276l10 61h-275z" />
    <glyph glyph-name="Igrave" unicode="&#xcc;" horiz-adv-x="315" 
d="M185 0h-167l125 708h167zM195 908l109 -144h-120l-152 144h163z" />
    <glyph glyph-name="Iacute" unicode="&#xcd;" horiz-adv-x="315" 
d="M185 0h-167l125 708h167zM442 908l-170 -144h-122l129 144h163z" />
    <glyph glyph-name="Icircumflex" unicode="&#xce;" horiz-adv-x="315" 
d="M185 0h-167l125 708h167zM424 764h-125l-55 82l-83 -82h-127l148 144h146z" />
    <glyph glyph-name="Itilde" unicode="&#x128;" horiz-adv-x="315" 
d="M185 0h-167l125 708h167zM441 900c-21 -70 -64 -131 -136 -131c-26 0 -50 7 -72 19c-27 14 -45 22 -65 22c-24 0 -40 -20 -50 -42h-71c20 69 63 129 136 129c28 0 52 -8 76 -20c25 -13 43 -20 62 -20c25 0 39 19 49 43h71z" />
    <glyph glyph-name="Idieresis" unicode="&#xcf;" horiz-adv-x="315" 
d="M185 0h-167l125 708h167zM211 856c0 -47 -35 -86 -84 -86c-46 0 -78 30 -78 73c0 49 37 86 85 86c45 0 77 -31 77 -73zM430 856c0 -47 -35 -86 -84 -86c-45 0 -78 30 -78 73c0 49 37 86 86 86c44 0 76 -31 76 -73z" />
    <glyph glyph-name="Imacron" unicode="&#x12a;" horiz-adv-x="315" 
d="M185 0h-167l125 708h167zM402 793h-333l14 84h334z" />
    <glyph glyph-name="Idotaccent" unicode="&#x130;" horiz-adv-x="315" 
d="M185 0h-167l125 708h167zM330 856c0 -49 -37 -90 -88 -90c-47 0 -82 31 -82 76c0 51 40 90 90 90c46 0 80 -33 80 -76z" />
    <glyph glyph-name="Ibreve" unicode="&#x12c;" horiz-adv-x="315" 
d="M185 0h-167l125 708h167zM434 908c-23 -103 -99 -144 -189 -144c-92 0 -157 39 -157 144h82c0 -43 39 -57 80 -57c48 0 89 10 102 57h82z" />
    <glyph glyph-name="Iogonek" unicode="&#x12e;" horiz-adv-x="315" 
d="M178 -196c-35 -24 -75 -40 -119 -40c-53 0 -96 22 -96 83c0 62 69 115 125 153h-70l125 708h167l-125 -708h-8c-61 -44 -110 -88 -110 -127c0 -19 13 -27 33 -27c19 0 39 7 57 19z" />
    <glyph glyph-name="Jcircumflex" unicode="&#x134;" horiz-adv-x="525" 
d="M442 239c-20 -115 -66 -258 -255 -258c-120 0 -200 64 -221 165l154 50c5 -36 29 -65 66 -65c59 0 79 46 90 109l82 468h168zM640 764h-125l-55 82l-83 -82h-127l148 144h146z" />
    <glyph glyph-name="Kcommaaccent" unicode="&#x136;" horiz-adv-x="679" 
d="M654 0h-207l-205 333h-3l-58 -333h-163l125 708h163l-53 -297h3l281 297h212l-347 -337zM370 -45l-130 -195h-123l111 195h142z" />
    <glyph glyph-name="Lacute" unicode="&#x139;" horiz-adv-x="525" 
d="M462 0h-444l125 708h167l-100 -563h278zM461 908l-170 -144h-122l129 144h163z" />
    <glyph glyph-name="Lcaron" unicode="&#x13d;" horiz-adv-x="525" 
d="M462 0h-444l125 708h167l-100 -563h278zM568 708l-130 -195h-123l111 195h142z" />
    <glyph glyph-name="Lcommaaccent" unicode="&#x13b;" horiz-adv-x="525" 
d="M462 0h-444l125 708h167l-100 -563h278zM303 -45l-130 -195h-123l111 195h142z" />
    <glyph glyph-name="Lslash" unicode="&#x141;" horiz-adv-x="525" 
d="M462 0h-445l32 179l-74 -57l24 141l75 56l68 389h168l-46 -263l221 167l-25 -140l-221 -167l-29 -159h278z" />
    <glyph glyph-name="Ldot" unicode="&#x13f;" horiz-adv-x="525" 
d="M462 0h-444l125 708h167l-100 -563h278zM504 444c0 -49 -37 -90 -88 -90c-47 0 -82 31 -82 76c0 51 40 90 90 90c46 0 80 -33 80 -76z" />
    <glyph glyph-name="Nacute" unicode="&#x143;" horiz-adv-x="789" 
d="M645 0h-185l-195 470h-3l-80 -470h-164l125 708h187l194 -467h2l80 467h164zM658 908l-170 -144h-122l129 144h163z" />
    <glyph glyph-name="Ncaron" unicode="&#x147;" horiz-adv-x="789" 
d="M645 0h-185l-195 470h-3l-80 -470h-164l125 708h187l194 -467h2l80 467h164zM677 908l-147 -144h-145l-98 144h126l54 -83l83 83h127z" />
    <glyph glyph-name="Ntilde" unicode="&#xd1;" horiz-adv-x="789" 
d="M645 0h-185l-195 470h-3l-80 -470h-164l125 708h187l194 -467h2l80 467h164zM669 900c-21 -70 -64 -131 -136 -131c-26 0 -50 7 -72 19c-27 14 -45 22 -65 22c-24 0 -40 -20 -50 -42h-71c20 69 63 129 136 129c28 0 52 -8 76 -20c25 -13 43 -20 62 -20c25 0 39 19 49 43
h71z" />
    <glyph glyph-name="Ncommaaccent" unicode="&#x145;" horiz-adv-x="789" 
d="M645 0h-185l-195 470h-3l-80 -470h-164l125 708h187l194 -467h2l80 467h164zM408 -45l-130 -195h-123l111 195h142z" />
    <glyph glyph-name="Eng" unicode="&#x14a;" horiz-adv-x="789" 
d="M642 -19c-22 -121 -68 -225 -230 -225c-22 0 -51 4 -69 9l29 133c12 -4 25 -5 34 -5c49 0 66 36 75 88l1 9l-217 480h-3l-80 -470h-164l125 708h187l197 -447h2l77 447h164z" />
    <glyph glyph-name="Ograve" unicode="&#xd2;" horiz-adv-x="831" 
d="M460 726c213 0 342 -123 342 -313c0 -239 -171 -431 -416 -431c-215 0 -345 123 -345 313c0 239 175 431 419 431zM395 132c148 0 234 132 234 268c0 98 -64 178 -180 178c-145 0 -235 -133 -235 -268c0 -98 64 -178 181 -178zM482 908l109 -144h-120l-152 144h163z" />
    <glyph glyph-name="Oacute" unicode="&#xd3;" horiz-adv-x="831" 
d="M460 726c213 0 342 -123 342 -313c0 -239 -171 -431 -416 -431c-215 0 -345 123 -345 313c0 239 175 431 419 431zM395 132c148 0 234 132 234 268c0 98 -64 178 -180 178c-145 0 -235 -133 -235 -268c0 -98 64 -178 181 -178zM681 908l-170 -144h-122l129 144h163z" />
    <glyph glyph-name="Ocircumflex" unicode="&#xd4;" horiz-adv-x="831" 
d="M460 726c213 0 342 -123 342 -313c0 -239 -171 -431 -416 -431c-215 0 -345 123 -345 313c0 239 175 431 419 431zM395 132c148 0 234 132 234 268c0 98 -64 178 -180 178c-145 0 -235 -133 -235 -268c0 -98 64 -178 181 -178zM689 764h-125l-55 82l-83 -82h-127l148 144
h146z" />
    <glyph glyph-name="Otilde" unicode="&#xd5;" horiz-adv-x="831" 
d="M460 726c213 0 342 -123 342 -313c0 -239 -171 -431 -416 -431c-215 0 -345 123 -345 313c0 239 175 431 419 431zM395 132c148 0 234 132 234 268c0 98 -64 178 -180 178c-145 0 -235 -133 -235 -268c0 -98 64 -178 181 -178zM695 900c-21 -70 -64 -131 -136 -131
c-26 0 -50 7 -72 19c-27 14 -45 22 -65 22c-24 0 -40 -20 -50 -42h-71c20 69 63 129 136 129c28 0 52 -8 76 -20c25 -13 43 -20 62 -20c25 0 39 19 49 43h71z" />
    <glyph glyph-name="Odieresis" unicode="&#xd6;" horiz-adv-x="831" 
d="M460 726c213 0 342 -123 342 -313c0 -239 -171 -431 -416 -431c-215 0 -345 123 -345 313c0 239 175 431 419 431zM395 132c148 0 234 132 234 268c0 98 -64 178 -180 178c-145 0 -235 -133 -235 -268c0 -98 64 -178 181 -178zM473 856c0 -47 -35 -86 -84 -86
c-46 0 -78 30 -78 73c0 49 37 86 85 86c45 0 77 -31 77 -73zM692 856c0 -47 -35 -86 -84 -86c-45 0 -78 30 -78 73c0 49 37 86 86 86c44 0 76 -31 76 -73z" />
    <glyph glyph-name="Omacron" unicode="&#x14c;" horiz-adv-x="831" 
d="M460 726c213 0 342 -123 342 -313c0 -239 -171 -431 -416 -431c-215 0 -345 123 -345 313c0 239 175 431 419 431zM395 132c148 0 234 132 234 268c0 98 -64 178 -180 178c-145 0 -235 -133 -235 -268c0 -98 64 -178 181 -178zM661 793h-333l14 84h334z" />
    <glyph glyph-name="Obreve" unicode="&#x14e;" horiz-adv-x="831" 
d="M460 726c213 0 342 -123 342 -313c0 -239 -171 -431 -416 -431c-215 0 -345 123 -345 313c0 239 175 431 419 431zM395 132c148 0 234 132 234 268c0 98 -64 178 -180 178c-145 0 -235 -133 -235 -268c0 -98 64 -178 181 -178zM675 908c-23 -103 -99 -144 -189 -144
c-92 0 -157 39 -157 144h82c0 -43 39 -57 80 -57c48 0 89 10 102 57h82z" />
    <glyph glyph-name="Ohungarumlaut" unicode="&#x150;" horiz-adv-x="831" 
d="M460 726c213 0 342 -123 342 -313c0 -239 -171 -431 -416 -431c-215 0 -345 123 -345 313c0 239 175 431 419 431zM395 132c148 0 234 132 234 268c0 98 -64 178 -180 178c-145 0 -235 -133 -235 -268c0 -98 64 -178 181 -178zM827 908l-171 -144h-121l129 144h163z
M608 908l-171 -144h-121l128 144h164z" />
    <glyph glyph-name="Oslash" unicode="&#xd8;" horiz-adv-x="831" 
d="M841 694l-99 -89c39 -51 60 -116 60 -192c0 -239 -171 -431 -416 -431c-100 0 -182 27 -241 76l-100 -91l-57 58l101 93c-31 48 -48 108 -48 177c0 239 175 431 419 431c91 0 167 -23 226 -65l97 91zM564 549c-28 21 -66 34 -112 34c-156 0 -245 -138 -245 -276
c0 -25 5 -50 14 -71zM633 401c0 30 -7 58 -19 83l-344 -315c27 -26 69 -42 120 -42c159 0 243 137 243 274z" />
    <glyph glyph-name="OE" unicode="&#x152;" horiz-adv-x="1000" 
d="M1009 708l-25 -142h-294l-24 -137h280l-24 -134h-280l-26 -152h322l-25 -143h-538c-159 0 -334 84 -334 298c0 249 184 410 432 410h536zM534 565h-68c-166 0 -252 -120 -252 -245c0 -97 60 -177 195 -177h51z" />
    <glyph glyph-name="Racute" unicode="&#x154;" horiz-adv-x="656" 
d="M459 305l144 -305h-188l-119 285h-68l-48 -285h-162l125 708h242c155 0 248 -70 248 -188c0 -114 -68 -189 -174 -215zM324 404c89 0 141 29 141 92c0 58 -45 76 -114 76h-71l-30 -168h74zM570 908l-170 -144h-122l129 144h163z" />
    <glyph glyph-name="Rcaron" unicode="&#x158;" horiz-adv-x="656" 
d="M459 305l144 -305h-188l-119 285h-68l-48 -285h-162l125 708h242c155 0 248 -70 248 -188c0 -114 -68 -189 -174 -215zM324 404c89 0 141 29 141 92c0 58 -45 76 -114 76h-71l-30 -168h74zM587 908l-147 -144h-145l-98 144h126l54 -83l83 83h127z" />
    <glyph glyph-name="Rcommaaccent" unicode="&#x156;" horiz-adv-x="656" 
d="M459 305l144 -305h-188l-119 285h-68l-48 -285h-162l125 708h242c155 0 248 -70 248 -188c0 -114 -68 -189 -174 -215zM324 404c89 0 141 29 141 92c0 58 -45 76 -114 76h-71l-30 -168h74zM356 -45l-130 -195h-123l111 195h142z" />
    <glyph glyph-name="Sacute" unicode="&#x15a;" horiz-adv-x="585" 
d="M585 636l-113 -100c-26 36 -68 55 -117 55c-45 0 -107 -24 -107 -85c0 -40 33 -60 89 -80c122 -43 194 -101 194 -208c0 -170 -156 -237 -292 -237c-100 0 -208 37 -265 110l123 100c28 -43 89 -72 145 -72c58 0 114 24 114 86c0 49 -44 74 -110 97
c-92 31 -168 76 -168 190c0 144 128 235 286 235c83 0 175 -33 221 -91zM569 908l-170 -144h-122l129 144h163z" />
    <glyph glyph-name="Scircumflex" unicode="&#x15c;" horiz-adv-x="585" 
d="M585 636l-113 -100c-26 36 -68 55 -117 55c-45 0 -107 -24 -107 -85c0 -40 33 -60 89 -80c122 -43 194 -101 194 -208c0 -170 -156 -237 -292 -237c-100 0 -208 37 -265 110l123 100c28 -43 89 -72 145 -72c58 0 114 24 114 86c0 49 -44 74 -110 97
c-92 31 -168 76 -168 190c0 144 128 235 286 235c83 0 175 -33 221 -91zM572 764h-125l-55 82l-83 -82h-127l148 144h146z" />
    <glyph glyph-name="Scaron" unicode="&#x160;" horiz-adv-x="585" 
d="M585 636l-113 -100c-26 36 -68 55 -117 55c-45 0 -107 -24 -107 -85c0 -40 33 -60 89 -80c122 -43 194 -101 194 -208c0 -170 -156 -237 -292 -237c-100 0 -208 37 -265 110l123 100c28 -43 89 -72 145 -72c58 0 114 24 114 86c0 49 -44 74 -110 97
c-92 31 -168 76 -168 190c0 144 128 235 286 235c83 0 175 -33 221 -91zM581 908l-147 -144h-145l-98 144h126l54 -83l83 83h127z" />
    <glyph glyph-name="Scedilla" unicode="&#x15e;" horiz-adv-x="585" 
d="M335 -135c0 -79 -84 -105 -152 -105c-41 0 -92 11 -120 25l32 59c23 -12 55 -18 81 -18c23 0 55 5 55 33c0 24 -22 29 -42 29c-12 0 -28 -2 -41 -6l-25 29l67 73c-85 10 -168 46 -216 107l123 100c28 -43 89 -72 145 -72c58 0 114 24 114 86c0 49 -44 74 -110 97
c-92 31 -168 76 -168 190c0 144 128 235 286 235c83 0 175 -33 221 -91l-113 -100c-26 36 -68 55 -117 55c-45 0 -107 -24 -107 -85c0 -40 33 -60 89 -80c122 -43 194 -101 194 -208c0 -158 -135 -227 -263 -236l-41 -43c8 2 13 2 19 2c34 0 89 -17 89 -76z" />
    <glyph glyph-name="Scommaaccent" unicode="&#x218;" horiz-adv-x="585" 
d="M585 636l-113 -100c-26 36 -68 55 -117 55c-45 0 -107 -24 -107 -85c0 -40 33 -60 89 -80c122 -43 194 -101 194 -208c0 -170 -156 -237 -292 -237c-100 0 -208 37 -265 110l123 100c28 -43 89 -72 145 -72c58 0 114 24 114 86c0 49 -44 74 -110 97
c-92 31 -168 76 -168 190c0 144 128 235 286 235c83 0 175 -33 221 -91zM292 -45l-130 -195h-123l111 195h142z" />
    <glyph glyph-name="Tcaron" unicode="&#x164;" horiz-adv-x="553" 
d="M598 565h-194l-100 -565h-166l99 565h-198l26 143h558zM568 908l-147 -144h-145l-98 144h126l54 -83l83 83h127z" />
    <glyph glyph-name="uni0162" unicode="&#x162;" horiz-adv-x="553" 
d="M598 565h-194l-100 -565h-166l99 565h-198l26 143h558zM286 -45l-130 -195h-123l111 195h142z" />
    <glyph glyph-name="uni021A" unicode="&#x21a;" horiz-adv-x="553" 
d="M598 565h-194l-100 -565h-166l99 565h-198l26 143h558zM286 -45l-130 -195h-123l111 195h142z" />
    <glyph glyph-name="Tbar" unicode="&#x166;" horiz-adv-x="553" 
d="M504 388h-132l-68 -388h-166l68 388h-140l16 89h139l16 88h-198l26 143h558l-25 -143h-194l-16 -88h132z" />
    <glyph glyph-name="Thorn" unicode="&#xde;" horiz-adv-x="637" 
d="M355 584c165 0 257 -75 257 -198c0 -163 -122 -241 -311 -241h-92l-26 -145h-165l125 708h165l-21 -124h68zM303 277c90 0 143 29 143 93c0 59 -45 79 -115 79h-68l-31 -172h71z" />
    <glyph glyph-name="Ugrave" unicode="&#xd9;" horiz-adv-x="737" 
d="M658 260c-29 -168 -133 -278 -327 -278c-170 0 -279 85 -279 221c0 18 2 41 5 61l78 444h165l-76 -429c-2 -13 -3 -29 -3 -41c0 -59 33 -111 119 -111c111 0 142 79 155 150l77 431h164zM413 908l109 -144h-120l-152 144h163z" />
    <glyph glyph-name="Uacute" unicode="&#xda;" horiz-adv-x="737" 
d="M658 260c-29 -168 -133 -278 -327 -278c-170 0 -279 85 -279 221c0 18 2 41 5 61l78 444h165l-76 -429c-2 -13 -3 -29 -3 -41c0 -59 33 -111 119 -111c111 0 142 79 155 150l77 431h164zM641 908l-170 -144h-122l129 144h163z" />
    <glyph glyph-name="Ucircumflex" unicode="&#xdb;" horiz-adv-x="737" 
d="M658 260c-29 -168 -133 -278 -327 -278c-170 0 -279 85 -279 221c0 18 2 41 5 61l78 444h165l-76 -429c-2 -13 -3 -29 -3 -41c0 -59 33 -111 119 -111c111 0 142 79 155 150l77 431h164zM639 764h-125l-55 82l-83 -82h-127l148 144h146z" />
    <glyph glyph-name="Utilde" unicode="&#x168;" horiz-adv-x="737" 
d="M658 260c-29 -168 -133 -278 -327 -278c-170 0 -279 85 -279 221c0 18 2 41 5 61l78 444h165l-76 -429c-2 -13 -3 -29 -3 -41c0 -59 33 -111 119 -111c111 0 142 79 155 150l77 431h164zM651 900c-21 -70 -64 -131 -136 -131c-26 0 -50 7 -72 19c-27 14 -45 22 -65 22
c-24 0 -40 -20 -50 -42h-71c20 69 63 129 136 129c28 0 52 -8 76 -20c25 -13 43 -20 62 -20c25 0 39 19 49 43h71z" />
    <glyph glyph-name="Udieresis" unicode="&#xdc;" horiz-adv-x="737" 
d="M658 260c-29 -168 -133 -278 -327 -278c-170 0 -279 85 -279 221c0 18 2 41 5 61l78 444h165l-76 -429c-2 -13 -3 -29 -3 -41c0 -59 33 -111 119 -111c111 0 142 79 155 150l77 431h164zM429 856c0 -47 -35 -86 -84 -86c-46 0 -78 30 -78 73c0 49 37 86 85 86
c45 0 77 -31 77 -73zM648 856c0 -47 -35 -86 -84 -86c-45 0 -78 30 -78 73c0 49 37 86 86 86c44 0 76 -31 76 -73z" />
    <glyph glyph-name="Umacron" unicode="&#x16a;" horiz-adv-x="737" 
d="M658 260c-29 -168 -133 -278 -327 -278c-170 0 -279 85 -279 221c0 18 2 41 5 61l78 444h165l-76 -429c-2 -13 -3 -29 -3 -41c0 -59 33 -111 119 -111c111 0 142 79 155 150l77 431h164zM615 793h-333l14 84h334z" />
    <glyph glyph-name="Ubreve" unicode="&#x16c;" horiz-adv-x="737" 
d="M658 260c-29 -168 -133 -278 -327 -278c-170 0 -279 85 -279 221c0 18 2 41 5 61l78 444h165l-76 -429c-2 -13 -3 -29 -3 -41c0 -59 33 -111 119 -111c111 0 142 79 155 150l77 431h164zM627 908c-23 -103 -99 -144 -189 -144c-92 0 -157 39 -157 144h82
c0 -43 39 -57 80 -57c48 0 89 10 102 57h82z" />
    <glyph glyph-name="Uring" unicode="&#x16e;" horiz-adv-x="737" 
d="M658 260c-29 -168 -133 -278 -327 -278c-170 0 -279 85 -279 221c0 18 2 41 5 61l78 444h165l-76 -429c-2 -13 -3 -29 -3 -41c0 -59 33 -111 119 -111c111 0 142 79 155 150l77 431h164zM441 749c-55 0 -93 38 -93 89c0 68 50 123 119 123c55 0 93 -37 93 -88
c0 -69 -50 -124 -119 -124zM511 866c0 27 -19 50 -49 50c-38 0 -65 -32 -65 -72c0 -28 18 -50 48 -50c39 0 66 32 66 72z" />
    <glyph glyph-name="Uhungarumlaut" unicode="&#x170;" horiz-adv-x="737" 
d="M658 260c-29 -168 -133 -278 -327 -278c-170 0 -279 85 -279 221c0 18 2 41 5 61l78 444h165l-76 -429c-2 -13 -3 -29 -3 -41c0 -59 33 -111 119 -111c111 0 142 79 155 150l77 431h164zM782 908l-171 -144h-121l129 144h163zM563 908l-171 -144h-121l128 144h164z" />
    <glyph glyph-name="Uogonek" unicode="&#x172;" horiz-adv-x="737" 
d="M421 -196c-35 -24 -75 -40 -119 -40c-53 0 -96 22 -96 83c0 53 50 100 100 136c-156 8 -254 91 -254 220c0 18 2 41 5 61l78 444h165l-76 -429c-2 -13 -3 -29 -3 -41c0 -59 33 -111 119 -111c111 0 142 79 155 150l77 431h164l-78 -448c-25 -146 -107 -248 -255 -272
c-53 -40 -93 -80 -93 -115c0 -19 13 -27 33 -27c19 0 39 7 57 19z" />
    <glyph glyph-name="Wcircumflex" unicode="&#x174;" horiz-adv-x="1014" 
d="M1090 708l-340 -708h-166l-48 484h-3l-235 -484h-165l-62 708h176l21 -476h3l220 476h172l38 -476h3l211 476h175zM782 764h-125l-55 82l-83 -82h-127l148 144h146z" />
    <glyph glyph-name="Wacute" unicode="&#x1e82;" horiz-adv-x="1014" 
d="M1090 708l-340 -708h-166l-48 484h-3l-235 -484h-165l-62 708h176l21 -476h3l220 476h172l38 -476h3l211 476h175zM806 908l-170 -144h-122l129 144h163z" />
    <glyph glyph-name="Wdieresis" unicode="&#x1e84;" horiz-adv-x="1014" 
d="M1090 708l-340 -708h-166l-48 484h-3l-235 -484h-165l-62 708h176l21 -476h3l220 476h172l38 -476h3l211 476h175zM571 856c0 -47 -35 -86 -84 -86c-46 0 -78 30 -78 73c0 49 37 86 85 86c45 0 77 -31 77 -73zM790 856c0 -47 -35 -86 -84 -86c-45 0 -78 30 -78 73
c0 49 37 86 86 86c44 0 76 -31 76 -73z" />
    <glyph glyph-name="Wgrave" unicode="&#x1e80;" horiz-adv-x="1014" 
d="M1090 708l-340 -708h-166l-48 484h-3l-235 -484h-165l-62 708h176l21 -476h3l220 476h172l38 -476h3l211 476h175zM549 908l109 -144h-120l-152 144h163z" />
    <glyph glyph-name="Yacute" unicode="&#xdd;" horiz-adv-x="613" 
d="M727 708l-344 -407l-54 -301h-166l53 301l-181 407h186l101 -268l203 268h202zM602 908l-170 -144h-122l129 144h163z" />
    <glyph glyph-name="Ycircumflex" unicode="&#x176;" horiz-adv-x="613" 
d="M727 708l-344 -407l-54 -301h-166l53 301l-181 407h186l101 -268l203 268h202zM577 764h-125l-55 82l-83 -82h-127l148 144h146z" />
    <glyph glyph-name="Ydieresis" unicode="&#x178;" horiz-adv-x="613" 
d="M727 708l-344 -407l-54 -301h-166l53 301l-181 407h186l101 -268l203 268h202zM365 856c0 -47 -35 -86 -84 -86c-46 0 -78 30 -78 73c0 49 37 86 85 86c45 0 77 -31 77 -73zM584 856c0 -47 -35 -86 -84 -86c-45 0 -78 30 -78 73c0 49 37 86 86 86c44 0 76 -31 76 -73z
" />
    <glyph glyph-name="Ygrave" unicode="&#x1ef2;" horiz-adv-x="613" 
d="M727 708l-344 -407l-54 -301h-166l53 301l-181 407h186l101 -268l203 268h202zM343 908l109 -144h-120l-152 144h163z" />
    <glyph glyph-name="Zacute" unicode="&#x179;" horiz-adv-x="620" 
d="M532 0h-563l25 144l412 422h-307l25 142h524l-24 -134l-417 -429h351zM591 908l-170 -144h-122l129 144h163z" />
    <glyph glyph-name="Zcaron" unicode="&#x17d;" horiz-adv-x="620" 
d="M532 0h-563l25 144l412 422h-307l25 142h524l-24 -134l-417 -429h351zM602 908l-147 -144h-145l-98 144h126l54 -83l83 83h127z" />
    <glyph glyph-name="Zdotaccent" unicode="&#x17b;" horiz-adv-x="620" 
d="M532 0h-563l25 144l412 422h-307l25 142h524l-24 -134l-417 -429h351zM485 856c0 -49 -37 -90 -88 -90c-47 0 -82 31 -82 76c0 51 40 90 90 90c46 0 80 -33 80 -76z" />
    <glyph glyph-name="agrave" unicode="&#xe0;" horiz-adv-x="559" 
d="M503 352c0 -18 -2 -41 -6 -61l-34 -194c-6 -34 -10 -75 -10 -97h-142c0 14 2 36 4 53h-2c-37 -44 -89 -65 -152 -65c-70 0 -154 33 -154 132c0 160 176 194 342 194c2 12 2 18 2 23c0 39 -29 56 -78 56c-45 0 -94 -19 -131 -47l-66 92c59 48 143 75 219 75
c119 0 208 -50 208 -161zM340 218h-14c-80 0 -173 -11 -173 -72c0 -40 33 -51 66 -51c61 0 105 43 116 99zM284 716l109 -144h-120l-152 144h163z" />
    <glyph glyph-name="aacute" unicode="&#xe1;" horiz-adv-x="559" 
d="M503 352c0 -18 -2 -41 -6 -61l-34 -194c-6 -34 -10 -75 -10 -97h-142c0 14 2 36 4 53h-2c-37 -44 -89 -65 -152 -65c-70 0 -154 33 -154 132c0 160 176 194 342 194c2 12 2 18 2 23c0 39 -29 56 -78 56c-45 0 -94 -19 -131 -47l-66 92c59 48 143 75 219 75
c119 0 208 -50 208 -161zM340 218h-14c-80 0 -173 -11 -173 -72c0 -40 33 -51 66 -51c61 0 105 43 116 99zM533 716l-170 -144h-122l129 144h163z" />
    <glyph glyph-name="acircumflex" unicode="&#xe2;" horiz-adv-x="559" 
d="M503 352c0 -18 -2 -41 -6 -61l-34 -194c-6 -34 -10 -75 -10 -97h-142c0 14 2 36 4 53h-2c-37 -44 -89 -65 -152 -65c-70 0 -154 33 -154 132c0 160 176 194 342 194c2 12 2 18 2 23c0 39 -29 56 -78 56c-45 0 -94 -19 -131 -47l-66 92c59 48 143 75 219 75
c119 0 208 -50 208 -161zM340 218h-14c-80 0 -173 -11 -173 -72c0 -40 33 -51 66 -51c61 0 105 43 116 99zM517 572h-125l-55 82l-83 -82h-127l148 144h146z" />
    <glyph glyph-name="atilde" unicode="&#xe3;" horiz-adv-x="559" 
d="M503 352c0 -18 -2 -41 -6 -61l-34 -194c-6 -34 -10 -75 -10 -97h-142c0 14 2 36 4 53h-2c-37 -44 -89 -65 -152 -65c-70 0 -154 33 -154 132c0 160 176 194 342 194c2 12 2 18 2 23c0 39 -29 56 -78 56c-45 0 -94 -19 -131 -47l-66 92c59 48 143 75 219 75
c119 0 208 -50 208 -161zM340 218h-14c-80 0 -173 -11 -173 -72c0 -40 33 -51 66 -51c61 0 105 43 116 99zM529 708c-21 -70 -64 -131 -136 -131c-26 0 -50 7 -72 19c-27 14 -45 22 -65 22c-24 0 -40 -20 -50 -42h-71c20 69 63 129 136 129c28 0 52 -8 76 -20
c25 -13 43 -20 62 -20c25 0 39 19 49 43h71z" />
    <glyph glyph-name="adieresis" unicode="&#xe4;" horiz-adv-x="559" 
d="M503 352c0 -18 -2 -41 -6 -61l-34 -194c-6 -34 -10 -75 -10 -97h-142c0 14 2 36 4 53h-2c-37 -44 -89 -65 -152 -65c-70 0 -154 33 -154 132c0 160 176 194 342 194c2 12 2 18 2 23c0 39 -29 56 -78 56c-45 0 -94 -19 -131 -47l-66 92c59 48 143 75 219 75
c119 0 208 -50 208 -161zM340 218h-14c-80 0 -173 -11 -173 -72c0 -40 33 -51 66 -51c61 0 105 43 116 99zM308 664c0 -47 -35 -86 -84 -86c-46 0 -78 30 -78 73c0 49 37 86 85 86c45 0 77 -31 77 -73zM527 664c0 -47 -35 -86 -84 -86c-45 0 -78 30 -78 73c0 49 37 86 86 86
c44 0 76 -31 76 -73z" />
    <glyph glyph-name="amacron" unicode="&#x101;" horiz-adv-x="559" 
d="M503 352c0 -18 -2 -41 -6 -61l-34 -194c-6 -34 -10 -75 -10 -97h-142c0 14 2 36 4 53h-2c-37 -44 -89 -65 -152 -65c-70 0 -154 33 -154 132c0 160 176 194 342 194c2 12 2 18 2 23c0 39 -29 56 -78 56c-45 0 -94 -19 -131 -47l-66 92c59 48 143 75 219 75
c119 0 208 -50 208 -161zM340 218h-14c-80 0 -173 -11 -173 -72c0 -40 33 -51 66 -51c61 0 105 43 116 99zM491 601h-333l14 84h334z" />
    <glyph glyph-name="abreve" unicode="&#x103;" horiz-adv-x="559" 
d="M503 352c0 -18 -2 -41 -6 -61l-34 -194c-6 -34 -10 -75 -10 -97h-142c0 14 2 36 4 53h-2c-37 -44 -89 -65 -152 -65c-70 0 -154 33 -154 132c0 160 176 194 342 194c2 12 2 18 2 23c0 39 -29 56 -78 56c-45 0 -94 -19 -131 -47l-66 92c59 48 143 75 219 75
c119 0 208 -50 208 -161zM340 218h-14c-80 0 -173 -11 -173 -72c0 -40 33 -51 66 -51c61 0 105 43 116 99zM505 716c-23 -103 -99 -144 -189 -144c-92 0 -157 39 -157 144h82c0 -21 10 -36 25 -45c15 -8 35 -12 55 -12c48 0 89 10 102 57h82z" />
    <glyph glyph-name="aring" unicode="&#xe5;" horiz-adv-x="559" 
d="M503 352c0 -18 -2 -41 -6 -61l-34 -194c-6 -34 -10 -75 -10 -97h-142c0 14 2 36 4 53h-2c-37 -44 -89 -65 -152 -65c-70 0 -154 33 -154 132c0 160 176 194 342 194c2 12 2 18 2 23c0 39 -29 56 -78 56c-45 0 -94 -19 -131 -47l-66 92c59 48 143 75 219 75
c119 0 208 -50 208 -161zM340 218h-14c-80 0 -173 -11 -173 -72c0 -40 33 -51 66 -51c61 0 105 43 116 99zM322 557c-55 0 -93 38 -93 89c0 68 50 123 119 123c55 0 93 -37 93 -88c0 -69 -50 -124 -119 -124zM392 674c0 27 -19 50 -49 50c-38 0 -65 -32 -65 -72
c0 -28 18 -50 48 -50c39 0 66 32 66 72z" />
    <glyph glyph-name="aogonek" unicode="&#x105;" horiz-adv-x="559" 
d="M398 -196c-35 -24 -75 -40 -119 -40c-53 0 -96 22 -96 83c0 63 71 117 128 155c0 14 2 34 4 51h-2c-37 -44 -89 -65 -152 -65c-70 0 -154 33 -154 132c0 160 176 194 342 194c2 12 2 18 2 23c0 39 -29 56 -78 56c-45 0 -94 -19 -131 -47l-66 92c59 48 143 75 219 75
c119 0 208 -50 208 -161c0 -18 -2 -41 -6 -61l-34 -194c-6 -34 -10 -75 -10 -97h-56c-61 -44 -110 -88 -110 -127c0 -19 13 -27 33 -27c19 0 39 7 57 19zM340 218h-14c-80 0 -173 -11 -173 -72c0 -40 33 -51 66 -51c61 0 105 43 116 99z" />
    <glyph glyph-name="ae" unicode="&#xe6;" horiz-adv-x="897" 
d="M849 303c0 -24 -4 -65 -12 -97h-357c-1 -4 -1 -7 -1 -9c0 -56 54 -89 110 -89c50 0 88 20 119 52l100 -79c-63 -67 -143 -96 -233 -96c-81 0 -156 29 -188 91c-32 -46 -94 -88 -200 -88c-85 0 -183 31 -183 134c0 158 174 182 346 182c3 12 4 27 4 32c0 42 -33 57 -78 57
s-94 -19 -130 -47l-67 92c59 48 143 75 219 75c93 0 138 -30 157 -74c35 41 94 74 175 74c130 0 219 -75 219 -210zM708 324c0 44 -34 77 -91 77c-71 0 -116 -55 -126 -97h216c1 7 1 14 1 20zM340 208h-25c-95 0 -164 -13 -164 -63c0 -38 33 -49 67 -49c67 0 109 37 119 95z
" />
    <glyph glyph-name="cacute" unicode="&#x107;" horiz-adv-x="500" 
d="M510 436l-101 -96c-14 22 -48 43 -87 43c-86 0 -147 -73 -147 -157c0 -56 33 -107 108 -107c48 0 80 20 104 45l76 -102c-52 -46 -116 -76 -201 -76c-145 0 -242 87 -242 219c0 162 122 308 306 308c75 0 147 -25 184 -77zM537 716l-170 -144h-122l129 144h163z" />
    <glyph glyph-name="ccircumflex" unicode="&#x109;" horiz-adv-x="500" 
d="M510 436l-101 -96c-14 22 -48 43 -87 43c-86 0 -147 -73 -147 -157c0 -56 33 -107 108 -107c48 0 80 20 104 45l76 -102c-52 -46 -116 -76 -201 -76c-145 0 -242 87 -242 219c0 162 122 308 306 308c75 0 147 -25 184 -77zM541 572h-125l-55 82l-83 -82h-127l148 144h146
z" />
    <glyph glyph-name="ccaron" unicode="&#x10d;" horiz-adv-x="500" 
d="M510 436l-101 -96c-14 22 -48 43 -87 43c-86 0 -147 -73 -147 -157c0 -56 33 -107 108 -107c48 0 80 20 104 45l76 -102c-52 -46 -116 -76 -201 -76c-145 0 -242 87 -242 219c0 162 122 308 306 308c75 0 147 -25 184 -77zM557 716l-147 -144h-145l-98 144h126l54 -83
l83 83h127z" />
    <glyph glyph-name="cdotaccent" unicode="&#x10b;" horiz-adv-x="500" 
d="M510 436l-101 -96c-14 22 -48 43 -87 43c-86 0 -147 -73 -147 -157c0 -56 33 -107 108 -107c48 0 80 20 104 45l76 -102c-52 -46 -116 -76 -201 -76c-145 0 -242 87 -242 219c0 162 122 308 306 308c75 0 147 -25 184 -77zM439 664c0 -49 -37 -90 -88 -90
c-47 0 -82 31 -82 76c0 51 40 90 90 90c46 0 80 -33 80 -76z" />
    <glyph glyph-name="ccedilla" unicode="&#xe7;" horiz-adv-x="500" 
d="M344 -135c0 -79 -84 -105 -152 -105c-41 0 -92 11 -120 25l32 59c23 -12 55 -18 81 -18c23 0 55 5 55 33c0 24 -22 29 -42 29c-12 0 -28 -2 -41 -6l-25 29l73 80c-113 19 -185 100 -185 214c0 162 122 308 306 308c75 0 147 -25 184 -77l-101 -96c-14 22 -48 43 -87 43
c-86 0 -147 -73 -147 -157c0 -56 33 -107 108 -107c48 0 80 20 104 45l76 -102c-48 -43 -106 -71 -182 -75l-45 -48c8 2 13 2 19 2c34 0 89 -17 89 -76z" />
    <glyph glyph-name="dcaron" unicode="&#x10f;" horiz-adv-x="776" 
d="M452 434l55 322h160l-134 -756h-147l12 68h-3c-35 -50 -96 -80 -169 -80c-129 0 -206 90 -206 214c0 170 115 309 275 309c73 0 128 -30 155 -77h2zM179 223c0 -59 36 -105 103 -105c81 0 141 73 141 159c0 61 -40 105 -104 105c-85 0 -140 -71 -140 -159zM903 708
l-130 -195h-123l111 195h142z" />
    <glyph glyph-name="dcroat" unicode="&#x111;" horiz-adv-x="656" 
d="M686 570h-52l-101 -570h-147l12 68h-3c-35 -50 -96 -80 -169 -80c-129 0 -206 90 -206 214c0 170 115 309 275 309c73 0 128 -30 155 -77h2l23 136h-148l16 89h147l17 97h160l-17 -97h52zM179 223c0 -59 36 -105 103 -105c81 0 141 73 141 159c0 61 -40 105 -104 105
c-85 0 -140 -71 -140 -159z" />
    <glyph glyph-name="eth" unicode="&#xf0;" horiz-adv-x="626" 
d="M582 316c0 -173 -101 -330 -309 -330c-144 0 -253 84 -253 219c0 161 106 304 298 304c32 0 63 -7 83 -21l2 2c-18 37 -43 79 -76 110l-116 -48l-67 70l117 47c-13 16 -40 40 -64 59l139 69c31 -27 56 -54 71 -71l119 49l74 -71l-130 -52c67 -84 112 -200 112 -336z
M422 277c0 60 -39 105 -105 105c-85 0 -140 -74 -140 -160c0 -60 38 -104 104 -104c86 0 141 73 141 159z" />
    <glyph glyph-name="egrave" unicode="&#xe8;" horiz-adv-x="587" 
d="M527 206h-357c-1 -4 -1 -7 -1 -9c0 -56 55 -89 110 -89c50 0 89 20 119 52l101 -79c-63 -67 -144 -96 -234 -96c-138 0 -245 79 -245 224c0 170 125 304 300 304c131 0 220 -75 220 -210c0 -24 -5 -65 -13 -97zM397 304c1 7 1 14 1 20c0 44 -33 77 -91 77
c-71 0 -116 -55 -126 -97h216zM288 716l109 -144h-120l-152 144h163z" />
    <glyph glyph-name="eacute" unicode="&#xe9;" horiz-adv-x="587" 
d="M527 206h-357c-1 -4 -1 -7 -1 -9c0 -56 55 -89 110 -89c50 0 89 20 119 52l101 -79c-63 -67 -144 -96 -234 -96c-138 0 -245 79 -245 224c0 170 125 304 300 304c131 0 220 -75 220 -210c0 -24 -5 -65 -13 -97zM397 304c1 7 1 14 1 20c0 44 -33 77 -91 77
c-71 0 -116 -55 -126 -97h216zM536 716l-170 -144h-122l129 144h163z" />
    <glyph glyph-name="ecircumflex" unicode="&#xea;" horiz-adv-x="587" 
d="M527 206h-357c-1 -4 -1 -7 -1 -9c0 -56 55 -89 110 -89c50 0 89 20 119 52l101 -79c-63 -67 -144 -96 -234 -96c-138 0 -245 79 -245 224c0 170 125 304 300 304c131 0 220 -75 220 -210c0 -24 -5 -65 -13 -97zM397 304c1 7 1 14 1 20c0 44 -33 77 -91 77
c-71 0 -116 -55 -126 -97h216zM540 572h-125l-55 82l-83 -82h-127l148 144h146z" />
    <glyph glyph-name="ecaron" unicode="&#x11b;" horiz-adv-x="587" 
d="M527 206h-357c-1 -4 -1 -7 -1 -9c0 -56 55 -89 110 -89c50 0 89 20 119 52l101 -79c-63 -67 -144 -96 -234 -96c-138 0 -245 79 -245 224c0 170 125 304 300 304c131 0 220 -75 220 -210c0 -24 -5 -65 -13 -97zM397 304c1 7 1 14 1 20c0 44 -33 77 -91 77
c-71 0 -116 -55 -126 -97h216zM562 716l-147 -144h-145l-98 144h126l54 -83l83 83h127z" />
    <glyph glyph-name="edieresis" unicode="&#xeb;" horiz-adv-x="587" 
d="M527 206h-357c-1 -4 -1 -7 -1 -9c0 -56 55 -89 110 -89c50 0 89 20 119 52l101 -79c-63 -67 -144 -96 -234 -96c-138 0 -245 79 -245 224c0 170 125 304 300 304c131 0 220 -75 220 -210c0 -24 -5 -65 -13 -97zM397 304c1 7 1 14 1 20c0 44 -33 77 -91 77
c-71 0 -116 -55 -126 -97h216zM329 664c0 -47 -35 -86 -84 -86c-46 0 -78 30 -78 73c0 49 37 86 85 86c45 0 77 -31 77 -73zM548 664c0 -47 -35 -86 -84 -86c-45 0 -78 30 -78 73c0 49 37 86 86 86c44 0 76 -31 76 -73z" />
    <glyph glyph-name="emacron" unicode="&#x113;" horiz-adv-x="587" 
d="M527 206h-357c-1 -4 -1 -7 -1 -9c0 -56 55 -89 110 -89c50 0 89 20 119 52l101 -79c-63 -67 -144 -96 -234 -96c-138 0 -245 79 -245 224c0 170 125 304 300 304c131 0 220 -75 220 -210c0 -24 -5 -65 -13 -97zM397 304c1 7 1 14 1 20c0 44 -33 77 -91 77
c-71 0 -116 -55 -126 -97h216zM514 601h-333l14 84h334z" />
    <glyph glyph-name="ebreve" unicode="&#x115;" horiz-adv-x="587" 
d="M527 206h-357c-1 -4 -1 -7 -1 -9c0 -56 55 -89 110 -89c50 0 89 20 119 52l101 -79c-63 -67 -144 -96 -234 -96c-138 0 -245 79 -245 224c0 170 125 304 300 304c131 0 220 -75 220 -210c0 -24 -5 -65 -13 -97zM397 304c1 7 1 14 1 20c0 44 -33 77 -91 77
c-71 0 -116 -55 -126 -97h216zM527 716c-23 -103 -99 -144 -189 -144c-92 0 -157 39 -157 144h82c0 -21 10 -36 25 -45c15 -8 35 -12 55 -12c48 0 89 10 102 57h82z" />
    <glyph glyph-name="edotaccent" unicode="&#x117;" horiz-adv-x="587" 
d="M527 206h-357c-1 -4 -1 -7 -1 -9c0 -56 55 -89 110 -89c50 0 89 20 119 52l101 -79c-63 -67 -144 -96 -234 -96c-138 0 -245 79 -245 224c0 170 125 304 300 304c131 0 220 -75 220 -210c0 -24 -5 -65 -13 -97zM397 304c1 7 1 14 1 20c0 44 -33 77 -91 77
c-71 0 -116 -55 -126 -97h216zM440 664c0 -49 -37 -90 -88 -90c-47 0 -82 31 -82 76c0 51 40 90 90 90c46 0 80 -33 80 -76z" />
    <glyph glyph-name="eogonek" unicode="&#x119;" horiz-adv-x="587" 
d="M349 -196c-35 -24 -75 -40 -119 -40c-53 0 -96 22 -96 83c0 55 53 103 104 139c-125 10 -218 87 -218 223c0 170 125 304 300 304c131 0 220 -75 220 -210c0 -24 -5 -65 -13 -97h-357c-1 -4 -1 -7 -1 -9c0 -56 55 -89 110 -89c50 0 89 20 119 52l101 -79
c-46 -49 -101 -77 -162 -89c-56 -41 -99 -82 -99 -119c0 -19 13 -27 33 -27c19 0 39 7 57 19zM397 304c1 7 1 14 1 20c0 44 -33 77 -91 77c-71 0 -116 -55 -126 -97h216z" />
    <glyph glyph-name="gcircumflex" unicode="&#x11d;" horiz-adv-x="656" 
d="M456 432h3l11 66h151l-79 -452c-32 -184 -123 -286 -319 -286c-87 0 -191 29 -248 84l90 113c39 -43 100 -67 157 -67c106 0 145 60 161 139l7 33h-3c-28 -36 -85 -67 -153 -67c-132 0 -210 86 -210 208c0 170 114 308 276 308c72 0 128 -29 156 -79zM182 223
c0 -55 32 -105 103 -105c83 0 143 76 143 160c0 63 -41 105 -105 105c-87 0 -141 -75 -141 -160zM568 572h-125l-55 82l-83 -82h-127l148 144h146z" />
    <glyph glyph-name="gbreve" unicode="&#x11f;" horiz-adv-x="656" 
d="M456 432h3l11 66h151l-79 -452c-32 -184 -123 -286 -319 -286c-87 0 -191 29 -248 84l90 113c39 -43 100 -67 157 -67c106 0 145 60 161 139l7 33h-3c-28 -36 -85 -67 -153 -67c-132 0 -210 86 -210 208c0 170 114 308 276 308c72 0 128 -29 156 -79zM182 223
c0 -55 32 -105 103 -105c83 0 143 76 143 160c0 63 -41 105 -105 105c-87 0 -141 -75 -141 -160zM560 716c-23 -103 -99 -144 -189 -144c-92 0 -157 39 -157 144h82c0 -21 10 -36 25 -45c15 -8 35 -12 55 -12c48 0 89 10 102 57h82z" />
    <glyph glyph-name="gdotaccent" unicode="&#x121;" horiz-adv-x="656" 
d="M456 432h3l11 66h151l-79 -452c-32 -184 -123 -286 -319 -286c-87 0 -191 29 -248 84l90 113c39 -43 100 -67 157 -67c106 0 145 60 161 139l7 33h-3c-28 -36 -85 -67 -153 -67c-132 0 -210 86 -210 208c0 170 114 308 276 308c72 0 128 -29 156 -79zM182 223
c0 -55 32 -105 103 -105c83 0 143 76 143 160c0 63 -41 105 -105 105c-87 0 -141 -75 -141 -160zM467 664c0 -49 -37 -90 -88 -90c-47 0 -82 31 -82 76c0 51 40 90 90 90c46 0 80 -33 80 -76z" />
    <glyph glyph-name="gcommaaccent" unicode="&#x123;" horiz-adv-x="656" 
d="M456 432h3l11 66h151l-79 -452c-32 -184 -123 -286 -319 -286c-87 0 -191 29 -248 84l90 113c39 -43 100 -67 157 -67c106 0 145 60 161 139l7 33h-3c-28 -36 -85 -67 -153 -67c-132 0 -210 86 -210 208c0 170 114 308 276 308c72 0 128 -29 156 -79zM182 223
c0 -55 32 -105 103 -105c83 0 143 76 143 160c0 63 -41 105 -105 105c-87 0 -141 -75 -141 -160zM290 572l130 195h123l-111 -195h-142z" />
    <glyph glyph-name="hcircumflex" unicode="&#x125;" horiz-adv-x="615" 
d="M497 0h-160l47 270c3 14 5 30 5 42c0 37 -17 67 -66 67c-58 0 -95 -50 -105 -111l-48 -268h-160l133 756h161l-57 -323h2c28 41 81 78 148 78c111 0 159 -70 159 -151c0 -18 -1 -37 -5 -54zM575 796h-125l-55 82l-83 -82h-127l148 144h146z" />
    <glyph glyph-name="hbar" unicode="&#x127;" horiz-adv-x="615" 
d="M410 570h-139l-24 -137h2c28 41 81 78 148 78c111 0 159 -70 159 -151c0 -18 -1 -37 -5 -54l-54 -306h-160l47 270c3 14 5 30 5 42c0 37 -17 67 -66 67c-58 0 -95 -50 -105 -111l-48 -268h-160l100 570h-59l16 89h59l17 97h161l-17 -97h139z" />
    <glyph glyph-name="dotlessi" unicode="&#x131;" horiz-adv-x="294" 
d="M170 0h-159l87 498h161z" />
    <glyph glyph-name="igrave" unicode="&#xec;" horiz-adv-x="294" 
d="M170 0h-159l87 498h161zM152 716l109 -144h-120l-152 144h163z" />
    <glyph glyph-name="iacute" unicode="&#xed;" horiz-adv-x="294" 
d="M170 0h-159l87 498h161zM399 716l-170 -144h-122l129 144h163z" />
    <glyph glyph-name="icircumflex" unicode="&#xee;" horiz-adv-x="294" 
d="M170 0h-159l87 498h161zM389 572h-125l-55 82l-83 -82h-127l148 144h146z" />
    <glyph glyph-name="itilde" unicode="&#x129;" horiz-adv-x="294" 
d="M170 0h-159l87 498h161zM396 708c-21 -70 -64 -131 -136 -131c-26 0 -50 7 -72 19c-27 14 -45 22 -65 22c-24 0 -40 -20 -50 -42h-71c20 69 63 129 136 129c28 0 52 -8 76 -20c25 -13 43 -20 62 -20c25 0 39 19 49 43h71z" />
    <glyph glyph-name="idieresis" unicode="&#xef;" horiz-adv-x="294" 
d="M170 0h-159l87 498h161zM172 664c0 -47 -35 -86 -84 -86c-46 0 -78 30 -78 73c0 49 37 86 85 86c45 0 77 -31 77 -73zM391 664c0 -47 -35 -86 -84 -86c-45 0 -78 30 -78 73c0 49 37 86 86 86c44 0 76 -31 76 -73z" />
    <glyph glyph-name="imacron" unicode="&#x12b;" horiz-adv-x="294" 
d="M170 0h-159l87 498h161zM358 601h-333l14 84h334z" />
    <glyph glyph-name="ibreve" unicode="&#x12d;" horiz-adv-x="294" 
d="M170 0h-159l87 498h161zM389 716c-23 -103 -99 -144 -189 -144c-92 0 -157 39 -157 144h82c0 -21 10 -36 25 -45c15 -8 35 -12 55 -12c48 0 89 10 102 57h82z" />
    <glyph glyph-name="iogonek" unicode="&#x12f;" horiz-adv-x="294" 
d="M161 -196c-35 -24 -75 -40 -119 -40c-53 0 -96 22 -96 83c0 62 69 115 125 153h-60l87 498h161l-89 -498h-10c-61 -44 -110 -88 -110 -127c0 -19 13 -27 33 -27c19 0 39 7 57 19zM293 665c0 -52 -39 -96 -93 -96c-50 0 -87 34 -87 80c0 54 42 96 95 96
c49 0 85 -35 85 -80z" />
    <glyph glyph-name="dotlessj" unicode="&#x237;" horiz-adv-x="297" 
d="M171 -19c-22 -121 -68 -225 -230 -225c-22 0 -51 4 -69 9l29 133c12 -4 25 -5 34 -5c49 0 66 36 75 88l91 517h161z" />
    <glyph glyph-name="jcircumflex" unicode="&#x135;" horiz-adv-x="297" 
d="M171 -19c-22 -121 -68 -225 -230 -225c-22 0 -51 4 -69 9l29 133c12 -4 25 -5 34 -5c49 0 66 36 75 88l91 517h161zM393 572h-125l-55 82l-83 -82h-127l148 144h146z" />
    <glyph glyph-name="kcommaaccent" unicode="&#x137;" horiz-adv-x="572" 
d="M533 0h-191l-127 239h-3l-42 -239h-160l133 756h161l-82 -460h3l189 202h202l-240 -233zM316 -45l-130 -195h-123l111 195h142z" />
    <glyph glyph-name="kgreenlandic" unicode="&#x138;" horiz-adv-x="572" 
d="M533 0h-191l-127 239h-3l-42 -239h-160l87 498h161l-36 -202h3l189 202h202l-240 -233z" />
    <glyph glyph-name="lacute" unicode="&#x13a;" horiz-adv-x="295" 
d="M172 0h-162l133 756h163zM441 936l-170 -144h-122l129 144h163z" />
    <glyph glyph-name="lcaron" unicode="&#x13e;" horiz-adv-x="410" 
d="M172 0h-162l133 756h163zM547 708l-130 -195h-123l111 195h142z" />
    <glyph glyph-name="lcommaaccent" unicode="&#x13c;" horiz-adv-x="295" 
d="M172 0h-162l133 756h163zM158 -46l-130 -195h-123l111 195h142z" />
    <glyph glyph-name="lslash" unicode="&#x142;" horiz-adv-x="295" 
d="M313 454l-68 -56l-71 -398h-164l47 268l-68 -57l25 142l68 58l61 345h165l-39 -218l69 57z" />
    <glyph glyph-name="ldot" unicode="&#x140;" horiz-adv-x="451" 
d="M172 0h-162l133 756h163zM471 474c0 -49 -37 -90 -88 -90c-47 0 -82 31 -82 76c0 51 40 90 90 90c46 0 80 -33 80 -76z" />
    <glyph glyph-name="nacute" unicode="&#x144;" horiz-adv-x="615" 
d="M239 426h2c32 49 87 85 156 85c111 0 159 -70 159 -151c0 -18 -1 -37 -5 -54l-54 -306h-160l47 270c3 14 5 30 5 42c0 37 -17 67 -66 67c-58 0 -95 -50 -105 -109l-48 -270h-160l69 395c5 25 12 71 15 103h153c-1 -16 -6 -51 -8 -72zM539 716l-170 -144h-122l129 144h163
z" />
    <glyph glyph-name="ncaron" unicode="&#x148;" horiz-adv-x="615" 
d="M239 426h2c32 49 87 85 156 85c111 0 159 -70 159 -151c0 -18 -1 -37 -5 -54l-54 -306h-160l47 270c3 14 5 30 5 42c0 37 -17 67 -66 67c-58 0 -95 -50 -105 -109l-48 -270h-160l69 395c5 25 12 71 15 103h153c-1 -16 -6 -51 -8 -72zM560 716l-147 -144h-145l-98 144h126
l54 -83l83 83h127z" />
    <glyph glyph-name="ntilde" unicode="&#xf1;" horiz-adv-x="615" 
d="M239 426h2c32 49 87 85 156 85c111 0 159 -70 159 -151c0 -18 -1 -37 -5 -54l-54 -306h-160l47 270c3 14 5 30 5 42c0 37 -17 67 -66 67c-58 0 -95 -50 -105 -109l-48 -270h-160l69 395c5 25 12 71 15 103h153c-1 -16 -6 -51 -8 -72zM553 708c-21 -70 -64 -131 -136 -131
c-26 0 -50 7 -72 19c-27 14 -45 22 -65 22c-24 0 -40 -20 -50 -42h-71c20 69 63 129 136 129c28 0 52 -8 76 -20c25 -13 43 -20 62 -20c25 0 39 19 49 43h71z" />
    <glyph glyph-name="ncommaaccent" unicode="&#x146;" horiz-adv-x="615" 
d="M239 426h2c32 49 87 85 156 85c111 0 159 -70 159 -151c0 -18 -1 -37 -5 -54l-54 -306h-160l47 270c3 14 5 30 5 42c0 37 -17 67 -66 67c-58 0 -95 -50 -105 -109l-48 -270h-160l69 395c5 25 12 71 15 103h153c-1 -16 -6 -51 -8 -72zM317 -45l-130 -195h-123l111 195h142
z" />
    <glyph glyph-name="eng" unicode="&#x14b;" horiz-adv-x="615" 
d="M494 -19c-22 -121 -68 -225 -230 -225c-22 0 -51 4 -69 9l29 133c12 -4 25 -5 34 -5c49 0 66 36 75 88l51 289c3 14 5 30 5 42c0 37 -17 67 -66 67c-58 0 -95 -50 -105 -109l-48 -270h-160l69 395c5 25 12 71 15 103h153c-1 -16 -6 -51 -8 -72h2c32 49 87 85 156 85
c111 0 159 -70 159 -151c0 -18 -1 -37 -5 -54z" />
    <glyph glyph-name="ograve" unicode="&#xf2;" horiz-adv-x="626" 
d="M273 -14c-144 0 -253 84 -253 219c0 165 116 308 304 308c147 0 256 -84 256 -219c0 -167 -116 -308 -307 -308zM422 277c0 60 -39 105 -105 105c-85 0 -140 -74 -140 -160c0 -60 38 -104 104 -104c86 0 141 73 141 159zM326 716l109 -144h-120l-152 144h163z" />
    <glyph glyph-name="oacute" unicode="&#xf3;" horiz-adv-x="626" 
d="M273 -14c-144 0 -253 84 -253 219c0 165 116 308 304 308c147 0 256 -84 256 -219c0 -167 -116 -308 -307 -308zM422 277c0 60 -39 105 -105 105c-85 0 -140 -74 -140 -160c0 -60 38 -104 104 -104c86 0 141 73 141 159zM543 716l-170 -144h-122l129 144h163z" />
    <glyph glyph-name="ocircumflex" unicode="&#xf4;" horiz-adv-x="626" 
d="M273 -14c-144 0 -253 84 -253 219c0 165 116 308 304 308c147 0 256 -84 256 -219c0 -167 -116 -308 -307 -308zM422 277c0 60 -39 105 -105 105c-85 0 -140 -74 -140 -160c0 -60 38 -104 104 -104c86 0 141 73 141 159zM554 572h-125l-55 82l-83 -82h-127l148 144h146z
" />
    <glyph glyph-name="otilde" unicode="&#xf5;" horiz-adv-x="626" 
d="M273 -14c-144 0 -253 84 -253 219c0 165 116 308 304 308c147 0 256 -84 256 -219c0 -167 -116 -308 -307 -308zM422 277c0 60 -39 105 -105 105c-85 0 -140 -74 -140 -160c0 -60 38 -104 104 -104c86 0 141 73 141 159zM560 708c-21 -70 -64 -131 -136 -131
c-26 0 -50 7 -72 19c-27 14 -45 22 -65 22c-24 0 -40 -20 -50 -42h-71c20 69 63 129 136 129c28 0 52 -8 76 -20c25 -13 43 -20 62 -20c25 0 39 19 49 43h71z" />
    <glyph glyph-name="odieresis" unicode="&#xf6;" horiz-adv-x="626" 
d="M273 -14c-144 0 -253 84 -253 219c0 165 116 308 304 308c147 0 256 -84 256 -219c0 -167 -116 -308 -307 -308zM422 277c0 60 -39 105 -105 105c-85 0 -140 -74 -140 -160c0 -60 38 -104 104 -104c86 0 141 73 141 159zM339 664c0 -47 -35 -86 -84 -86
c-46 0 -78 30 -78 73c0 49 37 86 85 86c45 0 77 -31 77 -73zM558 664c0 -47 -35 -86 -84 -86c-45 0 -78 30 -78 73c0 49 37 86 86 86c44 0 76 -31 76 -73z" />
    <glyph glyph-name="omacron" unicode="&#x14d;" horiz-adv-x="626" 
d="M273 -14c-144 0 -253 84 -253 219c0 165 116 308 304 308c147 0 256 -84 256 -219c0 -167 -116 -308 -307 -308zM422 277c0 60 -39 105 -105 105c-85 0 -140 -74 -140 -160c0 -60 38 -104 104 -104c86 0 141 73 141 159zM525 601h-333l14 84h334z" />
    <glyph glyph-name="obreve" unicode="&#x14f;" horiz-adv-x="626" 
d="M273 -14c-144 0 -253 84 -253 219c0 165 116 308 304 308c147 0 256 -84 256 -219c0 -167 -116 -308 -307 -308zM422 277c0 60 -39 105 -105 105c-85 0 -140 -74 -140 -160c0 -60 38 -104 104 -104c86 0 141 73 141 159zM540 716c-23 -103 -99 -144 -189 -144
c-92 0 -157 39 -157 144h82c0 -21 10 -36 25 -45c15 -8 35 -12 55 -12c48 0 89 10 102 57h82z" />
    <glyph glyph-name="ohungarumlaut" unicode="&#x151;" horiz-adv-x="626" 
d="M273 -14c-144 0 -253 84 -253 219c0 165 116 308 304 308c147 0 256 -84 256 -219c0 -167 -116 -308 -307 -308zM422 277c0 60 -39 105 -105 105c-85 0 -140 -74 -140 -160c0 -60 38 -104 104 -104c86 0 141 73 141 159zM690 716l-171 -144h-121l129 144h163zM471 716
l-171 -144h-121l128 144h164z" />
    <glyph glyph-name="oslash" unicode="&#xf8;" horiz-adv-x="626" 
d="M621 477l-77 -66c23 -32 36 -71 36 -117c0 -167 -116 -308 -307 -308c-64 0 -122 17 -165 49l-85 -73l-47 58l80 68c-23 32 -36 75 -36 119c0 161 116 306 304 306c67 0 124 -18 167 -49l81 69zM378 366c-15 12 -36 19 -61 19c-88 0 -142 -74 -142 -155
c0 -12 1 -26 5 -36zM424 271c0 13 -2 27 -6 37l-199 -171c14 -13 38 -22 64 -22c89 0 141 74 141 156z" />
    <glyph glyph-name="oe" unicode="&#x153;" horiz-adv-x="978" 
d="M931 303c0 -24 -5 -65 -13 -97h-357c-1 -4 -1 -7 -1 -9c0 -56 55 -89 110 -89c50 0 89 20 119 52l101 -79c-63 -67 -144 -96 -234 -96c-79 0 -153 27 -189 83c-40 -52 -108 -82 -196 -82c-144 0 -251 84 -251 219c0 168 121 308 307 308c86 0 147 -28 185 -87
c44 55 117 87 199 87c131 0 220 -75 220 -210zM789 324c0 44 -33 77 -91 77c-71 0 -116 -55 -126 -97h216c1 7 1 14 1 20zM422 277c0 60 -39 105 -105 105c-82 0 -140 -74 -140 -160c0 -60 38 -104 104 -104c84 0 141 73 141 159z" />
    <glyph glyph-name="racute" unicode="&#x155;" horiz-adv-x="379" 
d="M237 425h2c32 50 76 86 138 86c12 0 26 -2 34 -4l-26 -142c-14 4 -28 5 -40 5c-93 0 -125 -73 -132 -114l-45 -256h-160l71 395c5 25 12 71 15 103h152c-1 -13 -6 -54 -9 -73zM433 716l-170 -144h-122l129 144h163z" />
    <glyph glyph-name="rcaron" unicode="&#x159;" horiz-adv-x="379" 
d="M237 425h2c32 50 76 86 138 86c12 0 26 -2 34 -4l-26 -142c-14 4 -28 5 -40 5c-93 0 -125 -73 -132 -114l-45 -256h-160l71 395c5 25 12 71 15 103h152c-1 -13 -6 -54 -9 -73zM476 716l-147 -144h-145l-98 144h126l54 -83l83 83h127z" />
    <glyph glyph-name="rcommaaccent" unicode="&#x157;" horiz-adv-x="379" 
d="M237 425h2c32 50 76 86 138 86c12 0 26 -2 34 -4l-26 -142c-14 4 -28 5 -40 5c-93 0 -125 -73 -132 -114l-45 -256h-160l71 395c5 25 12 71 15 103h152c-1 -13 -6 -54 -9 -73zM155 -46l-130 -195h-123l111 195h142z" />
    <glyph glyph-name="sacute" unicode="&#x15b;" horiz-adv-x="464" 
d="M-32 68l100 91c25 -37 71 -57 115 -57c43 0 71 17 71 45c0 27 -24 39 -71 53c-92 28 -142 62 -142 140c0 109 105 173 225 173c77 0 149 -26 189 -77l-101 -85c-19 26 -52 46 -97 46c-35 0 -69 -12 -69 -44c0 -23 21 -33 65 -45c93 -25 151 -65 151 -150
c0 -121 -113 -176 -225 -176c-92 0 -166 33 -211 86zM477 716l-170 -144h-122l129 144h163z" />
    <glyph glyph-name="scircumflex" unicode="&#x15d;" horiz-adv-x="464" 
d="M-32 68l100 91c25 -37 71 -57 115 -57c43 0 71 17 71 45c0 27 -24 39 -71 53c-92 28 -142 62 -142 140c0 109 105 173 225 173c77 0 149 -26 189 -77l-101 -85c-19 26 -52 46 -97 46c-35 0 -69 -12 -69 -44c0 -23 21 -33 65 -45c93 -25 151 -65 151 -150
c0 -121 -113 -176 -225 -176c-92 0 -166 33 -211 86zM485 572h-125l-55 82l-83 -82h-127l148 144h146z" />
    <glyph glyph-name="scaron" unicode="&#x161;" horiz-adv-x="464" 
d="M-32 68l100 91c25 -37 71 -57 115 -57c43 0 71 17 71 45c0 27 -24 39 -71 53c-92 28 -142 62 -142 140c0 109 105 173 225 173c77 0 149 -26 189 -77l-101 -85c-19 26 -52 46 -97 46c-35 0 -69 -12 -69 -44c0 -23 21 -33 65 -45c93 -25 151 -65 151 -150
c0 -121 -113 -176 -225 -176c-92 0 -166 33 -211 86zM492 716l-147 -144h-145l-98 144h126l54 -83l83 83h127z" />
    <glyph glyph-name="scedilla" unicode="&#x15f;" horiz-adv-x="464" 
d="M287 -135c0 -79 -84 -105 -152 -105c-41 0 -92 11 -120 25l32 59c23 -12 55 -18 81 -18c23 0 55 5 55 33c0 24 -22 29 -42 29c-12 0 -28 -2 -41 -6l-25 29l67 73c-75 8 -135 38 -174 84l100 91c25 -37 71 -57 115 -57c43 0 71 17 71 45c0 27 -24 39 -71 53
c-92 28 -142 62 -142 140c0 109 105 173 225 173c77 0 149 -26 189 -77l-101 -85c-19 26 -52 46 -97 46c-35 0 -69 -12 -69 -44c0 -23 21 -33 65 -45c93 -25 151 -65 151 -150c0 -106 -86 -161 -182 -173l-43 -46c8 2 13 2 19 2c34 0 89 -17 89 -76z" />
    <glyph glyph-name="scommaaccent" unicode="&#x219;" horiz-adv-x="464" 
d="M-32 68l100 91c25 -37 71 -57 115 -57c43 0 71 17 71 45c0 27 -24 39 -71 53c-92 28 -142 62 -142 140c0 109 105 173 225 173c77 0 149 -26 189 -77l-101 -85c-19 26 -52 46 -97 46c-35 0 -69 -12 -69 -44c0 -23 21 -33 65 -45c93 -25 151 -65 151 -150
c0 -121 -113 -176 -225 -176c-92 0 -166 33 -211 86zM224 -45l-130 -195h-123l111 195h142z" />
    <glyph glyph-name="germandbls" unicode="&#xdf;" horiz-adv-x="661" 
d="M317 -12c-29 0 -64 3 -94 11l22 125c14 -5 43 -9 61 -9c85 0 139 50 139 131c0 63 -54 100 -117 100h-11l21 125h13c50 0 106 26 106 95c0 42 -31 74 -80 74c-80 0 -106 -74 -117 -137l-89 -503h-162l90 509c24 136 90 259 287 259c114 0 227 -57 227 -181
c0 -97 -64 -152 -137 -170v-2c73 -19 131 -83 131 -172c0 -154 -111 -255 -290 -255z" />
    <glyph glyph-name="tcaron" unicode="&#x165;" horiz-adv-x="424" 
d="M92 377h-82l22 121h79l23 132h156l-23 -132h106l-22 -121h-103l-36 -195c-1 -9 -2 -20 -2 -27c0 -33 20 -43 52 -43c16 0 32 3 44 6l-15 -115c-19 -8 -57 -15 -88 -15c-96 0 -155 38 -155 121c0 16 2 39 6 57zM557 731l-130 -195h-123l111 195h142z" />
    <glyph glyph-name="uni0163" unicode="&#x163;" horiz-adv-x="364" 
d="M92 377h-82l22 121h79l23 132h156l-23 -132h106l-22 -121h-103l-36 -195c-1 -9 -2 -20 -2 -27c0 -33 20 -43 52 -43c16 0 32 3 44 6l-15 -115c-19 -8 -57 -15 -88 -15c-96 0 -155 38 -155 121c0 16 2 39 6 57zM218 -45l-130 -195h-123l111 195h142z" />
    <glyph glyph-name="uni021B" unicode="&#x21b;" horiz-adv-x="364" 
d="M92 377h-82l22 121h79l23 132h156l-23 -132h106l-22 -121h-103l-36 -195c-1 -9 -2 -20 -2 -27c0 -33 20 -43 52 -43c16 0 32 3 44 6l-15 -115c-19 -8 -57 -15 -88 -15c-96 0 -155 38 -155 121c0 16 2 39 6 57zM218 -45l-130 -195h-123l111 195h142z" />
    <glyph glyph-name="tbar" unicode="&#x167;" horiz-adv-x="364" 
d="M303 215h-85l-6 -33c-1 -9 -2 -20 -2 -27c0 -33 20 -43 52 -43c16 0 32 3 44 6l-15 -115c-19 -8 -57 -15 -88 -15c-96 0 -155 38 -155 121c0 16 2 39 6 57l9 49h-60l16 89h60l13 73h-82l22 121h79l23 132h156l-23 -132h106l-22 -121h-103l-14 -73h85z" />
    <glyph glyph-name="thorn" unicode="&#xfe;" horiz-adv-x="659" 
d="M611 296c0 -171 -116 -310 -276 -310c-73 0 -128 29 -155 76h-2l-52 -302h-160l176 996h160l-58 -322h2c35 47 95 76 158 76c129 0 207 -91 207 -214zM451 275c0 59 -36 106 -102 106c-81 0 -142 -74 -142 -160c0 -61 40 -105 105 -105c85 0 139 71 139 159z" />
    <glyph glyph-name="ugrave" unicode="&#xf9;" horiz-adv-x="614" 
d="M345 72h-3c-31 -48 -87 -85 -156 -85c-110 0 -158 71 -158 152c0 17 1 36 5 54l53 305h161l-48 -270c-2 -14 -4 -29 -4 -42c0 -36 17 -67 66 -67c58 0 94 51 105 110l48 269h160l-70 -395c-5 -25 -12 -71 -15 -103h-152c1 16 6 52 8 72zM292 716l109 -144h-120l-152 144
h163z" />
    <glyph glyph-name="uacute" unicode="&#xfa;" horiz-adv-x="614" 
d="M345 72h-3c-31 -48 -87 -85 -156 -85c-110 0 -158 71 -158 152c0 17 1 36 5 54l53 305h161l-48 -270c-2 -14 -4 -29 -4 -42c0 -36 17 -67 66 -67c58 0 94 51 105 110l48 269h160l-70 -395c-5 -25 -12 -71 -15 -103h-152c1 16 6 52 8 72zM545 716l-170 -144h-122l129 144
h163z" />
    <glyph glyph-name="ucircumflex" unicode="&#xfb;" horiz-adv-x="614" 
d="M345 72h-3c-31 -48 -87 -85 -156 -85c-110 0 -158 71 -158 152c0 17 1 36 5 54l53 305h161l-48 -270c-2 -14 -4 -29 -4 -42c0 -36 17 -67 66 -67c58 0 94 51 105 110l48 269h160l-70 -395c-5 -25 -12 -71 -15 -103h-152c1 16 6 52 8 72zM538 572h-125l-55 82l-83 -82
h-127l148 144h146z" />
    <glyph glyph-name="utilde" unicode="&#x169;" horiz-adv-x="614" 
d="M345 72h-3c-31 -48 -87 -85 -156 -85c-110 0 -158 71 -158 152c0 17 1 36 5 54l53 305h161l-48 -270c-2 -14 -4 -29 -4 -42c0 -36 17 -67 66 -67c58 0 94 51 105 110l48 269h160l-70 -395c-5 -25 -12 -71 -15 -103h-152c1 16 6 52 8 72zM554 708
c-21 -70 -64 -131 -136 -131c-26 0 -50 7 -72 19c-27 14 -45 22 -65 22c-24 0 -40 -20 -50 -42h-71c20 69 63 129 136 129c28 0 52 -8 76 -20c25 -13 43 -20 62 -20c25 0 39 19 49 43h71z" />
    <glyph glyph-name="udieresis" unicode="&#xfc;" horiz-adv-x="614" 
d="M345 72h-3c-31 -48 -87 -85 -156 -85c-110 0 -158 71 -158 152c0 17 1 36 5 54l53 305h161l-48 -270c-2 -14 -4 -29 -4 -42c0 -36 17 -67 66 -67c58 0 94 51 105 110l48 269h160l-70 -395c-5 -25 -12 -71 -15 -103h-152c1 16 6 52 8 72zM326 664c0 -47 -35 -86 -84 -86
c-46 0 -78 30 -78 73c0 49 37 86 85 86c45 0 77 -31 77 -73zM545 664c0 -47 -35 -86 -84 -86c-45 0 -78 30 -78 73c0 49 37 86 86 86c44 0 76 -31 76 -73z" />
    <glyph glyph-name="umacron" unicode="&#x16b;" horiz-adv-x="614" 
d="M345 72h-3c-31 -48 -87 -85 -156 -85c-110 0 -158 71 -158 152c0 17 1 36 5 54l53 305h161l-48 -270c-2 -14 -4 -29 -4 -42c0 -36 17 -67 66 -67c58 0 94 51 105 110l48 269h160l-70 -395c-5 -25 -12 -71 -15 -103h-152c1 16 6 52 8 72zM512 601h-333l14 84h334z" />
    <glyph glyph-name="ubreve" unicode="&#x16d;" horiz-adv-x="614" 
d="M345 72h-3c-31 -48 -87 -85 -156 -85c-110 0 -158 71 -158 152c0 17 1 36 5 54l53 305h161l-48 -270c-2 -14 -4 -29 -4 -42c0 -36 17 -67 66 -67c58 0 94 51 105 110l48 269h160l-70 -395c-5 -25 -12 -71 -15 -103h-152c1 16 6 52 8 72zM528 716
c-23 -103 -99 -144 -189 -144c-92 0 -157 39 -157 144h82c0 -21 10 -36 25 -45c15 -8 35 -12 55 -12c48 0 89 10 102 57h82z" />
    <glyph glyph-name="uring" unicode="&#x16f;" horiz-adv-x="614" 
d="M345 72h-3c-31 -48 -87 -85 -156 -85c-110 0 -158 71 -158 152c0 17 1 36 5 54l53 305h161l-48 -270c-2 -14 -4 -29 -4 -42c0 -36 17 -67 66 -67c58 0 94 51 105 110l48 269h160l-70 -395c-5 -25 -12 -71 -15 -103h-152c1 16 6 52 8 72zM346 557c-55 0 -93 38 -93 89
c0 68 50 123 119 123c55 0 93 -37 93 -88c0 -69 -50 -124 -119 -124zM416 674c0 27 -19 50 -49 50c-38 0 -65 -32 -65 -72c0 -28 18 -50 48 -50c39 0 66 32 66 72z" />
    <glyph glyph-name="uhungarumlaut" unicode="&#x171;" horiz-adv-x="614" 
d="M345 72h-3c-31 -48 -87 -85 -156 -85c-110 0 -158 71 -158 152c0 17 1 36 5 54l53 305h161l-48 -270c-2 -14 -4 -29 -4 -42c0 -36 17 -67 66 -67c58 0 94 51 105 110l48 269h160l-70 -395c-5 -25 -12 -71 -15 -103h-152c1 16 6 52 8 72zM683 716l-171 -144h-121l129 144
h163zM464 716l-171 -144h-121l128 144h164z" />
    <glyph glyph-name="uogonek" unicode="&#x173;" horiz-adv-x="614" 
d="M427 -196c-35 -24 -75 -40 -119 -40c-53 0 -96 22 -96 83c0 62 69 115 125 153c1 16 6 52 8 72h-3c-31 -48 -87 -85 -156 -85c-110 0 -158 71 -158 152c0 17 1 36 5 54l53 305h161l-48 -270c-2 -14 -4 -29 -4 -42c0 -36 17 -67 66 -67c58 0 94 51 105 110l48 269h160
l-70 -395c-5 -25 -12 -71 -15 -103h-63c-61 -44 -110 -88 -110 -127c0 -19 13 -27 33 -27c19 0 39 7 57 19z" />
    <glyph glyph-name="wcircumflex" unicode="&#x175;" horiz-adv-x="856" 
d="M892 498l-272 -498h-161l-37 313h-2l-162 -313h-161l-68 498h167l24 -318h3l154 318h161l30 -318h3l153 318h168zM665 572h-125l-55 82l-83 -82h-127l148 144h146z" />
    <glyph glyph-name="wacute" unicode="&#x1e83;" horiz-adv-x="856" 
d="M892 498l-272 -498h-161l-37 313h-2l-162 -313h-161l-68 498h167l24 -318h3l154 318h161l30 -318h3l153 318h168zM694 716l-170 -144h-122l129 144h163z" />
    <glyph glyph-name="wdieresis" unicode="&#x1e85;" horiz-adv-x="856" 
d="M892 498l-272 -498h-161l-37 313h-2l-162 -313h-161l-68 498h167l24 -318h3l154 318h161l30 -318h3l153 318h168zM453 664c0 -47 -35 -86 -84 -86c-46 0 -78 30 -78 73c0 49 37 86 85 86c45 0 77 -31 77 -73zM672 664c0 -47 -35 -86 -84 -86c-45 0 -78 30 -78 73
c0 49 37 86 86 86c44 0 76 -31 76 -73z" />
    <glyph glyph-name="wgrave" unicode="&#x1e81;" horiz-adv-x="856" 
d="M892 498l-272 -498h-161l-37 313h-2l-162 -313h-161l-68 498h167l24 -318h3l154 318h161l30 -318h3l153 318h168zM428 716l109 -144h-120l-152 144h163z" />
    <glyph glyph-name="yacute" unicode="&#xfd;" horiz-adv-x="556" 
d="M594 498l-326 -573c-58 -105 -108 -165 -226 -165c-31 0 -60 4 -82 11l24 132c15 -6 32 -9 47 -9c46 0 68 24 92 67l24 41l-115 496h175l50 -326h2l165 326h170zM540 716l-170 -144h-122l129 144h163z" />
    <glyph glyph-name="ycircumflex" unicode="&#x177;" horiz-adv-x="556" 
d="M594 498l-326 -573c-58 -105 -108 -165 -226 -165c-31 0 -60 4 -82 11l24 132c15 -6 32 -9 47 -9c46 0 68 24 92 67l24 41l-115 496h175l50 -326h2l165 326h170zM522 572h-125l-55 82l-83 -82h-127l148 144h146z" />
    <glyph glyph-name="ydieresis" unicode="&#xff;" horiz-adv-x="556" 
d="M594 498l-326 -573c-58 -105 -108 -165 -226 -165c-31 0 -60 4 -82 11l24 132c15 -6 32 -9 47 -9c46 0 68 24 92 67l24 41l-115 496h175l50 -326h2l165 326h170zM309 664c0 -47 -35 -86 -84 -86c-46 0 -78 30 -78 73c0 49 37 86 85 86c45 0 77 -31 77 -73zM528 664
c0 -47 -35 -86 -84 -86c-45 0 -78 30 -78 73c0 49 37 86 86 86c44 0 76 -31 76 -73z" />
    <glyph glyph-name="ygrave" unicode="&#x1ef3;" horiz-adv-x="556" 
d="M594 498l-326 -573c-58 -105 -108 -165 -226 -165c-31 0 -60 4 -82 11l24 132c15 -6 32 -9 47 -9c46 0 68 24 92 67l24 41l-115 496h175l50 -326h2l165 326h170zM285 716l109 -144h-120l-152 144h163z" />
    <glyph glyph-name="zacute" unicode="&#x17a;" horiz-adv-x="509" 
d="M418 0h-441l22 125l283 251h-225l21 122h422l-21 -120l-288 -254h249zM503 716l-170 -144h-122l129 144h163z" />
    <glyph glyph-name="zcaron" unicode="&#x17e;" horiz-adv-x="509" 
d="M418 0h-441l22 125l283 251h-225l21 122h422l-21 -120l-288 -254h249zM513 716l-147 -144h-145l-98 144h126l54 -83l83 83h127z" />
    <glyph glyph-name="zdotaccent" unicode="&#x17c;" horiz-adv-x="509" 
d="M418 0h-441l22 125l283 251h-225l21 122h422l-21 -120l-288 -254h249zM398 664c0 -49 -37 -90 -88 -90c-47 0 -82 31 -82 76c0 51 40 90 90 90c46 0 80 -33 80 -76z" />
    <glyph glyph-name="IJ" unicode="&#x132;" horiz-adv-x="832" 
d="M185 0h-167l125 708h167zM749 239c-20 -115 -66 -258 -255 -258c-120 0 -200 64 -221 165l154 50c5 -36 29 -65 66 -65c59 0 79 46 90 109l82 468h168z" />
    <glyph glyph-name="ij" unicode="&#x133;" horiz-adv-x="594" 
d="M170 0h-159l87 498h161zM293 665c0 -52 -39 -96 -93 -96c-50 0 -87 34 -87 80c0 54 42 96 95 96c49 0 85 -35 85 -80zM468 -19c-22 -121 -68 -225 -230 -225c-22 0 -51 4 -69 9l29 133c12 -4 25 -5 34 -5c49 0 66 36 75 88l91 517h161zM593 665c0 -52 -39 -96 -93 -96
c-50 0 -87 34 -87 80c0 54 42 96 95 96c49 0 85 -35 85 -80z" />
    <glyph glyph-name="f_i" unicode="&#xf001;" horiz-adv-x="659" 
d="M443 765l-29 -128c-12 5 -25 8 -42 8c-58 0 -76 -48 -85 -94l-9 -53h112l-21 -120h-110l-67 -378h-157l67 378h-91l21 120h88l10 51c21 116 75 226 238 226c27 0 55 -3 75 -10zM535 0h-159l87 498h161zM658 665c0 -52 -39 -96 -93 -96c-50 0 -87 34 -87 80
c0 54 42 96 95 96c49 0 85 -35 85 -80z" />
    <glyph glyph-name="f_l" unicode="&#xf002;" horiz-adv-x="659" 
d="M443 765l-29 -128c-12 5 -25 8 -42 8c-58 0 -76 -48 -85 -94l-9 -53h112l-21 -120h-110l-67 -378h-157l67 378h-91l21 120h88l10 51c21 116 75 226 238 226c27 0 55 -3 75 -10zM536 0h-162l133 756h163z" />
    <glyph glyph-name="grave.cap" 
d="M173 908l109 -144h-120l-152 144h163z" />
    <glyph glyph-name="acute" unicode="&#xb4;" 
d="M416 716l-170 -144h-122l129 144h163z" />
    <glyph glyph-name="acute.cap" 
d="M416 908l-170 -144h-122l129 144h163z" />
    <glyph glyph-name="circumflex" unicode="&#x2c6;" 
d="M388 572h-125l-55 82l-83 -82h-127l148 144h146z" />
    <glyph glyph-name="circumflex.cap" 
d="M388 764h-125l-55 82l-83 -82h-127l148 144h146z" />
    <glyph glyph-name="caron" unicode="&#x2c7;" 
d="M413 716l-147 -144h-145l-98 144h126l54 -83l83 83h127z" />
    <glyph glyph-name="caron.cap" 
d="M413 908l-147 -144h-145l-98 144h126l54 -83l83 83h127z" />
    <glyph glyph-name="caron.alt" 
d="M307 708l-130 -195h-123l111 195h142z" />
    <glyph glyph-name="tilde" unicode="&#x2dc;" 
d="M403 708c-21 -70 -64 -131 -136 -131c-26 0 -50 7 -72 19c-27 14 -45 22 -65 22c-24 0 -40 -20 -50 -42h-71c20 69 63 129 136 129c28 0 52 -8 76 -20c25 -13 43 -20 62 -20c25 0 39 19 49 43h71z" />
    <glyph glyph-name="tilde.cap" 
d="M403 900c-21 -70 -64 -131 -136 -131c-26 0 -50 7 -72 19c-27 14 -45 22 -65 22c-24 0 -40 -20 -50 -42h-71c20 69 63 129 136 129c28 0 52 -8 76 -20c25 -13 43 -20 62 -20c25 0 39 19 49 43h71z" />
    <glyph glyph-name="dieresis" unicode="&#xa8;" 
d="M179 664c0 -47 -35 -86 -84 -86c-46 0 -78 30 -78 73c0 49 37 86 85 86c45 0 77 -31 77 -73zM398 664c0 -47 -35 -86 -84 -86c-45 0 -78 30 -78 73c0 49 37 86 86 86c44 0 76 -31 76 -73z" />
    <glyph glyph-name="dieresis.cap" 
d="M179 856c0 -47 -35 -86 -84 -86c-46 0 -78 30 -78 73c0 49 37 86 85 86c45 0 77 -31 77 -73zM398 856c0 -47 -35 -86 -84 -86c-45 0 -78 30 -78 73c0 49 37 86 86 86c44 0 76 -31 76 -73z" />
    <glyph glyph-name="macron" unicode="&#xaf;" 
d="M365 601h-333l14 84h334z" />
    <glyph glyph-name="macron.cap" 
d="M365 793h-333l14 84h334z" />
    <glyph glyph-name="uni02C9" unicode="&#x2c9;" 
d="M365 793h-333l14 84h334z" />
    <glyph glyph-name="breve" unicode="&#x2d8;" 
d="M391 716c-23 -103 -99 -144 -189 -144c-92 0 -157 39 -157 144h82c0 -21 10 -36 25 -45c15 -8 35 -12 55 -12c48 0 89 10 102 57h82z" />
    <glyph glyph-name="breve.cap" 
d="M391 908c-23 -103 -99 -144 -189 -144c-92 0 -157 39 -157 144h82c0 -43 39 -57 80 -57c48 0 89 10 102 57h82z" />
    <glyph glyph-name="ring" unicode="&#x2da;" 
d="M197 557c-55 0 -93 38 -93 89c0 68 50 123 119 123c55 0 93 -37 93 -88c0 -69 -50 -124 -119 -124zM267 674c0 27 -19 50 -49 50c-38 0 -65 -32 -65 -72c0 -28 18 -50 48 -50c39 0 66 32 66 72z" />
    <glyph glyph-name="ring.cap" 
d="M197 749c-55 0 -93 38 -93 89c0 68 50 123 119 123c55 0 93 -37 93 -88c0 -69 -50 -124 -119 -124zM267 866c0 27 -19 50 -49 50c-38 0 -65 -32 -65 -72c0 -28 18 -50 48 -50c39 0 66 32 66 72z" />
    <glyph glyph-name="hungarumlaut" unicode="&#x2dd;" 
d="M521 716l-171 -144h-121l129 144h163zM302 716l-171 -144h-121l128 144h164z" />
    <glyph glyph-name="hungarumlaut.cap" 
d="M521 908l-171 -144h-121l129 144h163zM302 908l-171 -144h-121l128 144h164z" />
    <glyph glyph-name="dotaccent" unicode="&#x2d9;" 
d="M292 664c0 -49 -37 -90 -88 -90c-47 0 -82 31 -82 76c0 51 40 90 90 90c46 0 80 -33 80 -76z" />
    <glyph glyph-name="dotaccent.cap" 
d="M292 856c0 -49 -37 -90 -88 -90c-47 0 -82 31 -82 76c0 51 40 90 90 90c46 0 80 -33 80 -76z" />
    <glyph glyph-name="cedilla" unicode="&#xb8;" 
d="M200 -135c0 -79 -84 -105 -152 -105c-41 0 -92 11 -120 25l32 59c23 -12 55 -18 81 -18c23 0 55 5 55 33c0 24 -22 29 -42 29c-12 0 -28 -2 -41 -6l-25 29l82 89h80l-58 -61c8 2 13 2 19 2c34 0 89 -17 89 -76z" />
    <glyph glyph-name="ogonek" unicode="&#x2db;" 
d="M147 -196c-35 -24 -75 -40 -119 -40c-53 0 -96 22 -96 83c0 64 74 119 131 157h89c-64 -46 -116 -91 -116 -131c0 -19 13 -27 33 -27c19 0 39 7 57 19z" />
    <glyph glyph-name="commaaccent" 
d="M237 -45l-130 -195h-123l111 195h142z" />
    <glyph glyph-name="commaaccent.alt" 
d="M102 572l130 195h123l-111 -195h-142z" />
    <glyph glyph-name="ellipsis" unicode="&#x2026;" horiz-adv-x="1000" 
d="M229 94c0 -55 -43 -101 -100 -101c-54 0 -92 35 -92 85c0 58 44 102 101 102c52 0 91 -37 91 -86zM563 94c0 -55 -43 -101 -100 -101c-54 0 -92 35 -92 85c0 58 44 102 101 102c52 0 91 -37 91 -86zM897 94c0 -55 -43 -101 -100 -101c-54 0 -92 35 -92 85
c0 58 44 102 101 102c52 0 91 -37 91 -86z" />
    <glyph glyph-name="uni00AD" unicode="&#xad;" horiz-adv-x="326" 
d="M268 197h-253l23 127h252z" />
    <glyph glyph-name="exclamdown" unicode="&#xa1;" horiz-adv-x="353" 
d="M88 272h164l-84 -472h-163zM95 416c0 55 42 100 97 100c53 0 91 -35 91 -84c0 -56 -44 -100 -99 -100c-52 0 -89 36 -89 84z" />
    <glyph glyph-name="questiondown" unicode="&#xbf;" horiz-adv-x="543" 
d="M115 164c49 33 66 51 73 94l4 26h152l-6 -38c-11 -71 -45 -106 -105 -151l-40 -30c-31 -23 -57 -46 -57 -85c0 -41 26 -61 70 -61c57 0 90 45 100 95l148 -26c-28 -128 -136 -206 -268 -206c-115 0 -216 46 -216 181c0 92 51 141 145 201zM187 417c0 54 42 99 97 99
c53 0 91 -35 91 -84c0 -55 -44 -99 -99 -99c-52 0 -89 36 -89 84z" />
    <glyph glyph-name="quoteleft" unicode="&#x2018;" horiz-adv-x="294" 
d="M324 708l-119 -270h-142l138 270h123z" />
    <glyph glyph-name="quoteright" unicode="&#x2019;" horiz-adv-x="294" 
d="M324 708l-138 -270h-123l119 270h142z" />
    <glyph glyph-name="quotedblleft" unicode="&#x201c;" horiz-adv-x="500" 
d="M530 708l-119 -270h-141l136 270h124zM324 708l-121 -270h-140l138 270h123z" />
    <glyph glyph-name="quotedblright" unicode="&#x201d;" horiz-adv-x="500" 
d="M530 708l-138 -270h-123l121 270h140zM322 708l-136 -270h-123l120 270h139z" />
    <glyph glyph-name="quotesinglbase" unicode="&#x201a;" horiz-adv-x="301" 
d="M228 144l-138 -271h-123l119 271h142z" />
    <glyph glyph-name="quotedblbase" unicode="&#x201e;" horiz-adv-x="501" 
d="M430 144l-137 -271h-124l121 271h140zM223 144l-136 -271h-123l119 271h140z" />
    <glyph glyph-name="guilsinglleft" unicode="&#x2039;" horiz-adv-x="317" 
d="M238 84l-102 -59l-119 233l201 229l83 -62l-148 -171z" />
    <glyph glyph-name="guilsinglright" unicode="&#x203a;" horiz-adv-x="317" 
d="M281 253l-202 -230l-84 64l150 174l-86 170l101 56z" />
    <glyph glyph-name="guillemotleft" unicode="&#xab;" horiz-adv-x="544" 
d="M17 257l201 230l84 -64l-150 -174l86 -170l-101 -56zM241 252l202 230l85 -64l-150 -174l84 -165l-101 -56z" />
    <glyph glyph-name="guillemotright" unicode="&#xbb;" horiz-adv-x="544" 
d="M506 250l-201 -230l-85 64l150 174l-85 170l100 55zM281 255l-201 -230l-85 64l150 173l-84 166l101 55z" />
    <glyph glyph-name="endash" unicode="&#x2013;" horiz-adv-x="400" 
d="M361 210h-340l18 103h340z" />
    <glyph glyph-name="emdash" unicode="&#x2014;" horiz-adv-x="600" 
d="M561 209h-540l18 104h540z" />
    <glyph glyph-name="bullet" unicode="&#x2022;" horiz-adv-x="500" 
d="M427 354c0 -98 -79 -177 -177 -177s-177 79 -177 177s79 177 177 177s177 -79 177 -177z" />
    <glyph glyph-name="periodcentered" unicode="&#xb7;" 
d="M245 301c0 -55 -42 -101 -99 -101c-54 0 -92 35 -92 85c0 58 44 102 101 102c52 0 90 -37 90 -86z" />
    <glyph glyph-name="uni2219" unicode="&#x2219;" 
d="M245 301c0 -55 -42 -101 -99 -101c-54 0 -92 35 -92 85c0 58 44 102 101 102c52 0 90 -37 90 -86z" />
    <glyph glyph-name="dagger" unicode="&#x2020;" horiz-adv-x="601" 
d="M575 385h-195l-90 -514h-139l91 514h-193l22 122h191l36 201h139l-35 -201h194z" />
    <glyph glyph-name="daggerdbl" unicode="&#x2021;" horiz-adv-x="601" 
d="M513 51h-190l-32 -180h-139l32 180h-189l21 121h189l42 236h-189l21 121h188l32 179h139l-32 -179h190l-20 -121h-191l-42 -236h190z" />
    <glyph glyph-name="section" unicode="&#xa7;" horiz-adv-x="616" 
d="M596 630l-120 -85c-22 35 -65 52 -106 52c-33 0 -78 -14 -78 -56c0 -35 27 -47 104 -78c80 -32 149 -70 149 -167c0 -80 -50 -123 -103 -147c22 -19 41 -54 41 -92c0 -157 -143 -205 -246 -205c-93 0 -208 39 -254 118l122 84c26 -48 88 -68 134 -68c36 0 79 10 79 53
c0 41 -31 57 -119 90c-79 30 -145 67 -145 161c0 76 56 129 112 150c-18 16 -36 47 -36 87c0 147 146 199 248 199c99 0 181 -37 218 -96zM265 245l89 -37c31 10 48 31 48 60c0 40 -30 59 -67 76l-82 36c-35 -8 -55 -36 -55 -65c0 -37 25 -53 67 -70z" />
    <glyph glyph-name="paragraph" unicode="&#xb6;" horiz-adv-x="617" 
d="M474 -129h-114l131 739h-87l-131 -739h-113l81 463c-116 3 -185 61 -185 150c0 114 75 224 280 224h285z" />
    <glyph glyph-name="brokenbar" unicode="&#xa6;" horiz-adv-x="241" 
d="M186 313h-131v362h131v-362zM186 -175h-131v362h131v-362z" />
    <glyph glyph-name="copyright" unicode="&#xa9;" horiz-adv-x="800" 
d="M780 353c0 -209 -170 -375 -379 -375c-210 0 -381 166 -381 375c0 210 171 377 381 377c209 0 379 -167 379 -377zM720 353c0 177 -143 321 -319 321c-177 0 -321 -144 -321 -321c0 -176 142 -319 319 -319c176 0 321 143 321 319zM585 510l-77 -70c-19 24 -54 39 -90 39
c-74 0 -114 -62 -114 -126s41 -128 120 -128c34 0 68 13 88 36l72 -76c-38 -40 -99 -63 -165 -63c-130 0 -237 83 -237 230c0 142 108 229 237 229c66 0 130 -26 166 -71z" />
    <glyph glyph-name="registered" unicode="&#xae;" horiz-adv-x="600" 
d="M319 521h26c16 0 28 10 28 23c0 11 -14 18 -28 18h-26v-41zM479 365h-100l-44 94h-16v-94h-88v266h114c57 0 121 -19 121 -86c0 -35 -17 -62 -48 -74zM112 492c0 126 103 227 229 227c125 0 227 -101 227 -227s-102 -225 -227 -225c-126 0 -229 99 -229 225zM148 492
c0 -105 86 -192 193 -192c106 0 191 87 191 192c0 106 -85 192 -191 192c-107 0 -193 -86 -193 -192z" />
    <glyph glyph-name="trademark" unicode="&#x2122;" horiz-adv-x="1000" 
d="M1028 296h-106v259h-2l-97 -259h-79l-96 259h-2v-259h-105v412h150l95 -260l92 260h150v-412zM466 613h-118v-317h-110v317h-118v95h346v-95z" />
    <glyph glyph-name="currency" unicode="&#xa4;" horiz-adv-x="950" 
d="M713 459c26 -40 42 -91 42 -150c0 -61 -16 -113 -45 -155l93 -93l-84 -84l-97 96c-41 -25 -92 -39 -146 -39c-51 0 -98 12 -147 41l-99 -98c-28 28 -55 56 -84 84l96 96c-27 40 -42 91 -42 152c0 57 14 106 39 147l-93 93l85 84l95 -94c43 26 94 41 150 41
s107 -14 150 -39l92 92l85 -84zM476 441c-75 0 -126 -61 -126 -132c0 -74 51 -134 126 -134c76 0 127 60 127 134c0 71 -52 132 -127 132z" />
    <glyph glyph-name="Euro" unicode="&#x20ac;" horiz-adv-x="644" 
d="M549 143l21 -123c-38 -22 -97 -39 -170 -39c-175 0 -271 102 -284 235h-97l52 103h45c1 15 6 45 13 71h-78l55 104h53c56 134 178 233 349 233c58 0 120 -12 156 -30l-58 -123c-28 16 -67 24 -110 24c-71 0 -137 -39 -171 -104h249l-50 -104h-241c-7 -18 -12 -52 -13 -71
h229l-50 -103h-177c8 -60 68 -105 150 -105c50 0 90 12 127 32z" />
    <glyph glyph-name="cent" unicode="&#xa2;" horiz-adv-x="644" 
d="M424 509c57 -6 105 -28 135 -66l-96 -101c-10 18 -35 34 -62 39l-46 -265c37 5 63 21 85 42l70 -99c-45 -40 -106 -69 -178 -73l-12 -65h-74l12 67c-117 18 -191 95 -191 215c0 158 112 297 283 307l11 64h75zM328 379c-63 -10 -113 -74 -113 -157c0 -47 19 -92 66 -102z
" />
    <glyph glyph-name="sterling" unicode="&#xa3;" horiz-adv-x="644" 
d="M654 661l-95 -108c-18 22 -50 37 -87 37c-83 0 -111 -72 -120 -123l-10 -52h159l-20 -113h-156l-29 -164h259l-24 -138h-516l24 138h95l30 164h-96l20 113h93l12 64c22 107 89 248 277 248c78 0 146 -27 184 -66z" />
    <glyph glyph-name="florin" unicode="&#x192;" horiz-adv-x="644" 
d="M540 436l-20 -113h-148l-103 -274c-46 -121 -109 -188 -229 -188c-42 0 -81 10 -113 28l66 120c14 -11 32 -16 47 -16c44 0 66 36 85 89l92 241h-114l20 113h134l30 78c40 105 91 209 237 209c55 0 99 -13 131 -34l-73 -119c-18 12 -38 16 -55 16c-47 0 -69 -37 -88 -85
l-25 -65h126z" />
    <glyph glyph-name="yen" unicode="&#xa5;" horiz-adv-x="644" 
d="M699 708l-228 -294h124l-18 -101h-180l-12 -66h180l-17 -101h-179l-25 -146h-153l25 146h-179l17 101h178l12 66h-178l18 101h133l-129 294h170l88 -262l175 262h178z" />
    <glyph glyph-name="ordfeminine" unicode="&#xaa;" horiz-adv-x="380" 
d="M274 554h-7c-44 0 -94 -6 -94 -38c0 -22 18 -28 35 -28c33 0 57 23 62 53zM261 459h-1c-19 -22 -45 -35 -83 -35c-52 0 -90 28 -90 76c0 84 76 112 191 112c1 3 1 6 1 10c0 20 -14 29 -41 29c-23 0 -51 -10 -72 -26l-39 55c40 31 87 43 123 43c81 0 118 -39 118 -93
c0 -13 -2 -24 -4 -37l-18 -106c-3 -19 -5 -44 -5 -56h-82c0 6 1 17 2 28z" />
    <glyph glyph-name="ordmasculine" unicode="&#xba;" horiz-adv-x="380" 
d="M390 599c0 -104 -73 -174 -173 -174c-85 0 -143 51 -143 125c0 101 71 174 172 174c83 0 144 -47 144 -125zM294 589c0 30 -20 52 -54 52c-42 0 -70 -37 -70 -80c0 -31 19 -53 53 -53c43 0 71 37 71 81z" />
    <glyph glyph-name="fraction" unicode="&#x2044;" horiz-adv-x="100" 
d="M342 695l-522 -729l-72 45l522 729z" />
    <glyph glyph-name="uni2215" unicode="&#x2215;" horiz-adv-x="100" 
d="M342 695l-522 -729l-72 45l522 729z" />
    <glyph glyph-name="onequarter" unicode="&#xbc;" horiz-adv-x="940" 
d="M762 695l-522 -729l-72 45l522 729zM362 708l-77 -435h-114l55 308l-84 -55l-42 81l160 101h102zM852 174l-16 -89h-59l-15 -85h-102l15 85h-201l16 90l218 260h129l-45 -261h60zM715 315h-3l-113 -141h91z" />
    <glyph glyph-name="onehalf" unicode="&#xbd;" horiz-adv-x="940" 
d="M884 322c0 -72 -41 -107 -102 -152l-101 -73h166l-17 -97h-314l16 92l191 147c32 24 50 47 50 69c0 27 -17 41 -47 41c-33 0 -53 -22 -63 -57l-101 22c26 81 91 129 174 129s148 -42 148 -121zM762 695l-522 -729l-72 45l522 729zM362 708l-77 -435h-114l55 308l-84 -55
l-42 81l160 101h102z" />
    <glyph glyph-name="threequarters" unicode="&#xbe;" horiz-adv-x="940" 
d="M762 695l-522 -729l-72 45l522 729zM852 174l-16 -89h-59l-15 -85h-102l15 85h-201l16 90l218 260h129l-45 -261h60zM715 315h-3l-113 -141h91zM209 541c48 0 76 17 76 54c0 23 -17 35 -41 35c-28 0 -48 -11 -62 -40l-90 36c33 66 93 94 159 94c80 0 143 -44 143 -116
c0 -54 -39 -90 -81 -101c39 -14 62 -46 62 -87c0 -101 -85 -147 -171 -147c-82 0 -142 40 -162 112l101 27c8 -32 33 -46 63 -46c36 0 59 19 59 50c0 35 -28 49 -72 49h-30l13 80h33z" />
    <glyph glyph-name="perthousand" unicode="&#x2030;" horiz-adv-x="1250" 
d="M1215 192c0 -115 -84 -205 -200 -205c-95 0 -163 61 -163 152c0 113 84 203 201 203c95 0 162 -60 162 -150zM1107 179c0 35 -23 64 -63 64c-50 0 -84 -40 -84 -92c0 -35 24 -65 62 -65c51 0 85 41 85 93zM818 192c0 -115 -84 -205 -200 -205c-95 0 -163 61 -163 152
c0 113 84 203 201 203c95 0 162 -60 162 -150zM710 179c0 35 -23 64 -63 64c-50 0 -84 -40 -84 -92c0 -35 24 -65 62 -65c51 0 85 41 85 93zM429 570c0 -115 -84 -205 -200 -205c-95 0 -163 61 -163 152c0 113 84 203 201 203c95 0 162 -60 162 -150zM321 556
c0 36 -23 65 -63 65c-50 0 -84 -40 -84 -92c0 -36 24 -65 62 -65c51 0 85 41 85 92zM718 694l-496 -729l-71 46l495 729z" />
    <glyph glyph-name="minus" unicode="&#x2212;" horiz-adv-x="666" 
d="M598 242h-530v123h530v-123z" />
    <glyph glyph-name="plusminus" unicode="&#xb1;" horiz-adv-x="666" 
d="M616 331h-212v-132h-130v132h-213v127h213v132h130v-132h212v-127zM616 31h-555v127h555v-127z" />
    <glyph glyph-name="multiply" unicode="&#xd7;" horiz-adv-x="666" 
d="M604 130l-94 -93l-177 173l-176 -173l-93 89l177 175l-178 174l94 91l177 -173l174 172l91 -87l-174 -173z" />
    <glyph glyph-name="divide" unicode="&#xf7;" horiz-adv-x="666" 
d="M246 489c0 46 40 84 87 84s86 -38 86 -84c0 -47 -39 -85 -86 -85s-87 38 -87 85zM246 117c0 46 40 84 87 84s86 -38 86 -84s-39 -85 -86 -85s-87 39 -87 85zM586 240h-507v127h507v-127z" />
    <glyph glyph-name="notequal" unicode="&#x2260;" horiz-adv-x="666" 
d="M569 110h-273l-74 -146l-115 56l47 90h-102v127h167l43 84h-210v127h275l75 145l115 -55l-47 -90h99v-127h-164l-43 -84h207v-127z" />
    <glyph glyph-name="approxequal" unicode="&#x2248;" horiz-adv-x="666" 
d="M580 468c-11 -122 -70 -192 -161 -192c-80 0 -185 64 -246 64c-28 0 -45 -27 -51 -55h-96c8 91 52 183 162 183c82 0 166 -59 245 -59c29 0 45 22 50 59h97zM579 247c-10 -86 -48 -184 -159 -184c-81 0 -188 65 -248 65c-28 0 -46 -26 -52 -62h-96c8 92 52 191 158 191
c83 0 169 -61 251 -61c27 0 42 22 49 51h97z" />
    <glyph glyph-name="lessequal" unicode="&#x2264;" horiz-adv-x="666" 
d="M587 18h-508v123h508v-123zM587 154l-508 214v103l508 214v-136l-306 -131l306 -127v-137z" />
    <glyph glyph-name="greaterequal" unicode="&#x2265;" horiz-adv-x="666" 
d="M79 18v123h508v-123h-508zM79 154v137l306 127l-306 131v136l508 -214v-103z" />
    <glyph glyph-name="logicalnot" unicode="&#xac;" horiz-adv-x="666" 
d="M606 145h-130v183h-425v123h555v-306z" />
    <glyph glyph-name="Delta" unicode="&#x2206;" horiz-adv-x="722" 
d="M-48 0l19 88l402 620h163l123 -607l-22 -101h-685zM417 526l-230 -385h294z" />
    <glyph glyph-name="Omega" unicode="&#x2126;" horiz-adv-x="777" 
d="M675 0h-296l37 213c112 25 158 117 158 212c0 82 -51 153 -146 153c-120 0 -194 -99 -194 -214c0 -79 37 -133 108 -150l-38 -214h-289l23 140h166l2 12c-83 24 -145 100 -145 219c0 170 130 355 385 355c187 0 301 -105 301 -257c0 -145 -81 -279 -217 -317l-2 -12h172z
" />
    <glyph glyph-name="mu" unicode="&#xb5;" horiz-adv-x="651" 
d="M584 116l-15 -113c-23 -8 -51 -15 -85 -15c-75 0 -102 37 -106 84h-3c-21 -39 -69 -85 -127 -85c-32 0 -62 13 -72 32h-2l-46 -259h-162l130 738h163l-47 -264c-2 -14 -5 -29 -5 -45c0 -36 13 -70 67 -70c56 0 93 49 105 115l47 264h160l-60 -339c-1 -6 -2 -14 -2 -19
c0 -17 8 -28 32 -28c11 0 18 1 28 4z" />
    <glyph glyph-name="degree" unicode="&#xb0;" horiz-adv-x="416" 
d="M408 558c0 -94 -74 -168 -168 -168s-168 74 -168 168s74 167 168 167s168 -73 168 -167zM328 558c0 48 -39 88 -88 88s-88 -40 -88 -88c0 -49 39 -88 88 -88s88 39 88 88z" />
    <glyph glyph-name="afii61289" unicode="&#x2113;" horiz-adv-x="500" 
d="M513 586c0 -110 -77 -203 -264 -323c-24 -96 -25 -111 -25 -123c0 -28 17 -41 40 -41c24 0 51 10 97 39h2l38 -90c-63 -43 -120 -62 -185 -62c-97 0 -148 53 -148 126c0 9 2 22 7 50l-58 -40h-2l-41 88l128 82l48 229c26 122 111 200 223 200c83 0 140 -61 140 -135z
M384 579c0 22 -11 40 -28 40c-20 0 -34 -19 -43 -59l-35 -162c61 50 106 119 106 181z" />
    <glyph glyph-name="estimated" unicode="&#x212e;" horiz-adv-x="500" 
d="M561 259h-404v-181c39 -39 87 -59 145 -59c83 0 143 36 193 120l35 -21c-61 -95 -123 -135 -228 -135c-157 0 -258 122 -258 276c0 155 101 276 258 276c154 0 258 -114 259 -276zM157 295h291v145c-42 40 -91 60 -147 60c-57 0 -105 -21 -144 -60v-145z" />
    <glyph glyph-name="infinity" unicode="&#x221e;" horiz-adv-x="837" 
d="M792 266c0 -105 -67 -191 -183 -191c-82 0 -141 49 -190 103c-51 -54 -103 -102 -188 -102c-114 0 -186 82 -186 189c0 104 68 187 182 187c87 0 143 -52 192 -109c48 57 105 110 191 110c114 0 182 -83 182 -187zM674 263c0 41 -25 71 -67 71c-43 0 -85 -41 -114 -72
c31 -34 71 -68 117 -68c40 0 64 30 64 69zM344 262c-31 31 -76 71 -117 71c-38 0 -64 -32 -64 -70c0 -41 26 -68 67 -68c42 0 84 35 114 67z" />
    <glyph glyph-name="partialdiff" unicode="&#x2202;" horiz-adv-x="666" 
d="M427 428c-1 71 -39 154 -129 154c-44 0 -89 -10 -137 -66l-77 112c62 62 134 93 215 93c223 0 290 -194 290 -362c0 -158 -44 -372 -273 -372c-145 0 -247 100 -247 242c0 132 89 228 240 228c44 0 83 -10 118 -29zM420 292c-30 23 -61 36 -92 36c-61 0 -93 -44 -93 -106
c0 -60 34 -102 84 -102c73 0 101 82 101 159v13z" />
    <glyph glyph-name="integral" unicode="&#x222b;" horiz-adv-x="633" 
d="M519 696c0 -37 -27 -67 -66 -67c-52 0 -51 52 -73 60c-12 -11 -11 -38 -11 -53c0 -28 2 -55 2 -83v-440c0 -37 0 -76 -2 -113c-4 -105 -32 -214 -166 -214c-50 0 -124 24 -124 92c0 7 2 13 5 18c7 27 32 46 62 46c51 0 49 -51 70 -58c13 7 12 33 12 47c1 27 -2 54 -2 80
v496c0 118 5 278 170 278c46 0 123 -23 123 -89z" />
    <glyph glyph-name="radical" unicode="&#x221a;" horiz-adv-x="569" 
d="M579 786l-214 -1000h-126l-145 300l-51 -24l-54 114l175 79l112 -239l158 770h145z" />
    <glyph glyph-name="summation" unicode="&#x2211;" horiz-adv-x="666" 
d="M644 -214h-618v111l292 395l-280 383v111h594v-133h-402l256 -360l-273 -374h431v-133z" />
    <glyph glyph-name="product" unicode="&#x220f;" horiz-adv-x="753" 
d="M695 -214h-152v867h-333v-867h-151v1000h636v-1000z" />
    <glyph glyph-name="lozenge" unicode="&#x25ca;" horiz-adv-x="606" 
d="M546 356l-184 -391h-120l-181 391l182 391h119zM405 356l-103 241l-101 -241l101 -241z" />
    <glyph glyph-name="uniF8FF" unicode="&#xf8ff;" horiz-adv-x="512" 
d="M278 117h-56v67h56v-67zM271 234h-46l-2 17c0 37 4 64 13 81s24 37 46 59c43 41 50 58 50 83c0 48 -35 85 -76 85s-74 -27 -82 -95l-50 8c9 95 63 137 135 137c71 0 124 -52 124 -131c0 -43 -12 -73 -63 -120c-25 -22 -39 -39 -43 -52s-6 -37 -6 -72zM50 50h412v617h-412
v-617zM0 718h512v-718h-512v718z" />
    <glyph glyph-name="uni03A9" unicode="&#x3a9;" horiz-adv-x="777" 
d="M675 0h-296l37 213c112 25 158 117 158 212c0 82 -51 153 -146 153c-120 0 -194 -99 -194 -214c0 -79 37 -133 108 -150l-38 -214h-289l23 140h166l2 12c-83 24 -145 100 -145 219c0 170 130 355 385 355c187 0 301 -105 301 -257c0 -145 -81 -279 -217 -317l-2 -12h172z
" />
    <glyph glyph-name="uni03BC" unicode="&#x3bc;" horiz-adv-x="651" 
d="M584 116l-15 -113c-23 -8 -51 -15 -85 -15c-75 0 -102 37 -106 84h-3c-21 -39 -69 -85 -127 -85c-32 0 -62 13 -72 32h-2l-46 -259h-162l130 738h163l-47 -264c-2 -14 -5 -29 -5 -45c0 -36 13 -70 67 -70c56 0 93 49 105 115l47 264h160l-60 -339c-1 -6 -2 -14 -2 -19
c0 -17 8 -28 32 -28c11 0 18 1 28 4z" />
    <glyph glyph-name="pi" unicode="&#x3c0;" horiz-adv-x="685" 
d="M365 172l37 198h-119l-110 -370h-158l117 370h-102l23 128h622l-23 -128h-99l-32 -172c-3 -17 -5 -29 -5 -43c0 -25 15 -43 50 -43c9 0 19 1 30 3l-18 -114c-25 -9 -51 -13 -79 -13c-75 0 -141 30 -141 122c0 14 2 37 7 62z" />
    <glyph glyph-name="uni0394" unicode="&#x394;" horiz-adv-x="722" 
d="M-48 0l19 88l402 620h163l123 -607l-22 -101h-685zM417 526l-230 -385h294z" />
    <glyph glyph-name="zero.denominator" horiz-adv-x="420" 
d="M221 443c110 0 148 -75 148 -157c0 -123 -52 -294 -207 -294c-110 0 -151 73 -151 156c0 124 55 295 210 295zM213 348c-54 0 -88 -95 -88 -186c0 -44 10 -75 44 -75c52 0 86 94 86 188c0 43 -9 73 -42 73z" />
    <glyph glyph-name="one.denominator" horiz-adv-x="420" 
d="M238 0h-114l55 308l-84 -55l-42 81l160 101h102z" />
    <glyph glyph-name="two.denominator" horiz-adv-x="420" 
d="M42 314c25 81 91 129 175 129c82 0 147 -42 147 -121c0 -72 -41 -107 -102 -152l-101 -73h166l-17 -97h-314l16 92l191 147c31 23 50 47 50 69c0 27 -17 41 -46 41c-34 0 -54 -22 -64 -57z" />
    <glyph glyph-name="three.denominator" horiz-adv-x="420" 
d="M163 264c48 0 76 17 76 54c0 23 -17 35 -41 35c-28 0 -48 -11 -62 -40l-90 36c33 66 93 94 159 94c80 0 143 -44 143 -116c0 -54 -39 -90 -81 -101c39 -14 62 -46 62 -87c0 -101 -85 -147 -171 -147c-82 0 -142 40 -162 112l101 27c8 -32 33 -46 63 -46c36 0 59 19 59 50
c0 35 -28 49 -72 49h-30l13 80h33z" />
    <glyph glyph-name="four.denominator" horiz-adv-x="420" 
d="M364 174l-16 -89h-59l-15 -85h-102l15 85h-201l16 90l218 260h129l-45 -261h60zM227 315h-3l-113 -141h91z" />
    <glyph glyph-name="five.denominator" horiz-adv-x="420" 
d="M344 157c0 -114 -91 -165 -174 -165c-82 0 -145 39 -166 107l101 33c9 -29 34 -47 63 -47c40 0 65 24 65 62c0 37 -26 56 -70 56c-30 0 -75 -10 -112 -24l55 256h261l-18 -95h-165l-12 -56c11 2 22 3 33 3c65 0 139 -35 139 -130z" />
    <glyph glyph-name="six.denominator" horiz-adv-x="420" 
d="M351 163c0 -91 -67 -171 -184 -171c-90 0 -161 48 -161 141c0 47 18 90 65 145l135 157h139l-137 -149l1 -1c5 1 12 2 16 2c81 0 126 -60 126 -124zM240 156c0 33 -24 53 -52 53c-45 0 -72 -32 -72 -73c0 -33 26 -52 55 -52c43 0 69 28 69 72z" />
    <glyph glyph-name="seven.denominator" horiz-adv-x="420" 
d="M144 0h-132l239 340h-190l17 95h314l-15 -85z" />
    <glyph glyph-name="eight.denominator" horiz-adv-x="420" 
d="M360 333c0 -60 -42 -94 -83 -107v-2c33 -15 60 -46 60 -88c0 -90 -72 -144 -174 -144c-66 0 -150 29 -150 122c0 63 46 104 97 118v2c-32 18 -50 47 -50 79c0 88 81 130 161 130c70 0 139 -33 139 -110zM203 266c28 0 52 20 52 51c0 25 -18 39 -43 39
c-31 0 -52 -20 -52 -49c0 -23 17 -41 43 -41zM169 80c40 0 63 24 63 57c0 28 -21 47 -50 47c-37 0 -63 -25 -63 -57c0 -33 26 -47 50 -47z" />
    <glyph glyph-name="nine.denominator" horiz-adv-x="420" 
d="M177 0h-139l137 148l-1 1c-4 -1 -14 -1 -16 -1c-80 0 -126 59 -126 124c0 91 67 171 184 171c90 0 161 -49 161 -142c0 -45 -18 -90 -65 -144zM267 299c0 33 -28 52 -56 52c-43 0 -68 -30 -68 -72c0 -33 23 -52 52 -52c44 0 72 30 72 72z" />
    <glyph glyph-name="zero.inferior" unicode="&#x2080;" horiz-adv-x="420" 
d="M195 298c110 0 148 -75 148 -157c0 -123 -52 -294 -207 -294c-110 0 -151 73 -151 156c0 124 55 295 210 295zM187 203c-54 0 -88 -95 -88 -186c0 -44 10 -75 44 -75c52 0 86 94 86 188c0 43 -9 73 -42 73z" />
    <glyph glyph-name="one.inferior" unicode="&#x2081;" horiz-adv-x="420" 
d="M212 -145h-114l55 308l-84 -55l-42 81l160 101h102z" />
    <glyph glyph-name="two.inferior" unicode="&#x2082;" horiz-adv-x="420" 
d="M16 169c25 81 91 129 175 129c82 0 147 -42 147 -121c0 -72 -41 -107 -102 -152l-101 -73h166l-17 -97h-314l16 92l191 147c31 23 50 47 50 69c0 27 -17 41 -46 41c-34 0 -54 -22 -64 -57z" />
    <glyph glyph-name="three.inferior" unicode="&#x2083;" horiz-adv-x="420" 
d="M137 119c48 0 76 17 76 54c0 23 -17 35 -41 35c-28 0 -48 -11 -62 -40l-90 36c33 66 93 94 159 94c80 0 143 -44 143 -116c0 -54 -39 -90 -81 -101c39 -14 62 -46 62 -87c0 -101 -85 -147 -171 -147c-82 0 -142 40 -162 112l101 27c8 -32 33 -46 63 -46c36 0 59 19 59 50
c0 35 -28 49 -72 49h-30l13 80h33z" />
    <glyph glyph-name="four.inferior" unicode="&#x2084;" horiz-adv-x="420" 
d="M338 29l-16 -89h-59l-15 -85h-102l15 85h-201l16 90l218 260h129l-45 -261h60zM201 170h-3l-113 -141h91z" />
    <glyph glyph-name="five.inferior" unicode="&#x2085;" horiz-adv-x="420" 
d="M318 12c0 -114 -91 -165 -174 -165c-82 0 -145 39 -166 107l101 33c9 -29 34 -47 63 -47c40 0 65 24 65 62c0 37 -26 56 -70 56c-30 0 -75 -10 -112 -24l55 256h261l-18 -95h-165l-12 -56c11 2 22 3 33 3c65 0 139 -35 139 -130z" />
    <glyph glyph-name="six.inferior" unicode="&#x2086;" horiz-adv-x="420" 
d="M325 18c0 -91 -67 -171 -184 -171c-90 0 -161 48 -161 141c0 47 18 90 65 145l135 157h139l-137 -149l1 -1c5 1 12 2 16 2c81 0 126 -60 126 -124zM214 11c0 33 -24 53 -52 53c-45 0 -72 -32 -72 -73c0 -33 26 -52 55 -52c43 0 69 28 69 72z" />
    <glyph glyph-name="seven.inferior" unicode="&#x2087;" horiz-adv-x="420" 
d="M118 -145h-132l239 340h-190l17 95h314l-15 -85z" />
    <glyph glyph-name="eight.inferior" unicode="&#x2088;" horiz-adv-x="420" 
d="M334 188c0 -60 -42 -94 -83 -107v-2c33 -15 60 -46 60 -88c0 -90 -72 -144 -174 -144c-66 0 -150 29 -150 122c0 63 46 104 97 118v2c-32 18 -50 47 -50 79c0 88 81 130 161 130c70 0 139 -33 139 -110zM177 121c28 0 52 20 52 51c0 25 -18 39 -43 39
c-31 0 -52 -20 -52 -49c0 -23 17 -41 43 -41zM143 -65c40 0 63 24 63 57c0 28 -21 47 -50 47c-37 0 -63 -25 -63 -57c0 -33 26 -47 50 -47z" />
    <glyph glyph-name="nine.inferior" unicode="&#x2089;" horiz-adv-x="420" 
d="M151 -145h-139l137 148l-1 1c-4 -1 -14 -1 -16 -1c-80 0 -126 59 -126 124c0 91 67 171 184 171c90 0 161 -49 161 -142c0 -45 -18 -90 -65 -144zM241 154c0 33 -28 52 -56 52c-43 0 -68 -30 -68 -72c0 -33 23 -52 52 -52c44 0 72 30 72 72z" />
    <glyph glyph-name="zero.numerator" horiz-adv-x="420" 
d="M269 716c110 0 148 -75 148 -157c0 -123 -52 -294 -207 -294c-110 0 -151 73 -151 156c0 124 55 295 210 295zM261 621c-54 0 -88 -95 -88 -186c0 -44 10 -75 44 -75c52 0 86 94 86 188c0 43 -9 73 -42 73z" />
    <glyph glyph-name="one.numerator" horiz-adv-x="420" 
d="M286 273h-114l55 308l-84 -55l-42 81l160 101h102z" />
    <glyph glyph-name="two.numerator" horiz-adv-x="420" 
d="M90 587c25 81 91 129 175 129c82 0 147 -42 147 -121c0 -72 -41 -107 -102 -152l-101 -73h166l-17 -97h-314l16 92l191 147c31 23 50 47 50 69c0 27 -17 41 -46 41c-34 0 -54 -22 -64 -57z" />
    <glyph glyph-name="three.numerator" horiz-adv-x="420" 
d="M211 537c48 0 76 17 76 54c0 23 -17 35 -41 35c-28 0 -48 -11 -62 -40l-90 36c33 66 93 94 159 94c80 0 143 -44 143 -116c0 -54 -39 -90 -81 -101c39 -14 62 -46 62 -87c0 -101 -85 -147 -171 -147c-82 0 -142 40 -162 112l101 27c8 -32 33 -46 63 -46c36 0 59 19 59 50
c0 35 -28 49 -72 49h-30l13 80h33z" />
    <glyph glyph-name="four.numerator" horiz-adv-x="420" 
d="M412 447l-16 -89h-59l-15 -85h-102l15 85h-201l16 90l218 260h129l-45 -261h60zM275 588h-3l-113 -141h91z" />
    <glyph glyph-name="five.numerator" horiz-adv-x="420" 
d="M392 430c0 -114 -91 -165 -174 -165c-82 0 -145 39 -166 107l101 33c9 -29 34 -47 63 -47c40 0 65 24 65 62c0 37 -26 56 -70 56c-30 0 -75 -10 -112 -24l55 256h261l-18 -95h-165l-12 -56c11 2 22 3 33 3c65 0 139 -35 139 -130z" />
    <glyph glyph-name="six.numerator" horiz-adv-x="420" 
d="M399 436c0 -91 -67 -171 -184 -171c-90 0 -161 48 -161 141c0 47 18 90 65 145l135 157h139l-137 -149l1 -1c5 1 12 2 16 2c81 0 126 -60 126 -124zM288 429c0 33 -24 53 -52 53c-45 0 -72 -32 -72 -73c0 -33 26 -52 55 -52c43 0 69 28 69 72z" />
    <glyph glyph-name="seven.numerator" horiz-adv-x="420" 
d="M192 273h-132l239 340h-190l17 95h314l-15 -85z" />
    <glyph glyph-name="eight.numerator" horiz-adv-x="420" 
d="M408 606c0 -60 -42 -94 -83 -107v-2c33 -15 60 -46 60 -88c0 -90 -72 -144 -174 -144c-66 0 -150 29 -150 122c0 63 46 104 97 118v2c-32 18 -50 47 -50 79c0 88 81 130 161 130c70 0 139 -33 139 -110zM251 539c28 0 52 20 52 51c0 25 -18 39 -43 39
c-31 0 -52 -20 -52 -49c0 -23 17 -41 43 -41zM217 353c40 0 63 24 63 57c0 28 -21 47 -50 47c-37 0 -63 -25 -63 -57c0 -33 26 -47 50 -47z" />
    <glyph glyph-name="nine.numerator" horiz-adv-x="420" 
d="M225 273h-139l137 148l-1 1c-4 -1 -14 -1 -16 -1c-80 0 -126 59 -126 124c0 91 67 171 184 171c90 0 161 -49 161 -142c0 -45 -18 -90 -65 -144zM315 572c0 33 -28 52 -56 52c-43 0 -68 -30 -68 -72c0 -33 23 -52 52 -52c44 0 72 30 72 72z" />
    <glyph glyph-name="zero.superior" unicode="&#x2070;" horiz-adv-x="420" 
d="M299 889c110 0 148 -75 148 -157c0 -123 -52 -294 -207 -294c-110 0 -151 73 -151 156c0 124 55 295 210 295zM291 794c-54 0 -88 -95 -88 -186c0 -44 10 -75 44 -75c52 0 86 94 86 188c0 43 -9 73 -42 73z" />
    <glyph glyph-name="onesuperior" unicode="&#xb9;" horiz-adv-x="420" 
d="M316 446h-114l55 308l-84 -55l-42 81l160 101h102z" />
    <glyph glyph-name="twosuperior" unicode="&#xb2;" horiz-adv-x="420" 
d="M120 760c25 81 91 129 175 129c82 0 147 -42 147 -121c0 -72 -41 -107 -102 -152l-101 -73h166l-17 -97h-314l16 92l191 147c31 23 50 47 50 69c0 27 -17 41 -46 41c-34 0 -54 -22 -64 -57z" />
    <glyph glyph-name="threesuperior" unicode="&#xb3;" horiz-adv-x="420" 
d="M241 710c48 0 76 17 76 54c0 23 -17 35 -41 35c-28 0 -48 -11 -62 -40l-90 36c33 66 93 94 159 94c80 0 143 -44 143 -116c0 -54 -39 -90 -81 -101c39 -14 62 -46 62 -87c0 -101 -85 -147 -171 -147c-82 0 -142 40 -162 112l101 27c8 -32 33 -46 63 -46c36 0 59 19 59 50
c0 35 -28 49 -72 49h-30l13 80h33z" />
    <glyph glyph-name="four.superior" unicode="&#x2074;" horiz-adv-x="420" 
d="M442 620l-16 -89h-59l-15 -85h-102l15 85h-201l16 90l218 260h129l-45 -261h60zM305 761h-3l-113 -141h91z" />
    <glyph glyph-name="five.superior" unicode="&#x2075;" horiz-adv-x="420" 
d="M422 603c0 -114 -91 -165 -174 -165c-82 0 -145 39 -166 107l101 33c9 -29 34 -47 63 -47c40 0 65 24 65 62c0 37 -26 56 -70 56c-30 0 -75 -10 -112 -24l55 256h261l-18 -95h-165l-12 -56c11 2 22 3 33 3c65 0 139 -35 139 -130z" />
    <glyph glyph-name="six.superior" unicode="&#x2076;" horiz-adv-x="420" 
d="M429 609c0 -91 -67 -171 -184 -171c-90 0 -161 48 -161 141c0 47 18 90 65 145l135 157h139l-137 -149l1 -1c5 1 12 2 16 2c81 0 126 -60 126 -124zM318 602c0 33 -24 53 -52 53c-45 0 -72 -32 -72 -73c0 -33 26 -52 55 -52c43 0 69 28 69 72z" />
    <glyph glyph-name="seven.superior" unicode="&#x2077;" horiz-adv-x="420" 
d="M222 446h-132l239 340h-190l17 95h314l-15 -85z" />
    <glyph glyph-name="eight.superior" unicode="&#x2078;" horiz-adv-x="420" 
d="M438 779c0 -60 -42 -94 -83 -107v-2c33 -15 60 -46 60 -88c0 -90 -72 -144 -174 -144c-66 0 -150 29 -150 122c0 63 46 104 97 118v2c-32 18 -50 47 -50 79c0 88 81 130 161 130c70 0 139 -33 139 -110zM281 712c28 0 52 20 52 51c0 25 -18 39 -43 39
c-31 0 -52 -20 -52 -49c0 -23 17 -41 43 -41zM247 526c40 0 63 24 63 57c0 28 -21 47 -50 47c-37 0 -63 -25 -63 -57c0 -33 26 -47 50 -47z" />
    <glyph glyph-name="nine.superior" unicode="&#x2079;" horiz-adv-x="420" 
d="M255 446h-139l137 148l-1 1c-4 -1 -14 -1 -16 -1c-80 0 -126 59 -126 124c0 91 67 171 184 171c90 0 161 -49 161 -142c0 -45 -18 -90 -65 -144zM345 745c0 33 -28 52 -56 52c-43 0 -68 -30 -68 -72c0 -33 23 -52 52 -52c44 0 72 30 72 72z" />
    <glyph glyph-name="interrobang" unicode="&#x203d;" horiz-adv-x="543" 
d="M331 224h-149l47 280h131l-25 -113h1c63 57 81 93 81 137c0 43 -29 74 -86 74c-60 0 -98 -40 -111 -87l-143 26c29 109 129 186 269 186c122 0 217 -54 217 -182c0 -95 -61 -157 -153 -218c-52 -34 -71 -57 -76 -86zM338 92c0 -55 -42 -100 -97 -100c-53 0 -91 35 -91 84
c0 56 44 100 99 100c52 0 89 -36 89 -84z" />
    <glyph glyph-name="afii61248" unicode="&#x2105;" horiz-adv-x="934" 
d="M240 352c-103 0 -173 62 -173 156c0 114 86 216 217 216c54 0 102 -17 135 -59l-79 -74c-13 18 -33 30 -60 30c-55 0 -92 -46 -92 -99c0 -34 18 -64 67 -64c31 0 54 14 71 32l61 -79c-40 -37 -87 -59 -147 -59zM221 -35l-71 46l546 729l72 -46zM878 206
c0 -119 -80 -217 -214 -217c-102 0 -180 59 -180 155c0 118 80 217 213 217c104 0 181 -60 181 -155zM759 194c0 38 -25 64 -68 64c-54 0 -88 -45 -88 -101c0 -37 23 -65 66 -65c56 0 90 46 90 102z" />
    <glyph glyph-name="published" unicode="&#x2117;" horiz-adv-x="800" 
d="M20 353c0 210 171 377 381 377c209 0 379 -167 379 -377c0 -209 -170 -375 -379 -375c-210 0 -381 166 -381 375zM80 353c0 -176 142 -319 319 -319c176 0 321 143 321 319c0 177 -143 321 -319 321c-177 0 -321 -144 -321 -321zM260 125v444h178c100 0 177 -44 177 -148
s-81 -151 -177 -151h-59v-145h-119zM379 366h55c40 0 64 18 64 54s-24 53 -62 53h-57v-107z" />
    <glyph glyph-name="uni0406" unicode="&#x406;" horiz-adv-x="315" 
d="M18 0l125 708h167l-125 -708h-167z" />
    <glyph glyph-name="uni0456" unicode="&#x456;" horiz-adv-x="294" 
d="M11 0l87 498h161l-89 -498h-159zM200 569c-50 0 -87 34 -87 80c0 54 42 96 95 96c49 0 85 -35 85 -80c0 -52 -39 -96 -93 -96z" />
    <glyph glyph-name="uni0408" unicode="&#x408;" horiz-adv-x="525" 
d="M187 -19c-120 0 -200 64 -221 165l154 50c5 -36 29 -65 66 -65c59 0 79 46 90 109l82 468h168l-84 -469c-20 -115 -66 -258 -255 -258z" />
    <glyph glyph-name="uni0458" unicode="&#x458;" horiz-adv-x="297" 
d="M-59 -244c-22 0 -51 4 -69 9l29 133c12 -4 25 -5 34 -5c49 0 66 36 75 88l91 517h161l-91 -517c-22 -121 -68 -225 -230 -225zM203 569c-50 0 -87 34 -87 80c0 54 42 96 95 96c49 0 85 -35 85 -80c0 -52 -39 -96 -93 -96z" />
    <glyph glyph-name="uni0410" unicode="&#x410;" horiz-adv-x="710" 
d="M-83 0l451 708h162l134 -708h-175l-24 141h-273l-85 -141h-190zM263 275h185l-37 251z" />
    <glyph glyph-name="uni0411" unicode="&#x411;" horiz-adv-x="662" 
d="M18 0l125 708h483l-24 -139h-317l-24 -134h88c165 0 257 -73 257 -194c0 -169 -123 -241 -311 -241h-277zM208 136h90c84 0 137 23 137 91c0 58 -44 75 -109 75h-88z" />
    <glyph glyph-name="uni0412" unicode="&#x412;" horiz-adv-x="664" 
d="M18 0l125 708h277c98 0 207 -40 207 -155c0 -95 -62 -158 -151 -181v-2c72 -12 127 -68 127 -151c0 -144 -126 -219 -303 -219h-282zM200 134h97c74 0 140 24 140 97c0 45 -36 72 -100 72h-108zM251 423h102c48 0 110 20 110 87c0 47 -41 65 -95 65h-91z" />
    <glyph glyph-name="uni0413" unicode="&#x413;" horiz-adv-x="508" 
d="M18 0l125 708h435l-26 -144h-269l-99 -564h-166z" />
    <glyph glyph-name="uni0414" unicode="&#x414;" horiz-adv-x="798" 
d="M-67 -151l52 296h50c79 71 140 181 175 383l32 180h526l-99 -563h78l-53 -296h-149l27 151h-465l-27 -151h-147zM229 145h274l73 419h-198l-10 -58c-33 -188 -90 -300 -139 -361z" />
    <glyph glyph-name="uni0415" unicode="&#x415;" horiz-adv-x="587" 
d="M18 0l125 708h453l-25 -142h-294l-24 -137h280l-24 -134h-280l-26 -152h322l-25 -143h-482z" />
    <glyph glyph-name="uni0416" unicode="&#x416;" horiz-adv-x="1032" 
d="M-80 0l371 381l-214 327h198l176 -297h3l52 297h163l-53 -297h3l271 297h212l-337 -337l236 -371h-201l-195 333h-3l-58 -333h-163l59 333h-3l-305 -333h-212z" />
    <glyph glyph-name="uni0417" unicode="&#x417;" horiz-adv-x="591" 
d="M240 -18c-142 0 -227 45 -280 113l115 103c26 -42 74 -79 151 -79c73 0 129 32 129 100c0 56 -55 76 -125 76h-52l24 134h53c71 0 135 16 135 87c0 46 -45 75 -96 75c-54 0 -108 -20 -149 -57l-78 103c64 53 145 89 246 89c162 0 241 -64 241 -177
c0 -90 -63 -167 -140 -184v-3c64 -21 110 -63 110 -137c0 -174 -152 -243 -284 -243z" />
    <glyph glyph-name="uni0418" unicode="&#x418;" horiz-adv-x="764" 
d="M18 0l125 708h164l-82 -466h4l354 466h175l-125 -708h-164l81 455h-3l-351 -455h-178z" />
    <glyph glyph-name="uni0419" unicode="&#x419;" horiz-adv-x="764" 
d="M18 0l125 708h164l-82 -466h4l354 466h175l-125 -708h-164l81 455h-3l-351 -455h-178zM462 764c-97 0 -163 47 -168 140l88 17c6 -42 28 -67 78 -67c49 0 87 25 101 67l83 -17c-22 -96 -97 -140 -182 -140z" />
    <glyph glyph-name="uni041A" unicode="&#x41a;" horiz-adv-x="679" 
d="M18 0l125 708h163l-53 -297h3l281 297h212l-347 -337l252 -371h-207l-205 333h-3l-58 -333h-163z" />
    <glyph glyph-name="uni041B" unicode="&#x41b;" horiz-adv-x="799" 
d="M56 -7c-29 0 -66 4 -87 9l30 143c14 -5 27 -7 41 -7c76 0 134 63 179 320l44 250h530l-124 -708h-166l99 564h-203l-20 -115c-60 -345 -153 -456 -323 -456z" />
    <glyph glyph-name="uni041C" unicode="&#x41c;" horiz-adv-x="953" 
d="M18 0l125 708h233l82 -459h4l239 459h247l-125 -708h-163l93 507h-4l-275 -507h-117l-94 507h-4l-85 -507h-156z" />
    <glyph glyph-name="uni041D" unicode="&#x41d;" horiz-adv-x="757" 
d="M18 0l125 708h166l-48 -269h276l47 269h167l-125 -708h-166l52 298h-275l-53 -298h-166z" />
    <glyph glyph-name="uni041E" unicode="&#x41e;" horiz-adv-x="831" 
d="M386 -18c-215 0 -345 123 -345 313c0 239 175 431 419 431c213 0 342 -123 342 -313c0 -239 -171 -431 -416 -431zM395 132c148 0 234 132 234 268c0 98 -64 178 -180 178c-145 0 -235 -133 -235 -268c0 -98 64 -178 181 -178z" />
    <glyph glyph-name="uni041F" unicode="&#x41f;" horiz-adv-x="753" 
d="M18 0l125 708h604l-125 -708h-166l100 564h-272l-100 -564h-166z" />
    <glyph glyph-name="uni0420" unicode="&#x420;" horiz-adv-x="637" 
d="M18 0l125 708h233c166 0 258 -74 258 -197c0 -169 -123 -242 -312 -242h-91l-48 -269h-165zM254 401h71c86 0 142 24 142 93c0 62 -47 79 -114 79h-68z" />
    <glyph glyph-name="uni0421" unicode="&#x421;" horiz-adv-x="684" 
d="M366 -19c-199 0 -325 123 -325 308c0 244 181 438 421 438c111 0 207 -44 252 -105l-123 -110c-22 34 -68 66 -134 66c-141 0 -238 -130 -238 -269c0 -97 61 -177 174 -177c62 0 120 28 163 77l93 -110c-56 -62 -147 -118 -283 -118z" />
    <glyph glyph-name="uni0422" unicode="&#x422;" horiz-adv-x="553" 
d="M138 0l99 564h-198l26 144h558l-25 -144h-194l-100 -564h-166z" />
    <glyph glyph-name="uni0423" unicode="&#x423;" horiz-adv-x="671" 
d="M83 -12c-56 0 -78 7 -90 11l24 139c15 -5 49 -8 68 -8c63 0 92 36 133 94l5 7l-169 477h187l99 -331l215 331h200l-362 -504c-90 -125 -164 -216 -310 -216z" />
    <glyph glyph-name="uni0424" unicode="&#x424;" horiz-adv-x="891" 
d="M302 -19l15 86c-197 23 -276 127 -276 278c0 164 119 307 381 321l11 61h166l-12 -65c196 -22 277 -126 277 -272c0 -169 -120 -312 -382 -326l-14 -83h-166zM342 212l54 308c-146 -15 -186 -96 -186 -172c0 -79 52 -125 132 -136zM508 209c145 16 187 98 187 181
c0 71 -53 118 -133 128z" />
    <glyph glyph-name="uni0425" unicode="&#x425;" horiz-adv-x="687" 
d="M-78 0l332 374l-156 334h187l89 -224l180 224h201l-300 -338l175 -370h-191l-105 253l-206 -253h-206z" />
    <glyph glyph-name="uni0426" unicode="&#x426;" horiz-adv-x="777" 
d="M524 -151l27 151h-533l125 708h166l-99 -563h272l99 563h166l-99 -563h77l-53 -296h-148z" />
    <glyph glyph-name="uni0427" unicode="&#x427;" horiz-adv-x="688" 
d="M391 0l46 262c-37 -10 -99 -22 -161 -22c-136 0 -197 59 -197 166c0 19 2 39 6 61l42 241h164l-38 -218c-2 -13 -4 -25 -4 -36c0 -54 31 -74 98 -74c38 0 90 7 114 18l55 310h166l-125 -708h-166z" />
    <glyph glyph-name="uni0428" unicode="&#x428;" horiz-adv-x="1093" 
d="M18 0l125 708h166l-99 -563h223l99 563h166l-99 -563h223l99 563h166l-125 -708h-944z" />
    <glyph glyph-name="uni0429" unicode="&#x429;" horiz-adv-x="1117" 
d="M864 -151l27 151h-873l125 708h166l-99 -563h223l99 563h166l-99 -563h223l99 563h166l-99 -563h77l-53 -296h-148z" />
    <glyph glyph-name="uni042A" unicode="&#x42a;" horiz-adv-x="715" 
d="M96 0l99 564h-156l25 144h323l-46 -260h63c170 0 264 -76 264 -201c0 -173 -126 -247 -319 -247h-253zM286 135h64c91 0 150 25 150 99c0 64 -49 82 -120 82h-62z" />
    <glyph glyph-name="uni042B" unicode="&#x42b;" horiz-adv-x="926" 
d="M18 0l125 708h166l-46 -260h63c170 0 264 -76 264 -201c0 -173 -126 -247 -319 -247h-253zM208 135h64c91 0 150 25 150 99c0 64 -49 82 -120 82h-62zM629 0l124 708h167l-125 -708h-166z" />
    <glyph glyph-name="uni042C" unicode="&#x42c;" horiz-adv-x="637" 
d="M18 0l125 708h166l-46 -260h63c170 0 264 -76 264 -201c0 -173 -126 -247 -319 -247h-253zM208 135h64c91 0 150 25 150 99c0 64 -49 82 -120 82h-62z" />
    <glyph glyph-name="uni042D" unicode="&#x42d;" horiz-adv-x="686" 
d="M251 -19c-126 0 -225 44 -270 105l123 110c24 -33 71 -66 150 -66c101 0 184 71 212 165h-261l24 134h253c-9 86 -76 150 -177 150c-62 0 -126 -28 -169 -77l-93 107c56 62 153 118 289 118c199 0 325 -129 325 -346c0 -212 -161 -400 -406 -400z" />
    <glyph glyph-name="uni042E" unicode="&#x42e;" horiz-adv-x="1104" 
d="M675 -18c-207 0 -324 122 -324 301v15h-114l-53 -298h-166l125 708h166l-48 -269h114c54 162 191 287 379 287c205 0 321 -123 321 -301c0 -232 -154 -443 -400 -443zM684 130c138 0 219 140 219 280c0 94 -55 170 -161 170c-135 0 -220 -141 -220 -280
c0 -94 56 -170 162 -170z" />
    <glyph glyph-name="uni042F" unicode="&#x42f;" horiz-adv-x="658" 
d="M-44 0l233 289c-72 33 -110 92 -110 172c0 173 126 247 319 247h253l-124 -708h-166l46 260h-58l-193 -260h-200zM367 392h62l32 181h-64c-91 0 -150 -25 -150 -99c0 -64 49 -82 120 -82z" />
    <glyph glyph-name="uni0430" unicode="&#x430;" horiz-adv-x="559" 
d="M161 -12c-70 0 -154 33 -154 132c0 160 176 194 342 194c2 12 2 18 2 23c0 39 -29 56 -78 56c-45 0 -94 -19 -131 -47l-66 92c59 48 143 75 219 75c119 0 208 -50 208 -161c0 -18 -2 -41 -6 -61l-34 -194c-6 -34 -10 -75 -10 -97h-142c0 14 2 36 4 53h-2
c-37 -44 -89 -65 -152 -65zM219 95c61 0 105 43 116 99l5 24h-14c-80 0 -173 -11 -173 -72c0 -40 33 -51 66 -51z" />
    <glyph glyph-name="uni0431" unicode="&#x431;" horiz-adv-x="632" 
d="M283 -14c-81 0 -142 22 -184 63c-42 42 -64 103 -64 182c0 99 34 267 90 356c43 69 107 112 215 126l110 14c64 8 84 17 99 48l110 -33c-37 -98 -90 -135 -177 -146l-130 -17c-88 -12 -143 -34 -178 -180h2c49 64 116 102 210 102c114 0 204 -79 204 -207
c0 -194 -141 -308 -307 -308zM291 118c88 0 141 90 141 159c0 54 -32 101 -98 101c-86 0 -142 -81 -142 -152c0 -56 32 -108 99 -108z" />
    <glyph glyph-name="uni0432" unicode="&#x432;" horiz-adv-x="585" 
d="M10 0l87 498h285c69 0 145 -28 145 -109c0 -67 -43 -111 -106 -127v-2c51 -8 89 -48 89 -106c0 -101 -88 -154 -213 -154h-287zM185 101h75c49 0 90 16 90 63c0 30 -21 48 -63 48h-82zM220 297h77c31 0 73 13 73 58c0 32 -28 43 -64 43h-68z" />
    <glyph glyph-name="uni0433" unicode="&#x433;" horiz-adv-x="439" 
d="M10 0l87 498h347l-21 -122h-187l-66 -376h-160z" />
    <glyph glyph-name="uni0434" unicode="&#x434;" horiz-adv-x="655" 
d="M-67 -125l42 249h47c43 44 81 111 105 244l23 130h443l-67 -374h69l-43 -249h-134l22 125h-352l-22 -125h-133zM188 124h178l46 252h-132l-10 -49c-21 -101 -48 -160 -82 -203z" />
    <glyph glyph-name="uni0435" unicode="&#x435;" horiz-adv-x="587" 
d="M265 -15c-138 0 -245 79 -245 224c0 170 125 304 300 304c131 0 220 -75 220 -210c0 -24 -5 -65 -13 -97h-357c-1 -4 -1 -7 -1 -9c0 -56 55 -89 110 -89c50 0 89 20 119 52l101 -79c-63 -67 -144 -96 -234 -96zM181 304h216c1 7 1 14 1 20c0 44 -33 77 -91 77
c-71 0 -116 -55 -126 -97z" />
    <glyph glyph-name="uni0436" unicode="&#x436;" horiz-adv-x="822" 
d="M-92 0l245 269l-128 229h182l110 -211h3l37 211h160l-37 -211h3l180 211h203l-232 -247l146 -251h-190l-118 225h-3l-39 -225h-160l39 225h-3l-192 -225h-206z" />
    <glyph glyph-name="uni0437" unicode="&#x437;" horiz-adv-x="504" 
d="M200 -19c-93 0 -170 27 -216 73l82 102c27 -27 72 -52 125 -52c50 0 86 12 86 56c0 36 -44 44 -97 44h-30l19 102h37c53 0 88 12 88 55c0 24 -29 33 -62 33c-44 0 -91 -12 -125 -42l-60 93c55 47 125 68 221 68c115 0 182 -42 182 -129c0 -57 -46 -109 -105 -122v-3
c52 -13 92 -46 92 -114c0 -106 -110 -164 -237 -164z" />
    <glyph glyph-name="uni0438" unicode="&#x438;" horiz-adv-x="639" 
d="M10 0l87 498h157l-51 -290h2l224 290h169l-87 -498h-155l49 283h-3l-219 -283h-173z" />
    <glyph glyph-name="uni0439" unicode="&#x439;" horiz-adv-x="639" 
d="M363 572c-86 0 -153 43 -157 131l82 16c6 -39 31 -59 78 -59c46 0 79 18 91 59l78 -16c-22 -90 -79 -131 -172 -131zM10 0l87 498h157l-51 -290h2l224 290h169l-87 -498h-155l49 283h-3l-219 -283h-173z" />
    <glyph glyph-name="uni043A" unicode="&#x43a;" horiz-adv-x="575" 
d="M10 0l87 498h160l-37 -211h3l193 211h203l-245 -247l159 -251h-190l-131 225h-3l-39 -225h-160z" />
    <glyph glyph-name="uni043B" unicode="&#x43b;" horiz-adv-x="640" 
d="M44 -6c-24 0 -73 4 -85 8l21 120c9 -3 21 -4 31 -4c48 0 89 38 117 195l33 185h438l-88 -498h-160l66 376h-123l-16 -93c-39 -217 -109 -289 -234 -289z" />
    <glyph glyph-name="uni043C" unicode="&#x43c;" horiz-adv-x="801" 
d="M10 0l87 498h209l69 -297h2l166 297h217l-87 -498h-153l57 327h-3l-185 -327h-100l-70 328h-3l-57 -328h-149z" />
    <glyph glyph-name="uni043D" unicode="&#x43d;" horiz-adv-x="620" 
d="M10 0l87 498h160l-31 -178h162l31 178h160l-87 -498h-160l34 198h-162l-34 -198h-160z" />
    <glyph glyph-name="uni043E" unicode="&#x43e;" horiz-adv-x="626" 
d="M273 -14c-144 0 -253 84 -253 219c0 165 116 308 304 308c147 0 256 -84 256 -219c0 -167 -116 -308 -307 -308zM281 118c86 0 141 73 141 159c0 60 -39 105 -105 105c-85 0 -140 -74 -140 -160c0 -60 38 -104 104 -104z" />
    <glyph glyph-name="uni043F" unicode="&#x43f;" horiz-adv-x="620" 
d="M10 0l87 498h482l-87 -498h-160l66 376h-162l-66 -376h-160z" />
    <glyph glyph-name="uni0440" unicode="&#x440;" horiz-adv-x="657" 
d="M-34 -240l130 738h152l-12 -69h3c37 51 97 81 163 81c131 0 209 -91 209 -214c0 -171 -116 -310 -276 -310c-73 0 -128 29 -155 76h-2l-52 -302h-160zM312 116c85 0 139 71 139 159c0 59 -36 106 -102 106c-81 0 -142 -74 -142 -160c0 -61 40 -105 105 -105z" />
    <glyph glyph-name="uni0441" unicode="&#x441;" horiz-adv-x="500" 
d="M262 -14c-145 0 -242 87 -242 219c0 162 122 308 306 308c75 0 147 -25 184 -77l-101 -96c-14 22 -48 43 -87 43c-86 0 -147 -73 -147 -157c0 -56 33 -107 108 -107c48 0 80 20 104 45l76 -102c-52 -46 -116 -76 -201 -76z" />
    <glyph glyph-name="uni0442" unicode="&#x442;" horiz-adv-x="503" 
d="M115 0l66 376h-149l21 122h455l-21 -122h-146l-66 -376h-160z" />
    <glyph glyph-name="uni0443" unicode="&#x443;" horiz-adv-x="556" 
d="M42 -240c-31 0 -60 4 -82 11l24 132c15 -6 32 -9 47 -9c46 0 68 24 92 67l24 41l-115 496h175l50 -326h2l165 326h170l-326 -573c-59 -104 -108 -165 -226 -165z" />
    <glyph glyph-name="uni0444" unicode="&#x444;" horiz-adv-x="812" 
d="M227 -240l40 230c-155 22 -247 100 -247 239c0 163 146 272 340 283l43 244h160l-44 -249c155 -20 247 -96 247 -239c0 -164 -144 -273 -340 -284l-39 -224h-160zM291 121l45 258c-99 -12 -154 -65 -154 -142c0 -60 23 -102 109 -116zM450 117c98 11 154 67 154 143
c0 60 -23 100 -109 115z" />
    <glyph glyph-name="uni0445" unicode="&#x445;" horiz-adv-x="562" 
d="M-77 0l252 261l-133 237h175l69 -136l119 136h187l-229 -240l144 -258h-177l-78 153l-136 -153h-193z" />
    <glyph glyph-name="uni0446" unicode="&#x446;" horiz-adv-x="642" 
d="M405 -125l22 125h-417l88 498h160l-66 -374h162l66 374h160l-66 -374h69l-44 -249h-134z" />
    <glyph glyph-name="uni0447" unicode="&#x447;" horiz-adv-x="589" 
d="M301 0l30 172c-28 -7 -72 -13 -129 -13c-103 0 -150 50 -150 130c0 14 1 28 4 43l29 166h156l-23 -135c-2 -12 -3 -22 -3 -30c0 -43 24 -52 62 -52c31 0 59 5 75 9l36 208h160l-87 -498h-160z" />
    <glyph glyph-name="uni0448" unicode="&#x448;" horiz-adv-x="900" 
d="M10 0l87 498h160l-65 -374h141l65 374h160l-65 -374h141l65 374h160l-87 -498h-762z" />
    <glyph glyph-name="uni0449" unicode="&#x449;" horiz-adv-x="922" 
d="M685 -125l22 125h-697l88 498h160l-66 -374h141l66 374h160l-66 -374h141l66 374h160l-66 -374h69l-44 -249h-134z" />
    <glyph glyph-name="uni044A" unicode="&#x44a;" horiz-adv-x="638" 
d="M84 0l65 376h-117l21 122h278l-28 -163h83c127 0 198 -57 198 -150c0 -130 -94 -185 -239 -185h-261zM263 108h62c61 0 100 17 100 66c0 43 -33 55 -80 55h-61z" />
    <glyph glyph-name="uni044B" unicode="&#x44b;" horiz-adv-x="835" 
d="M10 0l87 498h160l-28 -163h78c127 0 198 -57 198 -150c0 -130 -94 -185 -239 -185h-256zM189 108h57c61 0 100 17 100 66c0 43 -33 55 -80 55h-56zM547 0l87 498h160l-87 -498h-160z" />
    <glyph glyph-name="uni044C" unicode="&#x44c;" horiz-adv-x="564" 
d="M10 0l87 498h160l-28 -163h83c127 0 198 -57 198 -150c0 -130 -94 -185 -239 -185h-261zM189 108h62c61 0 100 17 100 66c0 43 -33 55 -80 55h-61z" />
    <glyph glyph-name="uni044D" unicode="&#x44d;" horiz-adv-x="508" 
d="M163 -18c-92 0 -158 31 -195 71l82 102c24 -26 52 -44 111 -44c52 0 116 31 133 93h-172l18 104h164c-8 47 -51 82 -111 82c-48 0 -92 -21 -118 -46l-63 106c47 37 127 64 201 64c156 0 249 -88 249 -234c0 -172 -124 -298 -299 -298z" />
    <glyph glyph-name="uni044E" unicode="&#x44e;" horiz-adv-x="863" 
d="M522 -14c-135 0 -239 81 -242 212h-76l-34 -198h-160l87 498h160l-31 -178h74c41 112 141 194 272 194c144 0 245 -93 245 -219c0 -158 -108 -309 -295 -309zM659 278c0 59 -32 105 -95 105c-72 0 -128 -74 -128 -161c0 -54 31 -104 94 -104c82 0 129 85 129 160z" />
    <glyph glyph-name="uni044F" unicode="&#x44f;" horiz-adv-x="601" 
d="M-15 0l155 185c-52 25 -80 69 -80 128c0 130 94 185 239 185h261l-87 -498h-160l29 163h-45l-123 -163h-189zM292 268h68l22 126h-70c-63 0 -104 -18 -104 -69c0 -45 35 -57 84 -57z" />
    <glyph glyph-name="uni0490" unicode="&#x490;" horiz-adv-x="508" 
d="M18 0l125 708h299l24 132h136l-50 -276h-269l-99 -564h-166z" />
    <glyph glyph-name="uni0491" unicode="&#x491;" horiz-adv-x="439" 
d="M10 0l87 498h228l21 115h119l-43 -241h-187l-65 -372h-160z" />
    <glyph glyph-name="uni0403" unicode="&#x403;" horiz-adv-x="508" 
d="M544 908l-170 -144h-122l129 144h163zM18 0l125 708h435l-26 -144h-269l-99 -564h-166z" />
    <glyph glyph-name="uni0453" unicode="&#x453;" horiz-adv-x="439" 
d="M498 716l-170 -144h-122l129 144h163zM10 0l87 498h347l-21 -122h-187l-66 -376h-160z" />
    <glyph glyph-name="uni0405" unicode="&#x405;" horiz-adv-x="585" 
d="M239 -19c-100 0 -208 37 -265 110l123 100c28 -43 89 -72 145 -72c58 0 114 24 114 86c0 49 -44 74 -110 97c-92 31 -168 76 -168 190c0 144 128 235 286 235c83 0 175 -33 221 -91l-113 -100c-26 36 -68 55 -117 55c-45 0 -107 -24 -107 -85c0 -40 33 -60 89 -80
c122 -43 194 -101 194 -208c0 -170 -156 -237 -292 -237z" />
    <glyph glyph-name="uni0455" unicode="&#x455;" horiz-adv-x="464" 
d="M179 -18c-92 0 -166 33 -211 86l100 91c25 -37 71 -57 115 -57c43 0 71 17 71 45c0 27 -24 39 -71 53c-92 28 -142 62 -142 140c0 109 105 173 225 173c77 0 149 -26 189 -77l-101 -85c-19 26 -52 46 -97 46c-35 0 -69 -12 -69 -44c0 -23 21 -33 65 -45
c93 -25 151 -65 151 -150c0 -121 -113 -176 -225 -176z" />
    <glyph glyph-name="uni040C" unicode="&#x40c;" horiz-adv-x="679" 
d="M631 908l-170 -144h-122l129 144h163zM18 0l125 708h163l-53 -297h3l281 297h212l-347 -337l252 -371h-207l-205 333h-3l-58 -333h-163z" />
    <glyph glyph-name="uni045C" unicode="&#x45c;" horiz-adv-x="575" 
d="M560 716l-170 -144h-122l129 144h163zM10 0l87 498h160l-37 -211h3l193 211h203l-245 -247l159 -251h-190l-131 225h-3l-39 -225h-160z" />
    <glyph glyph-name="uni0407" unicode="&#x407;" horiz-adv-x="315" 
d="M18 0l125 708h167l-125 -708h-167zM211 856c0 -47 -35 -86 -84 -86c-46 0 -78 30 -78 73c0 49 37 86 85 86c45 0 77 -31 77 -73zM430 856c0 -47 -35 -86 -84 -86c-45 0 -78 30 -78 73c0 49 37 86 86 86c44 0 76 -31 76 -73z" />
    <glyph glyph-name="uni0457" unicode="&#x457;" horiz-adv-x="294" 
d="M172 664c0 -47 -35 -86 -84 -86c-46 0 -78 30 -78 73c0 49 37 86 85 86c45 0 77 -31 77 -73zM391 664c0 -47 -35 -86 -84 -86c-45 0 -78 30 -78 73c0 49 37 86 86 86c44 0 76 -31 76 -73zM172 0h-159l87 498h161z" />
    <glyph glyph-name="uni040E" unicode="&#x40e;" horiz-adv-x="671" 
d="M83 -12c-56 0 -78 7 -90 11l24 139c15 -5 49 -8 68 -8c63 0 92 36 133 94l5 7l-169 477h187l99 -331l215 331h200l-362 -504c-90 -125 -164 -216 -310 -216zM418 764c-97 0 -163 47 -168 140l88 17c6 -42 28 -67 78 -67c49 0 87 25 101 67l83 -17
c-22 -96 -97 -140 -182 -140z" />
    <glyph glyph-name="uni045E" unicode="&#x45e;" horiz-adv-x="556" 
d="M323 572c-86 0 -153 43 -157 131l82 16c6 -39 31 -59 78 -59c46 0 79 18 91 59l78 -16c-22 -90 -79 -131 -172 -131zM42 -240c-31 0 -60 4 -82 11l24 132c15 -6 32 -9 47 -9c46 0 68 24 92 67l24 41l-115 496h175l50 -326h2l165 326h170l-326 -573
c-59 -104 -108 -165 -226 -165z" />
    <glyph glyph-name="uni040F" unicode="&#x40f;" horiz-adv-x="753" 
d="M216 -151l27 151h-225l125 708h166l-99 -563h272l99 563h166l-125 -708h-231l-27 -151h-148z" />
    <glyph glyph-name="uni045F" unicode="&#x45f;" horiz-adv-x="620" 
d="M162 -125l22 125h-174l88 498h160l-66 -374h162l66 374h160l-88 -498h-174l-22 -125h-134z" />
    <glyph glyph-name="uni0409" unicode="&#x409;" horiz-adv-x="1122" 
d="M56 -7c-29 0 -66 4 -87 9l30 143c14 -5 27 -7 41 -7c76 0 134 63 179 320l44 250h530l-46 -260h64c170 0 264 -76 264 -201c0 -173 -126 -247 -319 -247h-253l99 564h-203l-20 -115c-60 -345 -153 -456 -323 -456zM692 135h65c91 0 150 25 150 99c0 64 -49 82 -120 82
h-63z" />
    <glyph glyph-name="uni0459" unicode="&#x459;" horiz-adv-x="905" 
d="M44 -6c-24 0 -73 4 -85 8l21 120c9 -3 21 -4 31 -4c48 0 89 38 117 195l33 185h438l-29 -163h83c127 0 198 -57 198 -150c0 -130 -94 -185 -239 -185h-261l66 376h-123l-16 -93c-39 -217 -109 -289 -234 -289zM530 108h62c61 0 100 17 100 66c0 43 -33 55 -80 55h-61z
" />
    <glyph glyph-name="uni040A" unicode="&#x40a;" horiz-adv-x="1095" 
d="M18 0l125 708h166l-48 -269h276l47 269h167l-48 -269h88c165 0 257 -77 257 -198c0 -169 -123 -241 -311 -241h-277l52 298h-275l-53 -298h-166zM650 136h90c84 0 137 23 137 91c0 58 -44 75 -109 75h-89z" />
    <glyph glyph-name="uni045A" unicode="&#x45a;" horiz-adv-x="886" 
d="M10 0l87 498h160l-30 -173h162l30 173h160l-30 -173h91c123 0 192 -55 192 -145c0 -127 -91 -180 -232 -180h-268l36 208h-162l-36 -208h-160zM511 111h69c57 0 93 16 93 62c0 40 -30 51 -75 51h-67z" />
    <glyph glyph-name="uni0404" unicode="&#x404;" horiz-adv-x="686" 
d="M366 -19c-199 0 -325 129 -325 327c0 231 171 419 421 419c111 0 210 -44 255 -105l-123 -110c-24 33 -71 66 -137 66c-108 0 -183 -64 -219 -149h263l-24 -134h-263c5 -94 78 -166 179 -166c62 0 126 28 169 77l93 -107c-56 -62 -153 -118 -289 -118z" />
    <glyph glyph-name="uni0454" unicode="&#x454;" horiz-adv-x="508" 
d="M269 -18c-156 0 -249 88 -249 234c0 172 124 298 299 298c92 0 158 -31 195 -71l-82 -100c-24 26 -52 44 -111 44c-63 0 -111 -34 -128 -79h171l-18 -104h-170c4 -55 46 -92 113 -92c48 0 87 21 113 46l68 -112c-47 -37 -127 -64 -201 -64z" />
    <glyph glyph-name="uni2116" unicode="&#x2116;" horiz-adv-x="1058" 
d="M18 0l125 708h176l150 -433h3l77 433h160l-125 -708h-179l-149 422h-4l-74 -422h-160zM724 286l15 85h289l-15 -85h-289zM903 419c-85 0 -143 51 -143 125c0 101 71 174 172 174c83 0 144 -47 144 -125c0 -104 -73 -174 -173 -174zM909 502c43 0 71 37 71 81
c0 30 -20 52 -54 52c-42 0 -70 -37 -70 -80c0 -31 19 -53 53 -53z" />
    <glyph glyph-name="uni040B" unicode="&#x40b;" horiz-adv-x="823" 
d="M138 0l99 565h-198l26 143h558l-25 -143h-194l-29 -163c38 10 100 22 162 22c135 0 196 -59 196 -165c0 -20 -2 -41 -6 -63l-35 -196h-166l31 174c2 14 3 26 3 37c0 53 -29 73 -95 73c-38 0 -88 -7 -114 -18l-47 -266h-166z" />
    <glyph glyph-name="uni0402" unicode="&#x402;" horiz-adv-x="791" 
d="M466 -10c-31 0 -71 5 -91 10l24 129c13 -4 36 -7 51 -7c72 0 127 29 127 100c0 46 -37 72 -115 72c-36 0 -82 -7 -109 -17l-49 -277h-166l99 564h-198l26 144h558l-25 -144h-194l-29 -161c38 10 99 21 159 21c140 0 210 -77 210 -190c0 -194 -136 -244 -278 -244z" />
    <glyph glyph-name="uni045B" unicode="&#x45b;" horiz-adv-x="615" 
d="M10 0l99 564h-65l16 95h66l17 97h161l-17 -97h137l-16 -95h-138l-23 -131h2c28 41 81 78 148 78c111 0 159 -70 159 -151c0 -18 -1 -37 -5 -54l-54 -306h-160l47 270c3 14 5 30 5 42c0 37 -17 67 -66 67c-58 0 -94 -50 -105 -111l-48 -268h-160z" />
    <glyph glyph-name="uni0452" unicode="&#x452;" horiz-adv-x="615" 
d="M256 -240c-27 0 -55 3 -75 10l29 128c12 -5 25 -8 42 -8c58 0 74 48 82 94l50 286c2 14 5 30 5 42c0 37 -17 67 -66 67c-58 0 -94 -50 -105 -111l-48 -268h-160l99 564h-65l16 95h66l17 97h161l-17 -97h137l-16 -95h-138l-23 -131h2c28 41 81 78 148 78
c111 0 159 -70 159 -151c0 -18 -1 -37 -5 -54l-57 -320c-21 -116 -75 -226 -238 -226z" />
    <glyph glyph-name="uni0401" unicode="&#x401;" horiz-adv-x="587" 
d="M18 0l125 708h453l-25 -142h-294l-24 -137h280l-24 -134h-280l-26 -152h322l-25 -143h-482zM362 856c0 -47 -35 -86 -84 -86c-46 0 -78 30 -78 73c0 49 37 86 85 86c45 0 77 -31 77 -73zM581 856c0 -47 -35 -86 -84 -86c-45 0 -78 30 -78 73c0 49 37 86 86 86
c44 0 76 -31 76 -73z" />
    <glyph glyph-name="uni0451" unicode="&#x451;" horiz-adv-x="587" 
d="M329 664c0 -47 -35 -86 -84 -86c-46 0 -78 30 -78 73c0 49 37 86 85 86c45 0 77 -31 77 -73zM548 664c0 -47 -35 -86 -84 -86c-45 0 -78 30 -78 73c0 49 37 86 86 86c44 0 76 -31 76 -73zM265 -15c-138 0 -245 79 -245 224c0 170 125 304 300 304c131 0 220 -75 220 -210
c0 -24 -5 -65 -13 -97h-357c-1 -4 -1 -7 -1 -9c0 -56 55 -89 110 -89c50 0 89 20 119 52l101 -79c-63 -67 -144 -96 -234 -96zM181 304h216c1 7 1 14 1 20c0 44 -33 77 -91 77c-71 0 -116 -55 -126 -97z" />
    <glyph glyph-name="uni0400" unicode="&#x400;" horiz-adv-x="587" 
d="M18 0l125 708h453l-25 -142h-294l-24 -137h280l-24 -134h-280l-26 -152h322l-25 -143h-482zM368 908l109 -144h-120l-152 144h163z" />
    <glyph glyph-name="uni0450" unicode="&#x450;" horiz-adv-x="587" 
d="M288 716l109 -144h-120l-152 144h163zM265 -15c-138 0 -245 79 -245 224c0 170 125 304 300 304c131 0 220 -75 220 -210c0 -24 -5 -65 -13 -97h-357c-1 -4 -1 -7 -1 -9c0 -56 55 -89 110 -89c50 0 89 20 119 52l101 -79c-63 -67 -144 -96 -234 -96zM181 304h216
c1 7 1 14 1 20c0 44 -33 77 -91 77c-71 0 -116 -55 -126 -97z" />
    <glyph glyph-name="uni040D" unicode="&#x40d;" horiz-adv-x="764" 
d="M18 0l125 708h164l-82 -466h4l354 466h175l-125 -708h-164l81 455h-3l-351 -455h-178zM414 908l109 -144h-120l-152 144h163z" />
    <glyph glyph-name="uni045D" unicode="&#x45d;" horiz-adv-x="639" 
d="M329 716l109 -144h-120l-152 144h163zM10 0l87 498h157l-51 -290h2l224 290h169l-87 -498h-155l49 283h-3l-219 -283h-173z" />
    <glyph glyph-name="uni2010" unicode="&#x2010;" horiz-adv-x="326" 
d="M268 197h-253l23 127h252z" />
    <glyph glyph-name="cyrbreve" 
d="M209 572c-86 0 -153 43 -157 131l82 16c6 -39 31 -59 78 -59c46 0 79 18 91 59l78 -16c-22 -90 -79 -131 -172 -131z" />
    <glyph glyph-name="cyrbreve.cap" 
d="M209 764c-97 0 -163 47 -168 140l88 17c6 -42 28 -67 78 -67c49 0 87 25 101 67l83 -17c-22 -96 -97 -140 -182 -140z" />
    <glyph glyph-name="exclam.sc" horiz-adv-x="330" 
d="M224 220h-160l60 343h161zM221 87c0 -55 -40 -99 -96 -99c-53 0 -89 34 -89 83c0 56 42 99 97 99c52 0 88 -35 88 -83z" />
    <glyph glyph-name="dollar.sc" horiz-adv-x="570" 
d="M374 617l-9 -54c69 -8 121 -30 156 -61l-107 -99c-18 21 -43 32 -70 36l-16 -94c99 -30 155 -75 155 -159c0 -120 -93 -187 -223 -189l-10 -57h-70l10 57c-64 3 -140 38 -175 81l111 93c23 -30 57 -46 86 -49l18 107c-102 36 -149 71 -149 155c0 106 89 176 214 180l8 53
h71zM263 362l14 79c-36 -3 -52 -20 -52 -42c0 -20 12 -29 38 -37zM297 212l-17 -93c34 3 54 23 54 47c0 19 -11 36 -37 46z" />
    <glyph glyph-name="percent.sc" horiz-adv-x="800" 
d="M262 434c0 25 -15 46 -45 46c-33 0 -54 -29 -54 -64c0 -26 16 -45 44 -45c35 0 55 28 55 63zM196 274c-92 0 -143 54 -143 131c0 96 70 171 175 171c93 0 143 -54 143 -130c0 -96 -69 -172 -175 -172zM631 148c0 25 -15 46 -45 46c-33 0 -54 -29 -54 -64
c0 -26 16 -45 44 -45c35 0 55 28 55 63zM565 -12c-92 0 -143 54 -143 131c0 96 70 171 175 171c93 0 143 -54 143 -130c0 -96 -69 -172 -175 -172zM646 547l-435 -581l-70 45l438 586z" />
    <glyph glyph-name="ampersand.sc" horiz-adv-x="671" 
d="M635 299l-148 -159l119 -140h-191l-35 42c-41 -35 -99 -58 -163 -58c-113 0 -194 55 -194 156c0 86 50 146 137 179c-22 29 -32 63 -32 99c0 95 83 161 188 161c96 0 170 -48 170 -135c0 -73 -43 -127 -127 -163l41 -48l57 66h178zM348 427c0 21 -14 37 -35 37
c-27 0 -45 -19 -45 -45c0 -18 8 -38 23 -54c42 16 57 38 57 62zM300 138l-70 86c-31 -10 -52 -34 -52 -63c0 -33 25 -50 55 -50c25 0 46 8 67 27z" />
    <glyph glyph-name="parenleft.sc" horiz-adv-x="291" 
d="M196 -38l-113 -45c-45 81 -70 180 -70 273c0 156 68 317 195 454l96 -61c-109 -127 -164 -266 -164 -393c0 -79 20 -157 56 -228z" />
    <glyph glyph-name="parenright.sc" horiz-adv-x="291" 
d="M81 599l113 45c45 -81 70 -180 70 -273c0 -156 -68 -317 -195 -454l-96 61c109 127 164 266 164 393c0 79 -20 157 -56 228z" />
    <glyph glyph-name="bracketleft.sc" horiz-adv-x="291" 
d="M163 -70h-196l123 701h196l-17 -97h-73l-89 -507h73z" />
    <glyph glyph-name="backslash.sc" horiz-adv-x="352" 
d="M346 -7l-111 -37l-244 613l111 39z" />
    <glyph glyph-name="bracketright.sc" horiz-adv-x="291" 
d="M114 631h196l-123 -701h-197l18 97h73l89 507h-73z" />
    <glyph glyph-name="braceleft.sc" horiz-adv-x="291" 
d="M191 -70h-76c-64 0 -101 37 -101 93c0 9 2 21 4 33l20 116c1 6 2 14 2 21c0 25 -18 36 -46 36l18 102c32 1 57 12 63 49l23 131c13 74 60 120 132 120h84l-17 -98h-43c-23 0 -34 -12 -38 -35l-22 -123c-10 -59 -53 -87 -100 -94l-1 -2c40 -10 68 -40 68 -85
c0 -6 -1 -13 -3 -26l-17 -97c-1 -7 -2 -13 -2 -18c0 -15 7 -25 26 -25h43z" />
    <glyph glyph-name="slash.sc" horiz-adv-x="352" 
d="M397 568l-352 -612l-104 40l351 612z" />
    <glyph glyph-name="braceright.sc" horiz-adv-x="291" 
d="M85 631h76c64 0 101 -37 101 -93c0 -9 -2 -21 -4 -33l-20 -116c-1 -6 -2 -14 -2 -21c0 -25 18 -36 46 -36l-18 -102c-32 -1 -57 -12 -63 -49l-23 -131c-13 -74 -60 -120 -132 -120h-84l17 98h43c23 0 34 12 38 35l22 123c10 59 53 87 100 94l1 2c-40 10 -68 40 -68 85
c0 6 1 13 3 26l17 97c1 7 2 13 2 18c0 15 -7 25 -26 25h-43z" />
    <glyph glyph-name="zero.sc" horiz-adv-x="570" 
d="M319 579c144 0 202 -96 202 -212c0 -161 -78 -383 -277 -383c-146 0 -208 91 -208 207c0 163 84 388 283 388zM306 438c-57 0 -107 -128 -107 -234c0 -51 17 -78 52 -78c56 0 107 123 107 233c0 43 -14 79 -52 79z" />
    <glyph glyph-name="one.sc" horiz-adv-x="570" 
d="M350 0h-163l67 375l-117 -74l-61 121l221 141h152z" />
    <glyph glyph-name="two.sc" horiz-adv-x="570" 
d="M454 0h-429l21 125l245 188c41 32 61 53 61 84c0 29 -22 44 -52 44c-34 0 -64 -23 -78 -71l-145 29c37 119 132 180 239 180c120 0 200 -65 200 -168c0 -87 -49 -136 -130 -194l-117 -84h210z" />
    <glyph glyph-name="three.sc" horiz-adv-x="570" 
d="M503 426c0 -76 -60 -118 -106 -131v-2c47 -14 81 -60 81 -113c0 -125 -107 -196 -233 -196c-101 0 -188 46 -215 147l146 44c11 -42 40 -55 74 -55c46 0 70 27 70 61c0 44 -35 59 -86 59h-30l18 109h35c62 0 87 26 87 58c0 31 -23 41 -48 41c-35 0 -57 -17 -71 -44
l-129 54c42 83 126 121 214 121c123 0 193 -65 193 -153z" />
    <glyph glyph-name="four.sc" horiz-adv-x="570" 
d="M498 104h-75l-18 -104h-150l19 104h-266l24 129l269 330h201l-58 -336h75zM294 227l38 187h-3l-142 -187h107z" />
    <glyph glyph-name="five.sc" horiz-adv-x="570" 
d="M483 203c0 -149 -121 -219 -235 -219c-110 0 -188 54 -220 147l147 48c16 -45 47 -61 75 -61c40 0 71 26 71 73c0 45 -36 67 -80 67c-38 0 -101 -14 -156 -35l72 340h354l-24 -130h-213l-16 -71c20 5 37 6 49 6c86 0 176 -42 176 -165z" />
    <glyph glyph-name="six.sc" horiz-adv-x="570" 
d="M334 203c0 41 -34 65 -66 65c-54 0 -88 -40 -88 -89c0 -41 33 -65 68 -65c52 0 86 35 86 89zM495 205c0 -100 -72 -221 -248 -221c-124 0 -227 52 -227 197c0 86 50 154 105 216l147 166h211l-194 -193l1 -3c7 3 25 4 37 4c104 0 168 -75 168 -166z" />
    <glyph glyph-name="seven.sc" horiz-adv-x="570" 
d="M515 436l-293 -436h-185l306 430h-242l23 133h414z" />
    <glyph glyph-name="eight.sc" horiz-adv-x="570" 
d="M192 162c0 -39 28 -56 58 -56c49 0 75 31 75 70c0 33 -24 56 -57 56c-45 0 -76 -29 -76 -70zM401 291v-2c43 -14 88 -59 88 -118c0 -118 -101 -187 -246 -187c-96 0 -217 37 -217 157c0 88 69 146 133 160v3c-36 19 -69 51 -69 106c0 115 113 169 225 169
c100 0 200 -42 200 -142c0 -85 -61 -130 -114 -146zM243 400c0 -28 19 -48 51 -48c35 0 64 23 64 61c0 30 -22 48 -53 48c-37 0 -62 -26 -62 -61z" />
    <glyph glyph-name="nine.sc" horiz-adv-x="570" 
d="M218 360c0 -41 34 -65 66 -65c54 0 88 40 88 89c0 41 -33 65 -68 65c-52 0 -86 -35 -86 -89zM57 358c0 100 72 221 248 221c124 0 225 -64 225 -195c0 -83 -38 -143 -100 -213l-150 -171h-211l191 193l-1 3c-7 -3 -25 -4 -37 -4c-104 0 -165 75 -165 166z" />
    <glyph glyph-name="question.sc" horiz-adv-x="500" 
d="M315 90c0 -55 -41 -100 -97 -100c-53 0 -90 35 -90 84c0 56 43 100 98 100c52 0 89 -36 89 -84zM310 220h-152l4 28c6 43 22 70 68 97l17 10c47 28 54 40 54 60c0 21 -19 31 -38 31s-41 -12 -50 -46l-145 25c21 91 89 154 214 154c109 0 178 -72 178 -155
c0 -62 -30 -106 -84 -137c-52 -30 -63 -39 -65 -58z" />
    <glyph glyph-name="a.sc" horiz-adv-x="614" 
d="M569 0h-170l-16 102h-204l-61 -102h-178l357 563h165zM367 222l-24 176l-96 -176h120z" />
    <glyph glyph-name="b.sc" horiz-adv-x="564" 
d="M114 563h227c103 0 178 -42 178 -133c0 -65 -32 -112 -106 -135v-3c61 -16 90 -55 90 -112c0 -116 -103 -180 -250 -180h-238zM213 235l-21 -114h57c52 0 95 16 95 66c0 30 -25 48 -63 48h-68zM249 440l-18 -100h64c34 0 71 17 71 57c0 32 -25 43 -59 43h-58z" />
    <glyph glyph-name="c.sc" horiz-adv-x="579" 
d="M441 185l88 -111c-55 -57 -129 -90 -230 -90c-163 0 -267 101 -267 249c0 195 146 346 341 346c95 0 167 -33 216 -88l-119 -108c-21 34 -60 53 -101 53c-97 0 -164 -88 -164 -185c0 -68 42 -122 112 -122c41 0 86 14 124 56z" />
    <glyph glyph-name="d.sc" horiz-adv-x="645" 
d="M15 0l96 563h223c140 0 271 -69 271 -240c0 -197 -145 -323 -344 -323h-246zM248 432l-51 -300h62c118 0 179 80 179 175c0 72 -40 125 -129 125h-61z" />
    <glyph glyph-name="e.sc" horiz-adv-x="518" 
d="M421 0h-406l99 563h386l-23 -127h-228l-16 -90h216l-21 -120h-216l-18 -97h250z" />
    <glyph glyph-name="f.sc" horiz-adv-x="498" 
d="M472 436h-219l-18 -104h205l-21 -122h-206l-36 -210h-162l99 563h380z" />
    <glyph glyph-name="g.sc" horiz-adv-x="633" 
d="M307 217l20 112h250l-52 -294c-60 -32 -142 -51 -218 -51c-164 0 -275 96 -275 247c0 199 148 348 339 348c94 0 170 -26 218 -84l-117 -110c-26 34 -57 51 -104 51c-90 0 -166 -82 -166 -189c0 -67 41 -121 119 -121c24 0 51 4 69 13l14 78h-97z" />
    <glyph glyph-name="h.sc" horiz-adv-x="649" 
d="M523 0h-163l40 226h-182l-40 -226h-163l99 563h163l-37 -210h182l37 210h163z" />
    <glyph glyph-name="i.sc" horiz-adv-x="307" 
d="M180 0h-165l100 563h165z" />
    <glyph glyph-name="j.sc" horiz-adv-x="474" 
d="M452 563l-65 -371c-18 -105 -65 -208 -214 -208c-104 0 -173 52 -189 145l144 51c3 -31 19 -52 46 -52c31 0 47 21 54 65l62 370h162z" />
    <glyph glyph-name="k.sc" horiz-adv-x="607" 
d="M570 0h-195l-154 250h-3l-42 -250h-161l100 563h160l-41 -225h3l210 225h209l-287 -273z" />
    <glyph glyph-name="l.sc" horiz-adv-x="476" 
d="M392 0h-377l99 563h165l-75 -429h212z" />
    <glyph glyph-name="m.sc" horiz-adv-x="799" 
d="M673 0h-161l65 348h-3l-178 -348h-115l-54 350h-2l-56 -350h-154l99 563h207l57 -340h3l167 340h224z" />
    <glyph glyph-name="n.sc" horiz-adv-x="670" 
d="M544 0h-179l-132 331h-3l-56 -331h-159l99 563h177l134 -333h3l57 333h158z" />
    <glyph glyph-name="o.sc" horiz-adv-x="690" 
d="M309 -16c-174 0 -277 103 -277 252c0 189 147 343 343 343c171 0 275 -106 275 -254c0 -189 -144 -341 -341 -341zM480 316c0 68 -41 119 -117 119c-96 0 -161 -90 -161 -185c0 -69 41 -120 116 -120c100 0 162 91 162 186z" />
    <glyph glyph-name="p.sc" horiz-adv-x="549" 
d="M212 190l-34 -190h-163l99 563h204c144 0 213 -68 213 -169c0 -130 -93 -204 -237 -204h-82zM233 312h44c63 0 90 32 90 70c0 31 -24 54 -68 54h-45z" />
    <glyph glyph-name="q.sc" horiz-adv-x="690" 
d="M638 329c0 -96 -42 -159 -91 -198v-3l101 4l-23 -132h-324c-166 0 -269 91 -269 240c0 193 146 337 335 337c168 0 271 -97 271 -248zM470 317c0 68 -41 118 -116 118c-93 0 -154 -92 -154 -184c0 -73 43 -121 116 -121c93 0 154 93 154 187z" />
    <glyph glyph-name="r.sc" horiz-adv-x="575" 
d="M516 0h-179l-81 200h-47l-34 -200h-160l99 563h209c139 0 208 -58 208 -159c0 -88 -42 -145 -125 -170zM250 436l-20 -116h43c58 0 94 21 94 65c0 31 -19 51 -70 51h-47z" />
    <glyph glyph-name="s.sc" horiz-adv-x="504" 
d="M-18 82l110 101c27 -41 76 -61 116 -61c48 0 70 21 70 46c0 28 -19 43 -71 58c-109 32 -150 75 -150 158c0 117 104 195 237 195c100 0 163 -37 200 -88l-110 -97c-21 32 -53 51 -97 51c-41 0 -69 -19 -69 -48c0 -23 17 -32 65 -47c117 -33 159 -83 159 -167
c0 -120 -101 -199 -238 -199c-101 0 -174 38 -222 98z" />
    <glyph glyph-name="t.sc" horiz-adv-x="481" 
d="M488 431h-144l-77 -431h-163l75 431h-144l22 132h454z" />
    <glyph glyph-name="u.sc" horiz-adv-x="626" 
d="M605 563l-62 -348c-25 -139 -119 -231 -281 -231c-135 0 -222 75 -222 186c0 14 1 32 4 50l63 343h163l-59 -336c-2 -10 -3 -24 -3 -32c0 -37 26 -66 70 -66c67 0 96 54 106 110l58 324h163z" />
    <glyph glyph-name="v.sc" horiz-adv-x="569" 
d="M629 563l-339 -563h-163l-85 563h170l37 -361h4l200 361h176z" />
    <glyph glyph-name="w.sc" horiz-adv-x="880" 
d="M930 563l-275 -563h-173l-36 353h-3l-160 -353h-171l-71 563h170l29 -360h3l152 360h168l32 -360h4l149 360h182z" />
    <glyph glyph-name="x.sc" horiz-adv-x="606" 
d="M547 0h-189l-79 175l-143 -175h-204l265 296l-136 267h186l69 -159l125 159h199l-243 -272z" />
    <glyph glyph-name="y.sc" horiz-adv-x="516" 
d="M585 563l-269 -342l-38 -221h-163l40 224l-134 339h174l64 -210l136 210h190z" />
    <glyph glyph-name="z.sc" horiz-adv-x="540" 
d="M443 0h-464l23 127l300 303h-225l24 133h433l-21 -122l-302 -307h256z" />
    <glyph glyph-name="agrave.sc" horiz-adv-x="614" 
d="M569 0h-170l-16 102h-204l-61 -102h-178l357 563h165zM367 222l-24 176l-96 -176h120zM343 766l109 -144h-120l-152 144h163z" />
    <glyph glyph-name="aacute.sc" horiz-adv-x="614" 
d="M569 0h-170l-16 102h-204l-61 -102h-178l357 563h165zM367 222l-24 176l-96 -176h120zM603 766l-170 -144h-122l129 144h163z" />
    <glyph glyph-name="acircumflex.sc" horiz-adv-x="614" 
d="M569 0h-170l-16 102h-204l-61 -102h-178l357 563h165zM367 222l-24 176l-96 -176h120zM579 622h-125l-55 82l-83 -82h-127l148 144h146z" />
    <glyph glyph-name="atilde.sc" horiz-adv-x="614" 
d="M569 0h-170l-16 102h-204l-61 -102h-178l357 563h165zM367 222l-24 176l-96 -176h120zM588 758c-21 -70 -64 -131 -136 -131c-26 0 -50 7 -72 19c-27 14 -45 22 -65 22c-24 0 -40 -20 -50 -42h-71c20 69 63 129 136 129c28 0 52 -8 76 -20c25 -13 43 -20 62 -20
c25 0 39 19 49 43h71z" />
    <glyph glyph-name="adieresis.sc" horiz-adv-x="614" 
d="M569 0h-170l-16 102h-204l-61 -102h-178l357 563h165zM367 222l-24 176l-96 -176h120zM366 714c0 -47 -35 -86 -84 -86c-46 0 -78 30 -78 73c0 49 37 86 85 86c45 0 77 -31 77 -73zM585 714c0 -47 -35 -86 -84 -86c-45 0 -78 30 -78 73c0 49 37 86 86 86
c44 0 76 -31 76 -73z" />
    <glyph glyph-name="amacron.sc" horiz-adv-x="614" 
d="M569 0h-170l-16 102h-204l-61 -102h-178l357 563h165zM367 222l-24 176l-96 -176h120zM554 651h-333l14 84h334z" />
    <glyph glyph-name="abreve.sc" horiz-adv-x="614" 
d="M569 0h-170l-16 102h-204l-61 -102h-178l357 563h165zM367 222l-24 176l-96 -176h120zM571 766c-23 -103 -99 -144 -189 -144c-92 0 -157 39 -157 144h82c0 -43 39 -57 80 -57c48 0 89 10 102 57h82z" />
    <glyph glyph-name="aring.sc" horiz-adv-x="614" 
d="M569 0h-170l-16 102h-204l-61 -102h-178l357 563h165zM367 222l-24 176l-96 -176h120zM383 607c-55 0 -93 38 -93 89c0 68 50 123 119 123c55 0 93 -37 93 -88c0 -69 -50 -124 -119 -124zM453 724c0 27 -19 50 -49 50c-38 0 -65 -32 -65 -72c0 -28 18 -50 48 -50
c39 0 66 32 66 72z" />
    <glyph glyph-name="aogonek.sc" horiz-adv-x="614" 
d="M483 -200c-35 -24 -75 -40 -119 -40c-53 0 -96 22 -96 83c0 64 74 119 131 157l-16 102h-204l-61 -102h-178l357 563h165l107 -563h-81c-64 -46 -116 -91 -116 -131c0 -19 13 -27 33 -27c19 0 39 7 57 19zM367 222l-24 176l-96 -176h120z" />
    <glyph glyph-name="ae.sc" horiz-adv-x="890" 
d="M793 0h-406l19 112h-175l-81 -112h-185l417 563h490l-23 -127h-228l-16 -90h216l-21 -120h-216l-18 -97h250zM455 436l-146 -204h118l36 203z" />
    <glyph glyph-name="cacute.sc" horiz-adv-x="579" 
d="M441 185l88 -111c-55 -57 -129 -90 -230 -90c-163 0 -267 101 -267 249c0 195 146 346 341 346c95 0 167 -33 216 -88l-119 -108c-21 34 -60 53 -101 53c-97 0 -164 -88 -164 -185c0 -68 42 -122 112 -122c41 0 86 14 124 56zM564 766l-170 -144h-122l129 144h163z" />
    <glyph glyph-name="ccircumflex.sc" horiz-adv-x="579" 
d="M441 185l88 -111c-55 -57 -129 -90 -230 -90c-163 0 -267 101 -267 249c0 195 146 346 341 346c95 0 167 -33 216 -88l-119 -108c-21 34 -60 53 -101 53c-97 0 -164 -88 -164 -185c0 -68 42 -122 112 -122c41 0 86 14 124 56zM578 622h-125l-55 82l-83 -82h-127l148 144
h146z" />
    <glyph glyph-name="ccaron.sc" horiz-adv-x="579" 
d="M441 185l88 -111c-55 -57 -129 -90 -230 -90c-163 0 -267 101 -267 249c0 195 146 346 341 346c95 0 167 -33 216 -88l-119 -108c-21 34 -60 53 -101 53c-97 0 -164 -88 -164 -185c0 -68 42 -122 112 -122c41 0 86 14 124 56zM601 766l-147 -144h-145l-98 144h126l54 -83
l83 83h127z" />
    <glyph glyph-name="cdotaccent.sc" horiz-adv-x="579" 
d="M441 185l88 -111c-55 -57 -129 -90 -230 -90c-163 0 -267 101 -267 249c0 195 146 346 341 346c95 0 167 -33 216 -88l-119 -108c-21 34 -60 53 -101 53c-97 0 -164 -88 -164 -185c0 -68 42 -122 112 -122c41 0 86 14 124 56zM481 714c0 -49 -37 -90 -88 -90
c-47 0 -82 31 -82 76c0 51 40 90 90 90c46 0 80 -33 80 -76z" />
    <glyph glyph-name="ccedilla.sc" horiz-adv-x="579" 
d="M382 -135c0 -79 -84 -105 -152 -105c-41 0 -92 11 -120 25l32 59c23 -12 55 -18 81 -18c23 0 55 5 55 33c0 24 -22 29 -42 29c-12 0 -28 -2 -41 -6l-25 29l71 78c-129 20 -209 114 -209 244c0 195 146 346 341 346c95 0 167 -33 216 -88l-119 -108c-21 34 -60 53 -101 53
c-97 0 -164 -88 -164 -185c0 -68 42 -122 112 -122c41 0 86 14 124 56l88 -111c-52 -54 -120 -86 -212 -90l-43 -45c8 2 13 2 19 2c34 0 89 -17 89 -76z" />
    <glyph glyph-name="dcaron.sc" horiz-adv-x="645" 
d="M15 0l96 563h223c140 0 271 -69 271 -240c0 -197 -145 -323 -344 -323h-246zM248 432l-51 -300h62c118 0 179 80 179 175c0 72 -40 125 -129 125h-61zM554 766l-147 -144h-145l-98 144h126l54 -83l83 83h127z" />
    <glyph glyph-name="dcroat.sc" horiz-adv-x="645" 
d="M16 340h57l38 223h223c140 0 271 -69 271 -240c0 -197 -145 -323 -344 -323h-246l40 235h-58zM248 432l-16 -92h101l-19 -105h-100l-17 -103h67c118 0 177 80 177 175c0 72 -40 125 -129 125h-64z" />
    <glyph glyph-name="eth.sc" horiz-adv-x="645" 
d="M16 340h57l38 223h223c140 0 271 -69 271 -240c0 -197 -145 -323 -344 -323h-246l40 235h-58zM248 432l-16 -92h101l-19 -105h-100l-17 -103h67c118 0 177 80 177 175c0 72 -40 125 -129 125h-64z" />
    <glyph glyph-name="egrave.sc" horiz-adv-x="518" 
d="M421 0h-406l99 563h386l-23 -127h-228l-16 -90h216l-21 -120h-216l-18 -97h250zM272 766l109 -144h-120l-152 144h163z" />
    <glyph glyph-name="eacute.sc" horiz-adv-x="518" 
d="M421 0h-406l99 563h386l-23 -127h-228l-16 -90h216l-21 -120h-216l-18 -97h250zM538 766l-170 -144h-122l129 144h163z" />
    <glyph glyph-name="ecircumflex.sc" horiz-adv-x="518" 
d="M421 0h-406l99 563h386l-23 -127h-228l-16 -90h216l-21 -120h-216l-18 -97h250zM509 622h-125l-55 82l-83 -82h-127l148 144h146z" />
    <glyph glyph-name="ecaron.sc" horiz-adv-x="518" 
d="M421 0h-406l99 563h386l-23 -127h-228l-16 -90h216l-21 -120h-216l-18 -97h250zM531 766l-147 -144h-145l-98 144h126l54 -83l83 83h127z" />
    <glyph glyph-name="edieresis.sc" horiz-adv-x="518" 
d="M421 0h-406l99 563h386l-23 -127h-228l-16 -90h216l-21 -120h-216l-18 -97h250zM293 714c0 -47 -35 -86 -84 -86c-46 0 -78 30 -78 73c0 49 37 86 85 86c45 0 77 -31 77 -73zM512 714c0 -47 -35 -86 -84 -86c-45 0 -78 30 -78 73c0 49 37 86 86 86c44 0 76 -31 76 -73z
" />
    <glyph glyph-name="emacron.sc" horiz-adv-x="518" 
d="M421 0h-406l99 563h386l-23 -127h-228l-16 -90h216l-21 -120h-216l-18 -97h250zM480 651h-333l14 84h334z" />
    <glyph glyph-name="ebreve.sc" horiz-adv-x="518" 
d="M421 0h-406l99 563h386l-23 -127h-228l-16 -90h216l-21 -120h-216l-18 -97h250zM498 766c-23 -103 -99 -144 -189 -144c-92 0 -157 39 -157 144h82c0 -43 39 -57 80 -57c48 0 89 10 102 57h82z" />
    <glyph glyph-name="edotaccent.sc" horiz-adv-x="518" 
d="M421 0h-406l99 563h386l-23 -127h-228l-16 -90h216l-21 -120h-216l-18 -97h250zM407 714c0 -49 -37 -90 -88 -90c-47 0 -82 31 -82 76c0 51 40 90 90 90c46 0 80 -33 80 -76z" />
    <glyph glyph-name="eogonek.sc" horiz-adv-x="518" 
d="M393 -200c-35 -24 -75 -40 -119 -40c-53 0 -96 22 -96 83c0 64 74 119 131 157h-294l99 563h386l-23 -127h-228l-16 -90h216l-21 -120h-216l-18 -97h250l-23 -129h-23c-64 -46 -116 -91 -116 -131c0 -19 13 -27 33 -27c19 0 39 7 57 19z" />
    <glyph glyph-name="gcircumflex.sc" horiz-adv-x="633" 
d="M307 217l20 112h250l-52 -294c-60 -32 -142 -51 -218 -51c-164 0 -275 96 -275 247c0 199 148 348 339 348c94 0 170 -26 218 -84l-117 -110c-26 34 -57 51 -104 51c-90 0 -166 -82 -166 -189c0 -67 41 -121 119 -121c24 0 51 4 69 13l14 78h-97zM577 622h-125l-55 82
l-83 -82h-127l148 144h146z" />
    <glyph glyph-name="gbreve.sc" horiz-adv-x="633" 
d="M307 217l20 112h250l-52 -294c-60 -32 -142 -51 -218 -51c-164 0 -275 96 -275 247c0 199 148 348 339 348c94 0 170 -26 218 -84l-117 -110c-26 34 -57 51 -104 51c-90 0 -166 -82 -166 -189c0 -67 41 -121 119 -121c24 0 51 4 69 13l14 78h-97zM567 766
c-23 -103 -99 -144 -189 -144c-92 0 -157 39 -157 144h82c0 -43 39 -57 80 -57c48 0 89 10 102 57h82z" />
    <glyph glyph-name="gdotaccent.sc" horiz-adv-x="633" 
d="M307 217l20 112h250l-52 -294c-60 -32 -142 -51 -218 -51c-164 0 -275 96 -275 247c0 199 148 348 339 348c94 0 170 -26 218 -84l-117 -110c-26 34 -57 51 -104 51c-90 0 -166 -82 -166 -189c0 -67 41 -121 119 -121c24 0 51 4 69 13l14 78h-97zM478 714
c0 -49 -37 -90 -88 -90c-47 0 -82 31 -82 76c0 51 40 90 90 90c46 0 80 -33 80 -76z" />
    <glyph glyph-name="gcommaaccent.sc" horiz-adv-x="633" 
d="M307 217l20 112h250l-52 -294c-60 -32 -142 -51 -218 -51c-164 0 -275 96 -275 247c0 199 148 348 339 348c94 0 170 -26 218 -84l-117 -110c-26 34 -57 51 -104 51c-90 0 -166 -82 -166 -189c0 -67 41 -121 119 -121c24 0 51 4 69 13l14 78h-97zM376 -45l-130 -195h-123
l111 195h142z" />
    <glyph glyph-name="kgreenlandic.sc" horiz-adv-x="607" 
d="M570 0h-195l-154 250h-3l-42 -250h-161l100 563h160l-41 -225h3l210 225h209l-287 -273z" />
    <glyph glyph-name="hcircumflex.sc" horiz-adv-x="649" 
d="M523 0h-163l40 226h-182l-40 -226h-163l99 563h163l-37 -210h182l37 210h163zM577 622h-125l-55 82l-83 -82h-127l148 144h146z" />
    <glyph glyph-name="hbar.sc" horiz-adv-x="649" 
d="M523 0h-163l38 216h-182l-38 -216h-163l99 563h163l-13 -75h182l13 75h163zM238 343h182l12 67h-182z" />
    <glyph glyph-name="igrave.sc" horiz-adv-x="307" 
d="M180 0h-165l100 563h165zM165 766l109 -144h-120l-152 144h163z" />
    <glyph glyph-name="iacute.sc" horiz-adv-x="307" 
d="M180 0h-165l100 563h165zM421 766l-170 -144h-122l129 144h163z" />
    <glyph glyph-name="ibreve.sc" horiz-adv-x="307" 
d="M180 0h-165l100 563h165zM406 766c-23 -103 -99 -144 -189 -144c-92 0 -157 39 -157 144h82c0 -43 39 -57 80 -57c48 0 89 10 102 57h82z" />
    <glyph glyph-name="icircumflex.sc" horiz-adv-x="307" 
d="M180 0h-165l100 563h165zM403 622h-125l-55 82l-83 -82h-127l148 144h146z" />
    <glyph glyph-name="itilde.sc" horiz-adv-x="307" 
d="M180 0h-165l100 563h165zM413 758c-21 -70 -64 -131 -136 -131c-26 0 -50 7 -72 19c-27 14 -45 22 -65 22c-24 0 -40 -20 -50 -42h-71c20 69 63 129 136 129c28 0 52 -8 76 -20c25 -13 43 -20 62 -20c25 0 39 19 49 43h71z" />
    <glyph glyph-name="idieresis.sc" horiz-adv-x="307" 
d="M180 0h-165l100 563h165zM189 714c0 -47 -35 -86 -84 -86c-46 0 -78 30 -78 73c0 49 37 86 85 86c45 0 77 -31 77 -73zM408 714c0 -47 -35 -86 -84 -86c-45 0 -78 30 -78 73c0 49 37 86 86 86c44 0 76 -31 76 -73z" />
    <glyph glyph-name="imacron.sc" horiz-adv-x="307" 
d="M180 0h-165l100 563h165zM376 651h-333l14 84h334z" />
    <glyph glyph-name="idotaccent.sc" horiz-adv-x="307" 
d="M180 0h-165l100 563h165zM302 714c0 -49 -37 -90 -88 -90c-47 0 -82 31 -82 76c0 51 40 90 90 90c46 0 80 -33 80 -76z" />
    <glyph glyph-name="iogonek.sc" horiz-adv-x="307" 
d="M175 -200c-35 -24 -75 -40 -119 -40c-53 0 -96 22 -96 83c0 64 74 119 131 157h-76l100 563h165l-100 -563c-64 -46 -116 -91 -116 -131c0 -19 13 -27 33 -27c19 0 39 7 57 19z" />
    <glyph glyph-name="jcircumflex.sc" horiz-adv-x="474" 
d="M452 563l-65 -371c-18 -105 -65 -208 -214 -208c-104 0 -173 52 -189 145l144 51c3 -31 19 -52 46 -52c31 0 47 21 54 65l62 370h162zM577 622h-125l-55 82l-83 -82h-127l148 144h146z" />
    <glyph glyph-name="kcommaaccent.sc" horiz-adv-x="607" 
d="M570 0h-195l-154 250h-3l-42 -250h-161l100 563h160l-41 -225h3l210 225h209l-287 -273zM339 -45l-130 -195h-123l111 195h142z" />
    <glyph glyph-name="lacute.sc" horiz-adv-x="476" 
d="M392 0h-377l99 563h165l-75 -429h212zM434 766l-170 -144h-122l129 144h163z" />
    <glyph glyph-name="lcaron.sc" horiz-adv-x="476" 
d="M392 0h-377l99 563h165l-75 -429h212zM529 563l-130 -195h-123l111 195h142z" />
    <glyph glyph-name="lcommaaccent.sc" horiz-adv-x="476" 
d="M392 0h-377l99 563h165l-75 -429h212zM279 -45l-130 -195h-123l111 195h142z" />
    <glyph glyph-name="lslash.sc" horiz-adv-x="476" 
d="M392 0h-377l30 171l-72 -49l24 141l73 49l44 251h165l-22 -123l125 85l-25 -140l-124 -85l-29 -166h212z" />
    <glyph glyph-name="ldot.sc" horiz-adv-x="476" 
d="M392 0h-377l99 563h165l-75 -429h212zM445 354c0 -49 -37 -90 -88 -90c-47 0 -82 31 -82 76c0 51 40 90 90 90c46 0 80 -33 80 -76z" />
    <glyph glyph-name="nacute.sc" horiz-adv-x="670" 
d="M544 0h-179l-132 331h-3l-56 -331h-159l99 563h177l134 -333h3l57 333h158zM583 766l-170 -144h-122l129 144h163z" />
    <glyph glyph-name="ncaron.sc" horiz-adv-x="670" 
d="M544 0h-179l-132 331h-3l-56 -331h-159l99 563h177l134 -333h3l57 333h158zM598 766l-147 -144h-145l-98 144h126l54 -83l83 83h127z" />
    <glyph glyph-name="ntilde.sc" horiz-adv-x="670" 
d="M544 0h-179l-132 331h-3l-56 -331h-159l99 563h177l134 -333h3l57 333h158zM598 758c-21 -70 -64 -131 -136 -131c-26 0 -50 7 -72 19c-27 14 -45 22 -65 22c-24 0 -40 -20 -50 -42h-71c20 69 63 129 136 129c28 0 52 -8 76 -20c25 -13 43 -20 62 -20c25 0 39 19 49 43
h71z" />
    <glyph glyph-name="ncommaaccent.sc" horiz-adv-x="670" 
d="M544 0h-179l-132 331h-3l-56 -331h-159l99 563h177l134 -333h3l57 333h158zM355 -45l-130 -195h-123l111 195h142z" />
    <glyph glyph-name="ograve.sc" horiz-adv-x="690" 
d="M309 -16c-174 0 -277 103 -277 252c0 189 147 343 343 343c171 0 275 -106 275 -254c0 -189 -144 -341 -341 -341zM480 316c0 68 -41 119 -117 119c-96 0 -161 -90 -161 -185c0 -69 41 -120 116 -120c100 0 162 91 162 186zM360 766l109 -144h-120l-152 144h163z" />
    <glyph glyph-name="oacute.sc" horiz-adv-x="690" 
d="M309 -16c-174 0 -277 103 -277 252c0 189 147 343 343 343c171 0 275 -106 275 -254c0 -189 -144 -341 -341 -341zM480 316c0 68 -41 119 -117 119c-96 0 -161 -90 -161 -185c0 -69 41 -120 116 -120c100 0 162 91 162 186zM599 766l-170 -144h-122l129 144h163z" />
    <glyph glyph-name="ocircumflex.sc" horiz-adv-x="690" 
d="M309 -16c-174 0 -277 103 -277 252c0 189 147 343 343 343c171 0 275 -106 275 -254c0 -189 -144 -341 -341 -341zM480 316c0 68 -41 119 -117 119c-96 0 -161 -90 -161 -185c0 -69 41 -120 116 -120c100 0 162 91 162 186zM586 622h-125l-55 82l-83 -82h-127l148 144
h146z" />
    <glyph glyph-name="otilde.sc" horiz-adv-x="690" 
d="M309 -16c-174 0 -277 103 -277 252c0 189 147 343 343 343c171 0 275 -106 275 -254c0 -189 -144 -341 -341 -341zM480 316c0 68 -41 119 -117 119c-96 0 -161 -90 -161 -185c0 -69 41 -120 116 -120c100 0 162 91 162 186zM609 758c-21 -70 -64 -131 -136 -131
c-26 0 -50 7 -72 19c-27 14 -45 22 -65 22c-24 0 -40 -20 -50 -42h-71c20 69 63 129 136 129c28 0 52 -8 76 -20c25 -13 43 -20 62 -20c25 0 39 19 49 43h71z" />
    <glyph glyph-name="odieresis.sc" horiz-adv-x="690" 
d="M309 -16c-174 0 -277 103 -277 252c0 189 147 343 343 343c171 0 275 -106 275 -254c0 -189 -144 -341 -341 -341zM480 316c0 68 -41 119 -117 119c-96 0 -161 -90 -161 -185c0 -69 41 -120 116 -120c100 0 162 91 162 186zM383 714c0 -47 -35 -86 -84 -86
c-46 0 -78 30 -78 73c0 49 37 86 85 86c45 0 77 -31 77 -73zM602 714c0 -47 -35 -86 -84 -86c-45 0 -78 30 -78 73c0 49 37 86 86 86c44 0 76 -31 76 -73z" />
    <glyph glyph-name="omacron.sc" horiz-adv-x="690" 
d="M309 -16c-174 0 -277 103 -277 252c0 189 147 343 343 343c171 0 275 -106 275 -254c0 -189 -144 -341 -341 -341zM480 316c0 68 -41 119 -117 119c-96 0 -161 -90 -161 -185c0 -69 41 -120 116 -120c100 0 162 91 162 186zM567 651h-333l14 84h334z" />
    <glyph glyph-name="obreve.sc" horiz-adv-x="690" 
d="M309 -16c-174 0 -277 103 -277 252c0 189 147 343 343 343c171 0 275 -106 275 -254c0 -189 -144 -341 -341 -341zM480 316c0 68 -41 119 -117 119c-96 0 -161 -90 -161 -185c0 -69 41 -120 116 -120c100 0 162 91 162 186zM583 766c-23 -103 -99 -144 -189 -144
c-92 0 -157 39 -157 144h82c0 -43 39 -57 80 -57c48 0 89 10 102 57h82z" />
    <glyph glyph-name="ohungarumlaut.sc" horiz-adv-x="690" 
d="M309 -16c-174 0 -277 103 -277 252c0 189 147 343 343 343c171 0 275 -106 275 -254c0 -189 -144 -341 -341 -341zM480 316c0 68 -41 119 -117 119c-96 0 -161 -90 -161 -185c0 -69 41 -120 116 -120c100 0 162 91 162 186zM507 766l-171 -144h-121l128 144h164zM726 766
l-171 -144h-121l129 144h163z" />
    <glyph glyph-name="oslash.sc" horiz-adv-x="690" 
d="M309 -16c-77 0 -140 20 -186 55l-83 -73l-47 58l79 70c-26 39 -40 87 -40 142c0 189 147 343 343 343c73 0 134 -20 180 -54l84 75l49 -56l-81 -73c28 -40 43 -90 43 -146c0 -189 -144 -341 -341 -341zM491 318c0 16 -2 31 -6 45l-249 -220c20 -15 47 -24 80 -24
c108 0 175 96 175 199zM191 247c0 -17 2 -32 6 -46l247 221c-20 15 -47 23 -79 23c-104 0 -174 -96 -174 -198z" />
    <glyph glyph-name="oe.sc" horiz-adv-x="840" 
d="M321 0c-174 0 -280 87 -280 236c0 189 150 328 346 328h134v-1h301l-23 -127h-228l-16 -90h216l-21 -120h-216l-18 -97h250l-23 -129h-422zM211 249c0 -69 43 -109 118 -109h32l50 284h-36c-96 0 -164 -80 -164 -175z" />
    <glyph glyph-name="racute.sc" horiz-adv-x="575" 
d="M516 0h-179l-81 200h-47l-34 -200h-160l99 563h209c139 0 208 -58 208 -159c0 -88 -42 -145 -125 -170zM250 436l-20 -116h43c58 0 94 21 94 65c0 31 -19 51 -70 51h-47zM519 766l-170 -144h-122l129 144h163z" />
    <glyph glyph-name="rcaron.sc" horiz-adv-x="575" 
d="M516 0h-179l-81 200h-47l-34 -200h-160l99 563h209c139 0 208 -58 208 -159c0 -88 -42 -145 -125 -170zM250 436l-20 -116h43c58 0 94 21 94 65c0 31 -19 51 -70 51h-47zM540 766l-147 -144h-145l-98 144h126l54 -83l83 83h127z" />
    <glyph glyph-name="rcommaaccent.sc" horiz-adv-x="575" 
d="M516 0h-179l-81 200h-47l-34 -200h-160l99 563h209c139 0 208 -58 208 -159c0 -88 -42 -145 -125 -170zM250 436l-20 -116h43c58 0 94 21 94 65c0 31 -19 51 -70 51h-47zM322 -45l-130 -195h-123l111 195h142z" />
    <glyph glyph-name="sacute.sc" horiz-adv-x="504" 
d="M-18 82l110 101c27 -41 76 -61 116 -61c48 0 70 21 70 46c0 28 -19 43 -71 58c-109 32 -150 75 -150 158c0 117 104 195 237 195c100 0 163 -37 200 -88l-110 -97c-21 32 -53 51 -97 51c-41 0 -69 -19 -69 -48c0 -23 17 -32 65 -47c117 -33 159 -83 159 -167
c0 -120 -101 -199 -238 -199c-101 0 -174 38 -222 98zM500 766l-170 -144h-122l129 144h163z" />
    <glyph glyph-name="scircumflex.sc" horiz-adv-x="504" 
d="M-18 82l110 101c27 -41 76 -61 116 -61c48 0 70 21 70 46c0 28 -19 43 -71 58c-109 32 -150 75 -150 158c0 117 104 195 237 195c100 0 163 -37 200 -88l-110 -97c-21 32 -53 51 -97 51c-41 0 -69 -19 -69 -48c0 -23 17 -32 65 -47c117 -33 159 -83 159 -167
c0 -120 -101 -199 -238 -199c-101 0 -174 38 -222 98zM509 622h-125l-55 82l-83 -82h-127l148 144h146z" />
    <glyph glyph-name="scaron.sc" horiz-adv-x="504" 
d="M-18 82l110 101c27 -41 76 -61 116 -61c48 0 70 21 70 46c0 28 -19 43 -71 58c-109 32 -150 75 -150 158c0 117 104 195 237 195c100 0 163 -37 200 -88l-110 -97c-21 32 -53 51 -97 51c-41 0 -69 -19 -69 -48c0 -23 17 -32 65 -47c117 -33 159 -83 159 -167
c0 -120 -101 -199 -238 -199c-101 0 -174 38 -222 98zM526 766l-147 -144h-145l-98 144h126l54 -83l83 83h127z" />
    <glyph glyph-name="scedilla.sc" horiz-adv-x="504" 
d="M299 -135c0 -79 -84 -105 -152 -105c-41 0 -92 11 -120 25l32 59c23 -12 55 -18 81 -18c23 0 55 5 55 33c0 24 -22 29 -42 29c-12 0 -28 -2 -41 -6l-25 29l70 76c-77 10 -135 44 -175 95l110 101c27 -41 76 -61 116 -61c48 0 70 21 70 46c0 28 -19 43 -71 58
c-109 32 -150 75 -150 158c0 117 104 195 237 195c100 0 163 -37 200 -88l-110 -97c-21 32 -53 51 -97 51c-41 0 -69 -19 -69 -48c0 -23 17 -32 65 -47c117 -33 159 -83 159 -167c0 -111 -86 -186 -207 -197l-44 -47c8 2 13 2 19 2c34 0 89 -17 89 -76z" />
    <glyph glyph-name="scommaaccent.sc" horiz-adv-x="504" 
d="M-18 82l110 101c27 -41 76 -61 116 -61c48 0 70 21 70 46c0 28 -19 43 -71 58c-109 32 -150 75 -150 158c0 117 104 195 237 195c100 0 163 -37 200 -88l-110 -97c-21 32 -53 51 -97 51c-41 0 -69 -19 -69 -48c0 -23 17 -32 65 -47c117 -33 159 -83 159 -167
c0 -120 -101 -199 -238 -199c-101 0 -174 38 -222 98zM291 -45l-130 -195h-123l111 195h142z" />
    <glyph glyph-name="tcaron.sc" horiz-adv-x="481" 
d="M488 431h-144l-77 -431h-163l75 431h-144l22 132h454zM508 766l-147 -144h-145l-98 144h126l54 -83l83 83h127z" />
    <glyph glyph-name="tcommaaccent.sc" horiz-adv-x="481" 
d="M488 431h-144l-77 -431h-163l75 431h-144l22 132h454zM261 -45l-130 -195h-123l111 195h142z" />
    <glyph glyph-name="tbar.sc" horiz-adv-x="481" 
d="M55 264l16 86h94l14 81h-144l22 132h454l-23 -132h-144l-15 -81h96l-16 -86h-95l-47 -264h-163l46 264h-95z" />
    <glyph glyph-name="thorn.sc" horiz-adv-x="555" 
d="M267 491h67c137 0 201 -58 201 -163c0 -125 -70 -208 -260 -208h-75l-21 -120h-164l101 563h164zM244 364l-22 -116h58c66 0 92 27 92 64c0 34 -20 52 -70 52h-58z" />
    <glyph glyph-name="ugrave.sc" horiz-adv-x="626" 
d="M605 563l-62 -348c-25 -139 -119 -231 -281 -231c-135 0 -222 75 -222 186c0 14 1 32 4 50l63 343h163l-59 -336c-2 -10 -3 -24 -3 -32c0 -37 26 -66 70 -66c67 0 96 54 106 110l58 324h163zM356 766l109 -144h-120l-152 144h163z" />
    <glyph glyph-name="uacute.sc" horiz-adv-x="626" 
d="M605 563l-62 -348c-25 -139 -119 -231 -281 -231c-135 0 -222 75 -222 186c0 14 1 32 4 50l63 343h163l-59 -336c-2 -10 -3 -24 -3 -32c0 -37 26 -66 70 -66c67 0 96 54 106 110l58 324h163zM561 766l-170 -144h-122l129 144h163z" />
    <glyph glyph-name="ucircumflex.sc" horiz-adv-x="626" 
d="M605 563l-62 -348c-25 -139 -119 -231 -281 -231c-135 0 -222 75 -222 186c0 14 1 32 4 50l63 343h163l-59 -336c-2 -10 -3 -24 -3 -32c0 -37 26 -66 70 -66c67 0 96 54 106 110l58 324h163zM562 622h-125l-55 82l-83 -82h-127l148 144h146z" />
    <glyph glyph-name="utilde.sc" horiz-adv-x="626" 
d="M605 563l-62 -348c-25 -139 -119 -231 -281 -231c-135 0 -222 75 -222 186c0 14 1 32 4 50l63 343h163l-59 -336c-2 -10 -3 -24 -3 -32c0 -37 26 -66 70 -66c67 0 96 54 106 110l58 324h163zM574 758c-21 -70 -64 -131 -136 -131c-26 0 -50 7 -72 19
c-27 14 -45 22 -65 22c-24 0 -40 -20 -50 -42h-71c20 69 63 129 136 129c28 0 52 -8 76 -20c25 -13 43 -20 62 -20c25 0 39 19 49 43h71z" />
    <glyph glyph-name="udieresis.sc" horiz-adv-x="626" 
d="M605 563l-62 -348c-25 -139 -119 -231 -281 -231c-135 0 -222 75 -222 186c0 14 1 32 4 50l63 343h163l-59 -336c-2 -10 -3 -24 -3 -32c0 -37 26 -66 70 -66c67 0 96 54 106 110l58 324h163zM353 714c0 -47 -35 -86 -84 -86c-46 0 -78 30 -78 73c0 49 37 86 85 86
c45 0 77 -31 77 -73zM572 714c0 -47 -35 -86 -84 -86c-45 0 -78 30 -78 73c0 49 37 86 86 86c44 0 76 -31 76 -73z" />
    <glyph glyph-name="umacron.sc" horiz-adv-x="626" 
d="M605 563l-62 -348c-25 -139 -119 -231 -281 -231c-135 0 -222 75 -222 186c0 14 1 32 4 50l63 343h163l-59 -336c-2 -10 -3 -24 -3 -32c0 -37 26 -66 70 -66c67 0 96 54 106 110l58 324h163zM536 651h-333l14 84h334z" />
    <glyph glyph-name="ubreve.sc" horiz-adv-x="626" 
d="M605 563l-62 -348c-25 -139 -119 -231 -281 -231c-135 0 -222 75 -222 186c0 14 1 32 4 50l63 343h163l-59 -336c-2 -10 -3 -24 -3 -32c0 -37 26 -66 70 -66c67 0 96 54 106 110l58 324h163zM550 766c-23 -103 -99 -144 -189 -144c-92 0 -157 39 -157 144h82
c0 -43 39 -57 80 -57c48 0 89 10 102 57h82z" />
    <glyph glyph-name="uring.sc" horiz-adv-x="626" 
d="M605 563l-62 -348c-25 -139 -119 -231 -281 -231c-135 0 -222 75 -222 186c0 14 1 32 4 50l63 343h163l-59 -336c-2 -10 -3 -24 -3 -32c0 -37 26 -66 70 -66c67 0 96 54 106 110l58 324h163zM368 607c-55 0 -93 38 -93 89c0 68 50 123 119 123c55 0 93 -37 93 -88
c0 -69 -50 -124 -119 -124zM438 724c0 27 -19 50 -49 50c-38 0 -65 -32 -65 -72c0 -28 18 -50 48 -50c39 0 66 32 66 72z" />
    <glyph glyph-name="uhungarumlaut.sc" horiz-adv-x="626" 
d="M605 563l-62 -348c-25 -139 -119 -231 -281 -231c-135 0 -222 75 -222 186c0 14 1 32 4 50l63 343h163l-59 -336c-2 -10 -3 -24 -3 -32c0 -37 26 -66 70 -66c67 0 96 54 106 110l58 324h163zM479 766l-171 -144h-121l128 144h164zM698 766l-171 -144h-121l129 144h163z
" />
    <glyph glyph-name="uogonek.sc" horiz-adv-x="626" 
d="M338 -200c-35 -24 -75 -40 -119 -40c-53 0 -96 22 -96 83c0 56 56 105 109 142c-118 11 -192 82 -192 185c0 14 1 32 4 50l63 343h163l-59 -336c-2 -10 -3 -24 -3 -32c0 -37 26 -66 70 -66c67 0 96 54 106 110l58 324h163l-62 -348c-22 -119 -93 -204 -215 -225
c-57 -43 -101 -84 -101 -121c0 -19 13 -27 33 -27c19 0 39 7 57 19z" />
    <glyph glyph-name="wacute.sc" horiz-adv-x="880" 
d="M930 563l-275 -563h-173l-36 353h-3l-160 -353h-171l-71 563h170l29 -360h3l152 360h168l32 -360h4l149 360h182zM710 766l-170 -144h-122l129 144h163z" />
    <glyph glyph-name="wcircumflex.sc" horiz-adv-x="880" 
d="M930 563l-275 -563h-173l-36 353h-3l-160 -353h-171l-71 563h170l29 -360h3l152 360h168l32 -360h4l149 360h182zM690 622h-125l-55 82l-83 -82h-127l148 144h146z" />
    <glyph glyph-name="wdieresis.sc" horiz-adv-x="880" 
d="M930 563l-275 -563h-173l-36 353h-3l-160 -353h-171l-71 563h170l29 -360h3l152 360h168l32 -360h4l149 360h182zM478 714c0 -47 -35 -86 -84 -86c-46 0 -78 30 -78 73c0 49 37 86 85 86c45 0 77 -31 77 -73zM697 714c0 -47 -35 -86 -84 -86c-45 0 -78 30 -78 73
c0 49 37 86 86 86c44 0 76 -31 76 -73z" />
    <glyph glyph-name="wgrave.sc" horiz-adv-x="880" 
d="M930 563l-275 -563h-173l-36 353h-3l-160 -353h-171l-71 563h170l29 -360h3l152 360h168l32 -360h4l149 360h182zM451 766l109 -144h-120l-152 144h163z" />
    <glyph glyph-name="yacute.sc" horiz-adv-x="516" 
d="M585 563l-269 -342l-38 -221h-163l40 224l-134 339h174l64 -210l136 210h190zM502 766l-170 -144h-122l129 144h163z" />
    <glyph glyph-name="ycircumflex.sc" horiz-adv-x="516" 
d="M585 563l-269 -342l-38 -221h-163l40 224l-134 339h174l64 -210l136 210h190zM511 622h-125l-55 82l-83 -82h-127l148 144h146z" />
    <glyph glyph-name="ydieresis.sc" horiz-adv-x="516" 
d="M585 563l-269 -342l-38 -221h-163l40 224l-134 339h174l64 -210l136 210h190zM292 714c0 -47 -35 -86 -84 -86c-46 0 -78 30 -78 73c0 49 37 86 85 86c45 0 77 -31 77 -73zM511 714c0 -47 -35 -86 -84 -86c-45 0 -78 30 -78 73c0 49 37 86 86 86c44 0 76 -31 76 -73z" />
    <glyph glyph-name="ygrave.sc" horiz-adv-x="516" 
d="M585 563l-269 -342l-38 -221h-163l40 224l-134 339h174l64 -210l136 210h190zM264 766l109 -144h-120l-152 144h163z" />
    <glyph glyph-name="zacute.sc" horiz-adv-x="540" 
d="M443 0h-464l23 127l300 303h-225l24 133h433l-21 -122l-302 -307h256zM516 766l-170 -144h-122l129 144h163z" />
    <glyph glyph-name="zcaron.sc" horiz-adv-x="540" 
d="M443 0h-464l23 127l300 303h-225l24 133h433l-21 -122l-302 -307h256zM550 766l-147 -144h-145l-98 144h126l54 -83l83 83h127z" />
    <glyph glyph-name="zdotaccent.sc" horiz-adv-x="540" 
d="M443 0h-464l23 127l300 303h-225l24 133h433l-21 -122l-302 -307h256zM421 714c0 -49 -37 -90 -88 -90c-47 0 -82 31 -82 76c0 51 40 90 90 90c46 0 80 -33 80 -76z" />
    <glyph glyph-name="ij.sc" horiz-adv-x="776" 
d="M180 0h-165l100 563h165zM754 563l-65 -371c-18 -105 -65 -208 -214 -208c-104 0 -173 52 -189 145l144 51c3 -31 19 -52 46 -52c31 0 47 21 54 65l62 370h162z" />
    <glyph glyph-name="germandbls.sc" horiz-adv-x="1008" 
d="M-18 82l110 101c27 -41 76 -61 116 -61c48 0 70 21 70 46c0 28 -19 43 -71 58c-109 32 -150 75 -150 158c0 117 104 195 237 195c100 0 163 -37 200 -88l-110 -97c-21 32 -53 51 -97 51c-41 0 -69 -19 -69 -48c0 -23 17 -32 65 -47c117 -33 159 -83 159 -167
c0 -120 -101 -199 -238 -199c-101 0 -174 38 -222 98zM486 82l110 101c27 -41 76 -61 116 -61c48 0 70 21 70 46c0 28 -19 43 -71 58c-109 32 -150 75 -150 158c0 117 104 195 237 195c100 0 163 -37 200 -88l-110 -97c-21 32 -53 51 -97 51c-41 0 -69 -19 -69 -48
c0 -23 17 -32 65 -47c117 -33 159 -83 159 -167c0 -120 -101 -199 -238 -199c-101 0 -174 38 -222 98z" />
    <glyph glyph-name="eng.sc" horiz-adv-x="670" 
d="M541 -19c-22 -121 -68 -225 -230 -225c-22 0 -51 4 -69 9l29 133c12 -4 25 -5 34 -5c49 0 66 35 75 87l2 11l-149 340h-3l-56 -331h-159l99 563h177l136 -318h3l55 318h158z" />
    <glyph glyph-name="grave.sc" 
d="M173 766l109 -144h-120l-152 144h163z" />
    <glyph glyph-name="acute.sc" 
d="M416 766l-170 -144h-122l129 144h163z" />
    <glyph glyph-name="circumflex.sc" 
d="M388 622h-125l-55 82l-83 -82h-127l148 144h146z" />
    <glyph glyph-name="caron.sc" 
d="M413 766l-147 -144h-145l-98 144h126l54 -83l83 83h127z" />
    <glyph glyph-name="tilde.sc" 
d="M403 758c-21 -70 -64 -131 -136 -131c-26 0 -50 7 -72 19c-27 14 -45 22 -65 22c-24 0 -40 -20 -50 -42h-71c20 69 63 129 136 129c28 0 52 -8 76 -20c25 -13 43 -20 62 -20c25 0 39 19 49 43h71z" />
    <glyph glyph-name="dieresis.sc" 
d="M179 714c0 -47 -35 -86 -84 -86c-46 0 -78 30 -78 73c0 49 37 86 85 86c45 0 77 -31 77 -73zM398 714c0 -47 -35 -86 -84 -86c-45 0 -78 30 -78 73c0 49 37 86 86 86c44 0 76 -31 76 -73z" />
    <glyph glyph-name="macron.sc" 
d="M365 651h-333l14 84h334z" />
    <glyph glyph-name="breve.sc" 
d="M391 766c-23 -103 -99 -144 -189 -144c-92 0 -157 39 -157 144h82c0 -43 39 -57 80 -57c48 0 89 10 102 57h82z" />
    <glyph glyph-name="ring.sc" 
d="M197 607c-55 0 -93 38 -93 89c0 68 50 123 119 123c55 0 93 -37 93 -88c0 -69 -50 -124 -119 -124zM267 724c0 27 -19 50 -49 50c-38 0 -65 -32 -65 -72c0 -28 18 -50 48 -50c39 0 66 32 66 72z" />
    <glyph glyph-name="hungarumlaut.sc" 
d="M302 766l-171 -144h-121l128 144h164zM521 766l-171 -144h-121l129 144h163z" />
    <glyph glyph-name="dotaccent.sc" 
d="M292 714c0 -49 -37 -90 -88 -90c-47 0 -82 31 -82 76c0 51 40 90 90 90c46 0 80 -33 80 -76z" />
    <glyph glyph-name="exclamdown.sc" horiz-adv-x="330" 
d="M93 343h160l-60 -343h-161zM96 476c0 55 40 99 96 99c53 0 89 -34 89 -83c0 -56 -42 -99 -97 -99c-52 0 -88 35 -88 83z" />
    <glyph glyph-name="questiondown.sc" horiz-adv-x="500" 
d="M183 478c0 55 41 100 97 100c53 0 90 -35 90 -84c0 -56 -43 -100 -98 -100c-52 0 -89 36 -89 84zM188 348h152l-4 -28c-6 -43 -22 -70 -68 -97l-17 -10c-47 -28 -54 -40 -54 -60c0 -21 19 -31 38 -31s41 12 50 46l145 -25c-21 -91 -89 -154 -214 -154
c-109 0 -178 72 -178 155c0 62 30 106 84 137c52 30 63 39 65 58z" />
    <glyph glyph-name="Euro.sc" horiz-adv-x="570" 
d="M460 135l20 -123c-32 -17 -87 -28 -141 -28c-136 0 -215 86 -228 189h-85l43 90h44c0 9 3 25 7 42h-71l43 90h50c53 127 144 184 277 184c47 0 102 -13 134 -27l-57 -120c-23 15 -57 22 -88 22c-37 0 -77 -18 -102 -59h175l-43 -90h-165c-4 -12 -8 -31 -8 -42h161
l-43 -90h-117c5 -37 47 -59 95 -59c33 0 68 6 99 21z" />
    <glyph glyph-name="cent.sc" horiz-adv-x="570" 
d="M409 509c57 -6 105 -28 135 -66l-96 -101c-10 18 -35 34 -62 39l-46 -265c37 5 63 21 85 42l70 -99c-45 -40 -106 -69 -178 -73l-12 -65h-74l12 67c-117 18 -191 95 -191 215c0 158 112 297 283 307l11 64h75zM313 379c-63 -10 -113 -74 -113 -157c0 -47 19 -92 66 -102z
" />
    <glyph glyph-name="sterling.sc" horiz-adv-x="570" 
d="M535 524l-93 -108c-17 21 -37 29 -57 29c-33 0 -57 -23 -64 -63l-6 -35h120l-21 -113h-119l-18 -102h202l-24 -132h-431l23 132h70l18 102h-69l19 113h70l8 47c18 109 90 185 224 185c59 0 112 -23 148 -55z" />
    <glyph glyph-name="florin.sc" horiz-adv-x="570" 
d="M570 539l-74 -115c-17 12 -33 18 -51 18c-21 0 -42 -11 -56 -50l-16 -43h134l-21 -111h-149l-57 -155c-44 -119 -109 -169 -206 -169c-40 0 -89 13 -118 32l65 118c19 -14 37 -20 54 -20c23 0 41 15 58 59l51 135h-114l21 111h129l30 79c41 108 114 147 202 147
c48 0 87 -15 118 -36z" />
    <glyph glyph-name="yen.sc" horiz-adv-x="570" 
d="M594 568l-186 -238h81l-18 -100h-131l-8 -44h131l-17 -100h-130l-15 -86h-151l15 86h-130l17 100h129l8 44h-129l18 100h90l-104 238h162l66 -194l129 194h173z" />
    <glyph glyph-name="perthousand.sc" horiz-adv-x="1164" 
d="M262 434c0 25 -15 46 -45 46c-33 0 -54 -29 -54 -64c0 -26 16 -45 44 -45c35 0 55 28 55 63zM196 274c-92 0 -143 54 -143 131c0 96 70 171 175 171c93 0 143 -54 143 -130c0 -96 -69 -172 -175 -172zM631 148c0 25 -15 46 -45 46c-33 0 -54 -29 -54 -64
c0 -26 16 -45 44 -45c35 0 55 28 55 63zM565 -12c-92 0 -143 54 -143 131c0 96 70 171 175 171c93 0 143 -54 143 -130c0 -96 -69 -172 -175 -172zM985 148c0 25 -15 46 -45 46c-33 0 -54 -29 -54 -64c0 -26 16 -45 44 -45c35 0 55 28 55 63zM919 -12
c-92 0 -143 54 -143 131c0 96 70 171 175 171c93 0 143 -54 143 -130c0 -96 -69 -172 -175 -172zM646 547l-435 -581l-70 45l438 586z" />
    <glyph glyph-name="zero.onum" horiz-adv-x="701" 
d="M652 329c0 -190 -139 -346 -343 -346c-173 0 -274 104 -274 255c0 191 142 345 343 345c173 0 274 -104 274 -254zM485 314c0 69 -43 124 -122 124c-98 0 -162 -86 -162 -184c0 -69 45 -125 122 -125c102 0 162 86 162 185z" />
    <glyph glyph-name="one.onum" horiz-adv-x="472" 
d="M393 566l-100 -566h-165l70 389l-112 -68l-59 121l209 124h157z" />
    <glyph glyph-name="two.onum" horiz-adv-x="597" 
d="M539 401c0 -129 -121 -196 -228 -248l-43 -21v-3h241l-23 -129h-486l23 126l59 30c198 99 292 148 292 220c0 56 -43 71 -76 71c-49 0 -85 -29 -106 -70l-127 54c43 86 132 152 252 152c103 0 222 -46 222 -182z" />
    <glyph glyph-name="three.onum" horiz-adv-x="571" 
d="M539 566l-25 -142c-62 -42 -167 -106 -230 -142l-1 -3h1c8 1 16 2 27 2c80 0 175 -59 175 -179c0 -184 -149 -272 -349 -272c-40 0 -91 4 -134 13l31 143c31 -7 71 -11 100 -11c92 0 179 34 179 113c0 61 -56 87 -129 87c-31 0 -73 -5 -111 -14l-9 116
c72 38 190 108 254 149l1 4h-237l24 136h433z" />
    <glyph glyph-name="four.onum" horiz-adv-x="637" 
d="M593 135l-24 -135h-96l-30 -170h-155l30 170h-330l25 142l328 441h183l-341 -448h157l36 203h153l-36 -203h100z" />
    <glyph glyph-name="five.onum" horiz-adv-x="571" 
d="M549 566l-26 -144h-256l-33 -118c15 3 26 3 41 3c120 0 208 -68 208 -194c0 -166 -115 -283 -346 -283c-38 0 -88 3 -136 12l28 142c31 -6 68 -9 96 -9c93 0 184 26 184 122c0 69 -56 91 -123 91c-39 0 -89 -7 -135 -17l92 395h406z" />
    <glyph glyph-name="six.onum" horiz-adv-x="649" 
d="M593 260c0 -153 -115 -278 -303 -278c-131 0 -254 66 -254 237c0 206 217 388 395 512l151 -73c-99 -63 -207 -147 -266 -214l2 -2c24 10 52 16 72 16c116 0 203 -72 203 -198zM427 247c0 59 -42 98 -95 98c-80 0 -133 -57 -133 -131c0 -59 46 -98 101 -98
c78 0 127 55 127 131z" />
    <glyph glyph-name="seven.onum" horiz-adv-x="571" 
d="M570 566l-23 -130c-141 -210 -301 -463 -389 -616l-169 37c98 155 276 424 373 565h-310l25 144h493z" />
    <glyph glyph-name="eight.onum" horiz-adv-x="649" 
d="M601 550c0 -103 -74 -159 -144 -179v-3c56 -19 108 -76 108 -150c0 -154 -120 -236 -283 -236c-113 0 -242 51 -242 194c0 111 83 182 166 201v4c-53 24 -87 73 -87 132c0 138 128 213 260 213c117 0 222 -55 222 -176zM445 522c0 51 -32 80 -81 80
c-58 0 -98 -43 -98 -97c0 -41 30 -77 79 -77c59 0 100 44 100 94zM406 222c0 49 -36 87 -89 87c-69 0 -119 -48 -119 -111c0 -57 41 -88 89 -88c78 0 119 49 119 112z" />
    <glyph glyph-name="nine.onum" horiz-adv-x="649" 
d="M600 346c0 -205 -216 -390 -415 -527l-140 84c100 63 215 149 276 219l-2 2c-24 -10 -51 -16 -72 -16c-117 0 -204 71 -204 197c0 153 115 278 303 278c131 0 254 -66 254 -237zM437 351c0 59 -45 98 -100 98c-79 0 -128 -55 -128 -131c0 -59 43 -98 96 -98
c79 0 132 57 132 131z" />
    <glyph glyph-name="napostrophe.sc" horiz-adv-x="794" 
d="M668 0h-179l-132 331h-3l-56 -331h-159l99 563h177l134 -333h3l57 333h158zM220 563l-130 -195h-123l111 195h142z" />
    <glyph glyph-name="ordfeminine.sc" horiz-adv-x="380" 
d="M16 431l209 293h94l48 -293h-99l-5 51h-104l-34 -51h-109zM257 542l-7 92l-56 -92h63z" />
    <glyph glyph-name="fl.sc" horiz-adv-x="973" 
d="M472 436h-219l-18 -104h205l-21 -122h-206l-36 -210h-162l99 563h380zM890 0h-377l99 563h165l-76 -435h212z" />
    <glyph glyph-name="fi.sc" horiz-adv-x="805" 
d="M472 436h-219l-18 -104h205l-21 -122h-206l-36 -210h-162l99 563h380zM678 0h-165l100 563h165z" />
    </font>
</defs>
</svg>
